<svg width="90" height="235" viewBox="0 0 90 235" fill="none" xmlns="http://www.w3.org/2000/svg">
<path d="M59.9841 14.9519L61.8923 18.7681C61.9605 18.9012 62.0602 19.0161 62.183 19.1032C62.3058 19.1903 62.4481 19.247 62.5978 19.2685L66.8712 19.8806C67.0432 19.9061 67.2047 19.9784 67.3373 20.0893C67.47 20.2002 67.5686 20.3453 67.6221 20.5083C67.6757 20.6714 67.682 20.8459 67.6404 21.0123C67.5988 21.1787 67.5109 21.3303 67.3866 21.4503L64.2977 24.4204C64.1883 24.5238 64.1065 24.6521 64.0593 24.794C64.0121 24.9359 64.0011 25.087 64.0272 25.2341L64.7363 29.4139C64.7658 29.5832 64.7465 29.7572 64.6808 29.9164C64.6152 30.0755 64.5056 30.2134 64.3646 30.3145C64.2236 30.4155 64.0567 30.4758 63.8827 30.4884C63.7088 30.5011 63.5347 30.4655 63.3801 30.3859L59.5564 28.4058C59.4221 28.3367 59.2729 28.3007 59.1214 28.3007C58.9699 28.3007 58.8206 28.3367 58.6864 28.4058L54.8663 30.3967C54.7117 30.4763 54.5377 30.5119 54.3637 30.4992C54.1898 30.4866 54.0229 30.4263 53.8818 30.3253C53.7408 30.2242 53.6313 30.0863 53.5656 29.9272C53.4999 29.768 53.4807 29.594 53.5101 29.4247L54.2412 25.2341C54.2663 25.087 54.2548 24.9361 54.2077 24.7944C54.1606 24.6527 54.0792 24.5244 53.9707 24.4204L50.8781 21.4503C50.7537 21.3301 50.6659 21.1781 50.6245 21.0115C50.5831 20.8448 50.5897 20.6701 50.6437 20.507C50.6976 20.3438 50.7967 20.1988 50.9298 20.0881C51.063 19.9774 51.2248 19.9056 51.3972 19.8806L55.6705 19.2685C55.8199 19.2473 55.9618 19.1907 56.0841 19.1035C56.2063 19.0164 56.3053 18.9013 56.3724 18.7681L58.2843 14.9519C58.3591 14.792 58.479 14.6565 58.6296 14.5615C58.7802 14.4665 58.9553 14.416 59.1342 14.416C59.313 14.416 59.4881 14.4665 59.6388 14.5615C59.7894 14.6565 59.9092 14.792 59.9841 14.9519Z" fill="#FFD124"/>
<path d="M52.6729 17.4733C52.64 17.5093 50.2127 15.2916 47.259 12.5194C44.3053 9.74728 41.9365 7.47917 41.9731 7.43236C42.0096 7.38556 44.4479 9.61408 47.4053 12.3862C50.3626 15.1584 52.7241 17.4373 52.6729 17.4733Z" fill="#022151"/>
<path d="M47.6206 19.8203C47.6206 19.8707 45.5333 19.7879 42.9707 19.6367C40.4082 19.4855 38.3281 19.3163 38.3281 19.2767C38.3281 19.2371 40.4155 19.3055 42.9817 19.4603C45.5479 19.6151 47.6206 19.7699 47.6206 19.8203Z" fill="#022151"/>
<path d="M55.5228 12.9881C55.0196 12.1013 54.5716 11.1851 54.1813 10.2447C53.7331 9.32909 53.3412 8.38775 53.0078 7.42578C53.515 8.31115 53.9643 9.22746 54.3531 10.1691C54.8018 11.084 55.1925 12.0255 55.5228 12.9881Z" fill="#022151"/>
<path d="M58.7591 0.757812C58.8103 0.757812 58.8542 3.27794 58.8542 6.3597C58.8542 9.44146 58.8103 11.9652 58.7591 11.9652C58.7079 11.9652 58.6641 9.44506 58.6641 6.3597C58.6641 3.27434 58.7079 0.757812 58.7591 0.757812Z" fill="#022151"/>
<path d="M65.221 7.5293C64.8766 8.45915 64.4737 9.36695 64.0146 10.2474C63.6098 11.1532 63.1483 12.0333 62.6328 12.8828C62.9776 11.9525 63.3817 11.0447 63.8428 10.1646C64.2456 9.25858 64.7059 8.37839 65.221 7.5293Z" fill="#022151"/>
<path d="M75.6631 9.36205C75.6923 9.40526 72.9031 11.371 69.4486 13.7543C65.9941 16.1376 63.1428 18.0385 63.1135 17.9953C63.0843 17.9521 65.8698 15.9864 69.328 13.5995C72.7862 11.2125 75.6302 9.31885 75.6631 9.36205Z" fill="#022151"/>
<path d="M75.9398 17.3262C74.9376 17.8117 73.9088 18.242 72.8581 18.615C71.8302 19.0355 70.778 19.3962 69.707 19.6951C70.7061 19.2173 71.7312 18.7942 72.7777 18.4278C73.8088 17.9996 74.8646 17.6318 75.9398 17.3262Z" fill="#022151"/>
<path d="M51.6314 24.9976C51.6314 25.0445 48.0233 26.3189 43.5343 27.8382C39.0452 29.3575 35.3897 30.5527 35.375 30.4951C35.3604 30.4375 38.9831 29.1739 43.4721 27.651C47.9612 26.1281 51.6168 24.9472 51.6314 24.9976Z" fill="#022151"/>
<path d="M80.2059 28.9225C80.2059 28.9729 77.0036 28.134 73.0811 27.0504C69.1587 25.9667 65.9893 25.0487 66.004 24.9983C66.0186 24.9478 69.2099 25.7867 73.1323 26.8703C77.0548 27.954 80.2205 28.872 80.2059 28.9225Z" fill="#022151"/>
<path d="M48.6523 35.4281C49.3301 34.7269 50.0517 34.068 50.8128 33.4552C51.5333 32.7938 52.2978 32.1804 53.1012 31.6191C52.4233 32.3227 51.7005 32.9829 50.9371 33.5956C50.2159 34.2538 49.4528 34.8658 48.6523 35.4281Z" fill="#022151"/>
<path d="M59.0605 44.2461C59.0093 44.2461 58.9837 41.168 59.002 37.377C59.0203 33.586 59.0824 30.5042 59.1336 30.5078C59.1848 30.5114 59.214 33.5824 59.1921 37.377C59.1701 41.1716 59.1116 44.2461 59.0605 44.2461Z" fill="#022151"/>
<path d="M69.8515 36.1983C69.0622 35.5928 68.3125 34.9387 67.607 34.2398C66.8474 33.5881 66.1318 32.8881 65.4648 32.1445C66.2542 32.7501 67.0039 33.4042 67.7094 34.103C68.469 34.7548 69.1845 35.4547 69.8515 36.1983Z" fill="#022151"/>
<path d="M77.674 23.2237L77.7069 23.8429C77.7079 23.8648 77.7145 23.8862 77.726 23.905C77.7374 23.9239 77.7535 23.9396 77.7727 23.9509L78.3064 24.2749C78.3288 24.2876 78.3472 24.3063 78.3592 24.3289C78.3711 24.3515 78.3763 24.377 78.374 24.4024C78.3717 24.4278 78.362 24.4521 78.3461 24.4722C78.3302 24.4924 78.3088 24.5076 78.2844 24.5161L77.6959 24.7357C77.6757 24.7436 77.6578 24.7562 77.6437 24.7726C77.6297 24.7889 77.62 24.8084 77.6155 24.8293L77.4656 25.4342C77.4595 25.4584 77.4466 25.4804 77.4285 25.4978C77.4103 25.5152 77.3875 25.5272 77.3627 25.5324C77.338 25.5377 77.3122 25.536 77.2884 25.5275C77.2646 25.5191 77.2436 25.5042 77.228 25.4846L76.8332 25.0057C76.8194 24.9885 76.8015 24.9749 76.7811 24.9661C76.7607 24.9573 76.7384 24.9536 76.7162 24.9553L76.0874 25.0021C76.0623 25.0041 76.037 24.9991 76.0146 24.9877C75.9922 24.9763 75.9734 24.9589 75.9605 24.9376C75.9476 24.9162 75.941 24.8918 75.9414 24.8669C75.9419 24.842 75.9494 24.8178 75.9631 24.7969L76.3068 24.2749C76.3173 24.2562 76.3229 24.2351 76.3229 24.2137C76.3229 24.1923 76.3173 24.1712 76.3068 24.1525L76.0655 23.5765C76.057 23.5534 76.055 23.5286 76.0597 23.5045C76.0643 23.4804 76.0754 23.458 76.0919 23.4396C76.1083 23.4212 76.1295 23.4075 76.1531 23.3999C76.1768 23.3923 76.2021 23.3911 76.2263 23.3965L76.8368 23.5585C76.8584 23.5635 76.8808 23.5635 76.9024 23.5585C76.924 23.5535 76.9441 23.5437 76.9611 23.5297L77.44 23.13C77.4587 23.1104 77.483 23.0968 77.5097 23.091C77.5364 23.0852 77.5643 23.0875 77.5896 23.0977C77.615 23.1078 77.6366 23.1253 77.6516 23.1478C77.6667 23.1703 77.6745 23.1967 77.674 23.2237Z" fill="#FFD124"/>
<path d="M81.7083 16.6948L81.9971 16.99C82.0067 17.0002 82.0187 17.0079 82.0322 17.0123C82.0456 17.0167 82.0599 17.0177 82.0738 17.0152L82.4832 16.9504C82.4998 16.948 82.5168 16.9501 82.5322 16.9565C82.5476 16.9629 82.561 16.9733 82.5708 16.9867C82.5806 17.0001 82.5865 17.0159 82.5878 17.0323C82.5892 17.0488 82.5858 17.0653 82.5783 17.08L82.3809 17.44C82.3738 17.4527 82.3702 17.467 82.3702 17.4814C82.3702 17.4959 82.3738 17.5101 82.3809 17.5228L82.571 17.8829C82.5779 17.8977 82.5805 17.9142 82.5786 17.9305C82.5767 17.9467 82.5703 17.9622 82.5602 17.9751C82.55 17.9881 82.5365 17.9981 82.521 18.004C82.5055 18.01 82.4887 18.0116 82.4723 18.0089L82.0665 17.9369C82.0523 17.9339 82.0376 17.9343 82.0237 17.9381C82.0097 17.9419 81.9968 17.9488 81.9861 17.9585L81.6937 18.2501C81.6816 18.2614 81.6667 18.2694 81.6504 18.273C81.6342 18.2766 81.6172 18.2758 81.6014 18.2706C81.5856 18.2654 81.5715 18.256 81.5607 18.2435C81.5499 18.231 81.5428 18.2159 81.5401 18.1997L81.4853 17.7928C81.4836 17.779 81.4783 17.7658 81.47 17.7544C81.4617 17.7431 81.4506 17.734 81.4378 17.728L81.0722 17.5408C81.0565 17.5341 81.0432 17.523 81.0339 17.509C81.0245 17.4949 81.0195 17.4784 81.0195 17.4616C81.0195 17.4448 81.0245 17.4284 81.0339 17.4143C81.0432 17.4002 81.0565 17.3891 81.0722 17.3824L81.4378 17.206C81.4515 17.2009 81.4635 17.1921 81.4725 17.1807C81.4816 17.1692 81.4872 17.1556 81.4889 17.1412L81.5511 16.7416C81.5538 16.725 81.5612 16.7094 81.5725 16.6967C81.5838 16.6841 81.5985 16.6747 81.6148 16.6699C81.6312 16.665 81.6487 16.6647 81.6652 16.6691C81.6817 16.6736 81.6966 16.6824 81.7083 16.6948Z" fill="#FFD124"/>
<path d="M35.3481 11.7964L35.6333 12.0916C35.6424 12.1024 35.6544 12.1105 35.668 12.1149C35.6816 12.1194 35.6961 12.12 35.71 12.1168L36.1194 12.052C36.136 12.0495 36.153 12.0516 36.1684 12.058C36.1838 12.0644 36.1972 12.0749 36.207 12.0883C36.2168 12.1017 36.2227 12.1174 36.224 12.1339C36.2253 12.1503 36.222 12.1668 36.2145 12.1816L36.0171 12.5416C36.01 12.5543 36.0064 12.5685 36.0064 12.583C36.0064 12.5975 36.01 12.6117 36.0171 12.6244L36.2072 12.9844C36.2141 12.9993 36.2167 13.0158 36.2148 13.032C36.2129 13.0483 36.2065 13.0637 36.1964 13.0767C36.1862 13.0897 36.1727 13.0996 36.1572 13.1056C36.1417 13.1115 36.1249 13.1132 36.1085 13.1104L35.7027 13.0384C35.6882 13.0362 35.6734 13.0374 35.6595 13.0417C35.6455 13.0461 35.6328 13.0536 35.6223 13.0636L35.3298 13.3516C35.3178 13.363 35.3029 13.3709 35.2866 13.3745C35.2704 13.3782 35.2534 13.3773 35.2376 13.3721C35.2218 13.3669 35.2077 13.3576 35.1969 13.3451C35.1861 13.3326 35.179 13.3174 35.1763 13.3012L35.1251 12.9016C35.1231 12.8874 35.1177 12.8738 35.1095 12.8619C35.1012 12.8501 35.0903 12.8402 35.0776 12.8332L34.712 12.6496C34.6975 12.6419 34.6854 12.6305 34.677 12.6165C34.6685 12.6026 34.6641 12.5866 34.6641 12.5704C34.6641 12.5542 34.6685 12.5382 34.677 12.5243C34.6854 12.5103 34.6975 12.4989 34.712 12.4912L35.0776 12.3148C35.0912 12.3084 35.103 12.2988 35.1119 12.2869C35.1208 12.275 35.1266 12.261 35.1288 12.2464L35.1909 11.8432C35.1937 11.8265 35.2011 11.811 35.2124 11.7983C35.2236 11.7856 35.2383 11.7763 35.2547 11.7714C35.2711 11.7666 35.2885 11.7663 35.305 11.7707C35.3215 11.7751 35.3365 11.784 35.3481 11.7964Z" fill="#FFD124"/>
<path d="M37.9759 86.3579H81.2036C82.8668 86.3579 82.8668 83.8145 81.2036 83.8145H37.9759C36.3127 83.8145 36.3075 86.3579 37.9759 86.3579Z" fill="#022151"/>
<path d="M39.4702 37.7383H36.3711V233.067H39.4702V37.7383Z" fill="#022151"/>
<path d="M39.3101 233.065C39.2378 233.065 39.1758 189.363 39.1758 135.467C39.1758 81.5704 39.2378 37.8633 39.3101 37.8633C39.3824 37.8633 39.4444 81.5552 39.4444 135.467C39.4444 189.378 39.3669 233.065 39.3101 233.065Z" fill="#263238"/>
<path d="M37.9759 66.5962H81.2036C82.8668 66.5962 82.8668 64.0527 81.2036 64.0527H37.9759C36.3127 64.0527 36.3075 66.5962 37.9759 66.5962Z" fill="#022151"/>
<path d="M82.7241 38.1367H79.625V233.064H82.7241V38.1367Z" fill="#022151"/>
<path d="M79.7007 208.505C79.6232 208.505 79.5664 170.44 79.5664 123.492C79.5664 76.5446 79.6232 38.4688 79.7007 38.4688C79.7782 38.4688 79.835 76.5294 79.835 123.492C79.835 170.455 79.773 208.505 79.7007 208.505Z" fill="#263238"/>
<path d="M37.9212 216.549H81.1748C82.8328 216.549 82.838 214.006 81.1748 214.006H37.9212C36.2632 214.006 36.258 216.549 37.9212 216.549Z" fill="#022151"/>
<path d="M30.0196 234.167H89.0732C89.0732 233.389 89.0732 233.389 89.0732 232.611H30.0196C30.0199 233.491 30.0194 233 30.0196 234.167Z" fill="#0443A2"/>
<path d="M38.8509 177.122H79.4857C81.1489 177.122 81.1489 174.578 79.4857 174.578H38.8509C37.1877 174.578 37.1825 177.122 38.8509 177.122Z" fill="#022151"/>
<path d="M37.9212 149.563H81.1748C82.8328 149.563 82.838 147.02 81.1748 147.02H37.9212C36.2632 147.02 36.258 149.563 37.9212 149.563Z" fill="#022151"/>
<path d="M37.9212 127.829H81.1748C82.8328 127.829 82.838 125.285 81.1748 125.285H37.9212C36.2632 125.285 36.258 127.829 37.9212 127.829Z" fill="#022151"/>
<path d="M37.9212 106.606H81.1748C82.8328 106.606 82.838 104.062 81.1748 104.062H37.9212C36.2632 104.062 36.258 106.606 37.9212 106.606Z" fill="#022151"/>
<path d="M38.3333 197.44H79.4433C81.1065 197.44 81.1065 194.896 79.4433 194.896H38.3333C36.6701 194.896 36.6701 197.44 38.3333 197.44Z" fill="#022151"/>
<path d="M73.524 69.2524L70.9001 63.499C70.9001 63.499 71.0395 60.4469 70.5953 60.162C69.9858 59.8059 69.836 60.101 69.6656 61.1285L69.4228 62.6546C69.4228 62.6546 68.4208 60.5028 67.4859 60.4164C66.8505 60.3553 66.6697 61.4337 66.6697 61.4337C66.6697 61.4337 65.6109 60.4621 64.8619 60.6961C64.113 60.9301 64.3454 61.9374 64.3454 61.9374C64.239 61.8662 64.1175 61.8199 63.9902 61.8018C63.8629 61.7838 63.7331 61.7946 63.6106 61.8333C63.4882 61.872 63.3763 61.9377 63.2834 62.0254C63.1906 62.113 63.1192 62.2204 63.0748 62.3392C62.6357 63.3922 64.5623 64.9895 64.8568 65.6966C65.4714 67.1718 64.1646 67.2227 64.1646 67.2227C64.1646 67.2227 60.8124 66.8005 60.9828 67.65C61.1533 68.4995 62.2742 68.4944 63.1367 68.5809C63.8495 68.6521 66.5458 69.3134 67.4187 69.5271C67.6019 69.574 67.7763 69.6496 67.9352 69.7509L69.9393 71.7857L73.524 69.2524Z" fill="#FFBE9D"/>
<path d="M72.1646 201.391L72.0509 216.163L63.957 216.26L64.0397 201.462L72.1646 201.391Z" fill="#292929"/>
<path d="M68.0564 215.655C67.9841 215.655 67.9996 212.419 68.0564 208.431C68.1132 204.443 68.263 201.213 68.3302 201.213C68.3973 201.213 68.387 204.448 68.3043 208.436C68.2217 212.425 68.1236 215.655 68.0564 215.655Z" fill="#263238"/>
<path d="M63.9844 211.535C64.0343 211.416 64.1061 211.308 64.1962 211.214C64.4122 210.94 64.6562 210.687 64.9244 210.462C65.3193 210.117 65.763 209.831 66.2416 209.612C67.0761 209.224 68.0148 209.11 68.9202 209.285C69.8256 209.461 70.6499 209.918 71.2725 210.589C71.5093 210.851 71.706 211.146 71.8562 211.464C71.9196 211.576 71.9616 211.698 71.9801 211.825C71.7323 211.43 71.4525 211.056 71.1434 210.706C70.3456 209.911 69.2617 209.457 68.1269 209.444C66.9905 209.466 65.8963 209.872 65.0277 210.594C64.3511 211.128 64.0205 211.56 63.9844 211.535Z" fill="#263238"/>
<path opacity="0.3" d="M63.9634 206.807L63.9531 208.434H72.1658V206.807H63.9634Z" fill="black"/>
<path d="M63.957 216.258L63.9674 214.717L72.0613 214.722L72.0509 216.161L63.957 216.258Z" fill="#E0E0E0"/>
<path d="M55.1882 163.061L55.0797 177.233L47.3164 177.329L47.3939 163.127L55.1882 163.061Z" fill="#292929"/>
<path d="M51.2473 176.738C51.1853 176.738 51.1956 173.635 51.2731 169.809C51.3506 165.984 51.4694 162.881 51.5314 162.881C51.5934 162.881 51.5882 165.984 51.5056 169.814C51.4229 173.645 51.3144 176.738 51.2473 176.738Z" fill="#263238"/>
<path d="M47.3398 172.787C47.3398 172.787 47.3967 172.67 47.5413 172.481C47.7504 172.218 47.9858 171.976 48.2438 171.759C48.6217 171.429 49.0462 171.155 49.5041 170.945C50.3051 170.571 51.207 170.461 52.0766 170.63C52.9463 170.8 53.7375 171.24 54.3335 171.886C54.5593 172.137 54.7472 172.418 54.8914 172.721C54.9547 172.828 54.9951 172.948 55.0102 173.072C54.7773 172.69 54.5093 172.331 54.2096 171.998C53.4437 171.234 52.4022 170.799 51.3119 170.788C50.2247 170.807 49.1776 171.195 48.3471 171.886C47.6911 172.4 47.3708 172.817 47.3398 172.787Z" fill="#263238"/>
<path opacity="0.3" d="M47.3138 168.254L47.3086 169.816H55.1856V168.254H47.3138Z" fill="black"/>
<path d="M47.3164 177.33L47.3216 175.85H55.0901L55.0797 177.233L47.3164 177.33Z" fill="#E0E0E0"/>
<path d="M56.6695 68.0421L56.8761 67.9912C57.2042 67.4479 57.6645 66.9936 58.2155 66.6695C58.7665 66.3453 59.3908 66.1614 60.0321 66.1344C61.326 66.1017 62.5826 66.5628 63.5393 67.4214C64.2056 68.0064 64.7324 68.7288 65.3987 69.3036C65.7133 69.6155 66.0959 69.8527 66.5174 69.9972C66.9389 70.1418 67.3883 70.1899 67.8316 70.1379C67.9349 70.4584 67.315 70.6466 67.3667 70.9772C67.3869 71.0558 67.4308 71.1265 67.4926 71.18C67.5543 71.2336 67.6311 71.2675 67.7128 71.2774C67.95 71.2951 68.1883 71.2951 68.4256 71.2774C68.5446 71.2681 68.6636 71.2961 68.7656 71.3573C68.8676 71.4185 68.9474 71.5098 68.9937 71.6182C69.0144 71.7325 69.0037 71.8502 68.9627 71.959C68.7373 72.9717 68.2518 73.9105 67.5526 74.6856C67.1999 75.0684 66.7579 75.361 66.2648 75.5383C65.7717 75.7155 65.2423 75.772 64.7221 75.703C63.9141 75.4814 63.1731 75.0694 62.563 74.5025L58.8441 71.5673C58.2538 71.1401 57.7225 70.6391 57.2635 70.0768C56.801 69.5022 56.5876 68.7709 56.6695 68.0421Z" fill="#263238"/>
<path d="M57.445 68.2452C56.9452 67.8313 56.3518 67.5417 55.7146 67.4008C55.3966 67.3336 55.0681 67.3301 54.7487 67.3904C54.4293 67.4507 54.1254 67.5736 53.8551 67.7518C53.4012 68.1478 53.0171 68.6154 52.7188 69.1354C52.5682 69.3947 52.3663 69.6216 52.1249 69.8025C51.8836 69.9834 51.6077 70.1146 51.3138 70.1884C51.2085 70.1887 51.1058 70.2206 51.0194 70.28C50.88 70.4072 50.9781 70.6564 51.1486 70.7327C51.328 70.7913 51.5218 70.7913 51.7012 70.7327C51.4032 71.0762 50.9916 71.305 50.5391 71.3788C50.5973 71.5918 50.7383 71.7736 50.9317 71.885C51.125 71.9964 51.355 72.0283 51.5721 71.974C51.3717 72.6596 51.2572 73.3669 51.2312 74.08C51.2094 74.7999 51.4576 75.5026 51.9285 76.0537C52.445 76.6285 53.3489 76.949 53.5865 77.7019" fill="#263238"/>
<path d="M62.6537 93.384L52.9844 93.2619L54.0639 85.1228C54.0639 85.1228 53.4028 84.9803 53.3614 81.45C53.3201 77.9196 53.1497 71.9119 53.1497 71.9119C55.1872 71.0516 57.4211 70.7427 59.6204 71.0172C61.8197 71.2918 63.9047 72.1398 65.6598 73.4736L66.1763 73.8755L62.6537 93.384Z" fill="#FFBE9D"/>
<path d="M65.073 78.2337C65.135 78.2032 67.5317 77.5114 67.4542 79.9277C67.3767 82.344 64.9336 81.7691 64.9336 81.6979C64.9336 81.6267 65.073 78.2337 65.073 78.2337Z" fill="#FFBE9D"/>
<path d="M53.5689 77.7272C53.5069 77.7018 51.322 77.1218 51.4046 79.5381C51.4873 81.9545 53.9253 81.3796 53.9253 81.3084C53.9253 81.2372 53.5689 77.7272 53.5689 77.7272Z" fill="#FFBE9D"/>
<path d="M65.8644 77.9659C65.5029 80.0007 65.5752 81.0486 65.2343 82.4017C64.7178 84.5433 63.6227 86.1813 61.6651 87.2496C59.7075 88.3178 57.0681 88.2975 55.3946 86.8426C54.2149 85.945 53.4382 84.6288 53.2303 83.1749C53.0547 81.6488 52.6002 78.8001 52.5898 77.2741C52.5898 74.5169 52.6673 72.0447 52.6673 72.0447L60.6527 70.6152L65.1981 73.2808L65.8644 77.9659Z" fill="#263238"/>
<path d="M57.625 88.4706C58.0786 88.6028 58.5544 88.6443 59.0246 88.5928C59.4947 88.5412 59.9496 88.3976 60.3626 88.1704C60.3626 88.1094 59.7531 88.2925 58.9989 88.3739C58.2448 88.4553 57.6353 88.4044 57.625 88.4706Z" fill="#263238"/>
<path d="M65.4815 81.4023C65.7139 79.3268 65.8637 76.9563 66.1943 74.7892C66.4064 73.8604 66.5223 72.9128 66.5403 71.9609C66.468 71.1317 66.2356 71.3861 65.8637 70.6332C65.3988 69.6972 63.6272 69.0715 62.589 68.868C61.5507 68.6646 61.4216 67.7743 60.6262 68.4611C60.3376 68.0225 59.9188 67.6821 59.4268 67.4862C58.9348 67.2903 58.3935 67.2484 57.8765 67.3663C57.3595 67.4841 56.8919 67.756 56.5373 68.1448C56.1828 68.5337 55.9584 69.0206 55.8948 69.5395C55.6075 69.2725 55.2391 69.1059 54.8463 69.0652C54.4534 69.0245 54.0579 69.112 53.7204 69.3143C53.383 69.5166 53.1224 69.8224 52.9786 70.1848C52.8349 70.5471 52.816 70.946 52.9248 71.3199C52.6386 71.3716 52.3698 71.492 52.1422 71.6706C51.9146 71.8492 51.7354 72.0804 51.6204 72.3437C51.5054 72.6069 51.4582 72.8941 51.483 73.1796C51.5078 73.4652 51.6039 73.7403 51.7627 73.9804C52.1346 74.54 52.7957 74.8503 53.2089 75.3844C53.4299 75.6982 53.5568 76.0668 53.575 76.4483C53.5933 76.8297 53.5022 77.2084 53.3122 77.5413" fill="#263238"/>
<path d="M55.1873 80.9707C55.073 81.6895 55.1697 82.4255 55.4662 83.092C55.6923 83.7848 56.1132 84.4004 56.68 84.8673C56.2883 84.2769 55.943 83.6579 55.647 83.0157C55.4408 82.3466 55.2872 81.6629 55.1873 80.9707Z" fill="#022151"/>
<path d="M54.111 79.2129C53.8575 79.8188 53.8033 80.4877 53.956 81.1256C54.0399 81.7759 54.331 82.3832 54.7876 82.8602C54.5306 82.2877 54.3266 81.6935 54.1781 81.0849C54.1033 80.4638 54.0809 79.8376 54.111 79.2129Z" fill="#022151"/>
<path d="M64.1594 70.8578C63.5809 69.8888 62.7109 69.1209 61.6698 68.6602C61.1466 68.4403 60.5734 68.3611 60.0089 68.4308C59.4445 68.5006 58.9089 68.7166 58.457 69.057" fill="#263238"/>
<path d="M63.9735 76.2047C63.9322 76.2047 63.9735 75.9249 64.051 75.4926C64.1664 74.9417 64.2287 74.3813 64.2369 73.8189C64.2384 73.2645 64.113 72.7168 63.8702 72.2166C63.6791 71.8401 63.488 71.6417 63.5189 71.6112C63.5499 71.5807 63.7927 71.7333 64.0355 72.1199C64.351 72.6318 64.5155 73.2201 64.5107 73.8189C64.5048 74.4021 64.4126 74.9814 64.2369 75.5383C64.1181 75.9656 64.0096 76.2149 63.9735 76.2047Z" fill="#022151"/>
<path d="M62.3203 77.0046C62.3739 76.6204 62.4817 76.2454 62.6406 75.8906C62.7177 75.5094 62.8499 75.1411 63.0331 74.7969C63.1224 75.1931 63.0789 75.6072 62.9091 75.977C62.7077 76.6027 62.3875 77.0351 62.3203 77.0046Z" fill="#022151"/>
<path d="M54.6498 76.3824C54.3942 76.1479 54.2054 75.8515 54.1023 75.5227C53.779 74.7465 53.6946 73.8939 53.8596 73.0708C54.0306 72.2499 54.4397 71.4954 55.0372 70.8987C55.264 70.6342 55.5556 70.4311 55.8843 70.3086C55.9101 70.3493 55.5847 70.568 55.187 71.0309C54.6582 71.6262 54.2969 72.3476 54.1392 73.1232C53.9815 73.8988 54.0329 74.7016 54.2883 75.4515C54.4794 76.0162 54.6911 76.3621 54.6498 76.3824Z" fill="#022151"/>
<path d="M63.3828 67.3995C63.107 67.3228 62.8416 67.2135 62.5925 67.074C61.9926 66.7814 61.335 66.6216 60.6659 66.606C60.3392 66.5993 60.0149 66.6606 59.714 66.786C59.4132 66.9113 59.1426 67.0979 58.92 67.3334C58.7522 67.5504 58.602 67.78 58.4706 68.0201C58.4619 67.872 58.4835 67.7236 58.534 67.5838C58.5846 67.444 58.6632 67.3156 58.7651 67.2062C58.9627 66.9484 59.217 66.738 59.5088 66.5907C59.8672 66.4168 60.2612 66.3263 60.6607 66.3262C61.3746 66.3381 62.0729 66.5346 62.6855 66.8959C62.9489 67.0175 63.1858 67.1886 63.3828 67.3995Z" fill="#022151"/>
<path d="M52.4608 69.6408C52.4298 69.6408 52.4866 69.361 52.7449 68.9998C53.0886 68.5346 53.5793 68.1948 54.1401 68.0337C54.701 67.8726 55.3002 67.8993 55.844 68.1096C56.2521 68.2775 56.4483 68.4758 56.4277 68.5013C56.2065 68.4474 55.9891 68.3794 55.7769 68.2978C55.2646 68.1507 54.7203 68.1506 54.208 68.2975C53.6956 68.4443 53.2364 68.7321 52.8843 69.127C52.6209 69.4068 52.5021 69.6611 52.4608 69.6408Z" fill="#022151"/>
<path d="M55.0938 78.5136C55.0938 78.478 55.4863 78.3762 56.1268 78.0914C56.9952 77.705 57.7901 77.1751 58.477 76.5246L58.9367 76.082L58.6836 76.667C58.5267 77.0369 58.4107 77.4224 58.3375 77.8167C58.3013 78.0151 58.2704 78.2643 58.3375 78.2999C58.4047 78.3356 58.6113 78.2491 58.7972 78.1219C59.415 77.7299 59.9688 77.248 60.4398 76.6925L60.8633 76.1838L60.6722 76.8044L60.1298 78.5339L59.9439 78.4271C60.5364 77.8418 61.0565 77.1895 61.4935 76.4839C61.4386 76.7061 61.346 76.9177 61.2197 77.1096C60.913 77.6514 60.5305 78.148 60.0834 78.5848L59.7838 78.8799L59.9026 78.4729C60.0524 77.9642 60.2176 77.3589 60.4191 76.7332L60.6515 76.8552C60.1695 77.4482 59.5961 77.9631 58.9522 78.3813C58.8504 78.4461 58.7452 78.5056 58.6371 78.5594C58.5666 78.6001 58.4864 78.6215 58.4047 78.6215C58.3229 78.6215 58.2427 78.6001 58.1722 78.5594C58.1137 78.5077 58.069 78.4426 58.0419 78.3698C58.0149 78.2971 58.0065 78.219 58.0173 78.1422C58.0173 78.0151 58.0483 77.9184 58.0638 77.8065C58.1435 77.3931 58.2717 76.9902 58.446 76.606L58.6578 76.7484C57.9385 77.4118 57.0945 77.9302 56.1733 78.2745C55.8297 78.4137 55.4647 78.4945 55.0938 78.5136Z" fill="#022151"/>
<path d="M59.7704 69.2009C59.6868 69.0579 59.5753 68.9326 59.4423 68.8322C59.3094 68.7318 59.1575 68.6583 58.9956 68.6159C58.6693 68.5421 58.3302 68.5421 58.0039 68.6159C57.1966 68.7666 56.4669 69.1871 55.9378 69.8062C55.819 69.9436 55.7105 70.1623 55.8397 70.3149C55.917 70.3765 56.014 70.409 56.1134 70.4065C57.3195 70.5046 58.5332 70.4619 59.7291 70.2793" fill="#263238"/>
<path d="M43.9805 140.136C44.1406 140.421 46.0982 146.871 50.4163 147.965C54.7345 149.059 68.1899 148.331 68.5566 147.965C68.9233 147.599 72.8799 145.452 74.791 140.996C76.7021 136.54 62.9781 128.762 62.9781 128.762L43.9805 140.136Z" fill="#263238"/>
<path d="M77.0694 141.885L77.1882 145.481C77.1882 146.036 77.1211 148.823 77.0591 149.373L75.3804 171.71C75.2151 171.643 74.2389 185.444 74.1563 190.287C74.0736 194.947 73.6759 207.623 73.6759 207.623H62.6327L61.8889 186.635L61.424 163.916L60.7422 148.02L77.0694 141.885Z" fill="#263238"/>
<path d="M43.9805 136.582C43.9805 136.582 44.2232 136.938 44.1664 141.883C44.1251 145.662 46.4546 168.961 46.4546 168.961L55.8811 168.681L57.7664 145.347L43.9805 136.582Z" fill="#263238"/>
<path d="M61.6121 148.299C61.3522 148.357 61.0879 148.393 60.8219 148.406C60.3053 148.462 59.5719 148.528 58.6525 148.584C56.2531 148.774 53.8387 148.635 51.478 148.172C49.0757 147.716 46.9169 146.432 45.3882 144.55C44.9453 143.975 44.5967 143.335 44.3551 142.653C44.2899 142.468 44.2364 142.28 44.195 142.088C44.164 141.956 44.1537 141.885 44.164 141.885C44.4787 142.8 44.9427 143.66 45.538 144.428C47.0736 146.23 49.1904 147.458 51.5348 147.908C53.8736 148.365 56.2608 148.536 58.6421 148.416L60.8167 148.32C61.0806 148.289 61.3469 148.282 61.6121 148.299Z" fill="#022151"/>
<path d="M72.7914 147.85C72.4025 148.001 71.9968 148.107 71.5827 148.165C69.6052 148.538 67.5939 148.708 65.5808 148.674C65.1632 148.686 64.7456 148.652 64.3359 148.572C64.747 148.503 65.1639 148.474 65.5808 148.486C66.3452 148.455 67.4041 148.404 68.5714 148.302C69.7388 148.201 70.7925 148.073 71.5517 147.967C71.96 147.887 72.3753 147.848 72.7914 147.85Z" fill="#022151"/>
<path d="M72.469 151.94C71.933 151.939 71.3984 151.886 70.8729 151.782C69.8967 151.64 68.5538 151.391 67.0868 151.035C65.6199 150.678 64.3131 150.282 63.3782 149.961C62.8645 149.811 62.3664 149.614 61.8906 149.371C62.4166 149.471 62.9345 149.609 63.4402 149.783C64.3854 150.058 65.6974 150.424 67.154 150.801C68.6106 151.177 69.9484 151.426 70.9143 151.62C71.44 151.687 71.9597 151.795 72.469 151.94Z" fill="#022151"/>
<path d="M69.8402 73.687C69.4347 72.8688 68.9793 72.0755 68.4766 71.3114C68.4766 71.3114 71.524 68.1321 73.3577 68.2287L75.0984 70.5992L69.8402 73.687Z" fill="white"/>
<path d="M84.2711 83.6843C83.6048 81.6495 75.2527 69.7715 75.2527 69.7715C72.1535 69.7715 69.168 73.4494 69.168 73.4494L75.1029 85.7598L68.8633 91.4165L75.9086 99.6116C75.9086 99.6116 80.3559 94.1329 81.6885 92.149C84.6585 87.7183 84.9323 85.7293 84.2711 83.6843Z" fill="#FFD124"/>
<path opacity="0.3" d="M43.7109 139.482C43.7109 139.482 44.4082 144.06 48.2925 145.408C52.1767 146.756 61.1487 145.408 61.1487 145.408L62.1818 142.076L63.2974 146.008L77.1764 144.258L76.9801 141.135L62.2696 135.117L43.7109 139.482Z" fill="black"/>
<path d="M73.9711 124.247C73.6767 122.63 73.2996 121.811 73.2273 120.834C73.0052 117.919 73.0207 110.93 73.2273 110.034C73.4907 108.859 75.9029 99.6111 75.9029 99.6111L75.0816 92.4487L64.8338 90.77L64.1158 89.1421C64.1158 89.1421 57.2771 87.3973 52.9538 89.6864L52.2049 91.4262L49.5344 92.0875C49.1316 92.2452 47.0396 92.82 45.4539 93.2422C44.5797 93.4712 43.7669 93.8858 43.0727 94.457C42.3785 95.0282 41.8196 95.7422 41.4354 96.5487C41.1626 97.1338 40.9229 97.7333 40.7174 98.3444C40.0098 100.41 35.9396 111.825 35.7588 115.304C35.547 119.374 39.204 119.511 41.4405 118.992C43.6771 118.474 46.1254 113.549 46.1254 113.549L47.5303 123.184C47.3248 124.499 46.998 125.793 46.5541 127.05C45.1905 130.713 43.2277 137.799 43.2277 137.799C43.9922 140.159 46.771 143.903 48.2276 144.412C49.6842 144.921 59.4207 144.509 59.4207 144.509L62.2925 137.005L64.9423 144.895L78.7592 142.774L73.9711 124.247Z" fill="#FFD124"/>
<path d="M62.2788 121.471C62.315 121.532 60.3263 122.829 57.8367 124.36C56.354 125.325 54.8232 126.216 53.25 127.031C54.6803 125.993 56.1629 125.027 57.6921 124.136C59.174 123.172 60.7049 122.282 62.2788 121.471Z" fill="#263238"/>
<path d="M58.6432 125.426C58.6793 125.487 56.5771 126.871 53.917 128.519C51.2569 130.167 49.0927 131.449 49.0514 131.388C49.0101 131.327 51.1175 129.943 53.7775 128.295C56.4376 126.647 58.6019 125.36 58.6432 125.426Z" fill="#263238"/>
<path d="M69.5673 114.642C69.1859 115.587 68.6229 116.45 67.9093 117.185C67.2632 117.974 66.4665 118.631 65.5643 119.118C65.5126 119.057 66.5973 118.248 67.7078 117.012C68.8184 115.776 69.495 114.601 69.5673 114.642Z" fill="#263238"/>
<path d="M69.8401 115.931C69.7333 116.289 69.5769 116.631 69.3753 116.948C68.9392 117.738 68.4491 118.497 67.9084 119.222C67.3651 119.94 66.7714 120.62 66.1315 121.257C65.8862 121.543 65.599 121.791 65.2793 121.994C65.2224 121.938 66.4363 120.728 67.6914 119.044C68.9466 117.36 69.773 115.89 69.8401 115.931Z" fill="#263238"/>
<path d="M70.168 128.413C70.2478 127.952 70.367 127.497 70.5244 127.055C70.7671 126.226 71.0874 125.076 71.3921 123.789C71.6969 122.502 71.9086 121.337 72.0739 120.483C72.1332 120.019 72.2281 119.559 72.358 119.109C72.3789 119.58 72.346 120.05 72.2599 120.513C72.1163 121.63 71.9128 122.739 71.6504 123.835C71.3923 124.937 71.0768 126.026 70.7052 127.096C70.5732 127.552 70.3932 127.994 70.168 128.413Z" fill="#263238"/>
<path d="M75.2541 98.4871C75.1818 98.5278 74.2624 96.9611 72.8729 95.2162C71.4835 93.4714 70.1715 92.2048 70.2283 92.1641C70.569 92.3775 70.8784 92.636 71.1478 92.9322C71.8421 93.6 72.4893 94.3139 73.0847 95.0687C73.6814 95.8225 74.2267 96.6144 74.7169 97.4392C74.9422 97.7637 75.1228 98.116 75.2541 98.4871Z" fill="#263238"/>
<path d="M77.4707 94.8648C76.8805 94.042 76.1863 93.2967 75.4047 92.6469C74.5747 92.0639 73.672 91.5886 72.7188 91.2327C73.029 91.228 73.3368 91.2869 73.6227 91.4056C75.0413 91.8767 76.2546 92.8097 77.0627 94.0509C77.2526 94.2925 77.3914 94.5693 77.4707 94.8648Z" fill="#263238"/>
<path d="M47.5175 123.162C47.4452 123.162 46.6136 117.907 45.6684 111.406C44.7231 104.905 44.0103 99.6196 44.0878 99.6094C44.1653 99.5992 44.9865 104.864 45.9369 111.365C46.8873 117.866 47.5898 123.147 47.5175 123.162Z" fill="#263238"/>
<path d="M64.9801 90.7699C64.3512 90.7847 63.7219 90.7678 63.0948 90.719C61.9275 90.6732 60.3211 90.6529 58.5442 90.719C56.7674 90.7851 55.1713 90.9835 54.0195 91.1412C53.3993 91.2538 52.7734 91.3336 52.1445 91.3803C52.3021 91.3135 52.4666 91.264 52.6352 91.2328C52.9503 91.1565 53.4152 91.0598 53.9885 90.9581C55.491 90.6927 57.0093 90.5228 58.5339 90.4494C60.0573 90.3743 61.5841 90.393 63.1051 90.5054C63.6888 90.5511 64.1382 90.602 64.4842 90.6478C64.6541 90.6675 64.8208 90.7085 64.9801 90.7699Z" fill="#263238"/>
<g opacity="0.3">
<path d="M46.1638 113.894C45.6162 109.825 44.8621 105.755 44.3146 101.686C42.8219 105.689 43.6431 110.415 46.1638 113.894Z" fill="black"/>
</g>
<g opacity="0.3">
<path d="M75.0039 85.6006C75.9734 84.6931 77.2106 84.1124 78.5369 83.9423C78.8475 83.8754 79.1689 83.8734 79.4803 83.9365C79.7917 83.9996 80.0862 84.1264 80.3447 84.3085C80.4016 84.3493 80.4478 84.4029 80.4792 84.4649C80.5107 84.5268 80.5266 84.5953 80.5255 84.6646C80.5102 84.7319 80.4742 84.7929 80.4225 84.8393C80.3707 84.8857 80.3057 84.9153 80.2363 84.9241C80.0983 84.9522 79.9559 84.9522 79.8179 84.9241C78.2322 84.6443 76.5122 85.1021 75.0091 85.6718" fill="black"/>
</g>
<g opacity="0.3">
<path d="M52.7271 91.4659C54.0584 91.7882 55.4398 91.8573 56.7973 91.6693C59.2078 91.4625 61.6079 91.1539 63.9977 90.7435C60.1538 90.2312 56.246 90.447 52.4844 91.3794" fill="black"/>
</g>
<g opacity="0.3">
<path d="M52.2773 129.571C57.7436 128.051 62.652 125.018 66.4197 120.832C62.0913 123.523 56.487 126.611 52.2773 129.571Z" fill="black"/>
</g>
<path d="M78.3534 84.9968C77.7369 84.9711 77.1194 85.019 76.5146 85.1392C75.9328 85.3458 75.3794 85.6226 74.8669 85.9633C74.841 85.9633 74.9547 85.7547 75.2233 85.5258C75.5754 85.2273 75.9897 85.0085 76.4371 84.8849C76.8856 84.761 77.3559 84.7332 77.8162 84.8035C78.1674 84.8645 78.3637 84.9663 78.3534 84.9968Z" fill="#263238"/>
<path d="M27.74 79.1134L22.9828 79.3271C21.4465 81.131 19.4283 82.4754 17.1565 83.2084C15.5561 83.721 13.8676 83.9118 12.1909 83.7698C10.5143 83.6277 8.88362 83.1556 7.39568 82.3814C5.90773 81.6071 4.59275 80.5466 3.52868 79.2626C2.46462 77.9786 1.67312 76.4973 1.20111 74.9065C0.194108 71.6639 0.506818 68.1627 2.07314 65.143C3.63947 62.1233 6.33666 59.8218 9.59459 58.7249C11.1949 58.2118 12.8836 58.0206 14.5604 58.1628C16.2372 58.3049 17.8679 58.7774 19.3557 59.5522C20.8435 60.3271 22.158 61.3885 23.2212 62.6733C24.2843 63.9582 25.0745 65.4404 25.5448 67.0319C26.3897 69.7545 26.3118 72.674 25.3227 75.3491L27.74 79.1134Z" fill="#033B90"/>
<path d="M27.7405 79.1121L27.57 78.8629L27.0948 78.1354L25.2767 75.358H25.3696C25.3643 75.3635 25.3579 75.3679 25.3508 75.3709C25.3437 75.3739 25.336 75.3755 25.3283 75.3755C25.3206 75.3755 25.3129 75.3739 25.3058 75.3709C25.2987 75.3679 25.2923 75.3635 25.287 75.358C25.2794 75.3476 25.2753 75.3351 25.2753 75.3223C25.2753 75.3096 25.2794 75.2971 25.287 75.2867C26.008 73.2874 26.2311 71.1469 25.9378 69.045C25.744 67.6943 25.3288 66.3834 24.7085 65.1637C23.265 62.2334 20.7051 59.9829 17.5856 58.9017C15.8379 58.3018 13.9759 58.0949 12.1363 58.2963C10.1819 58.5259 8.30696 59.1941 6.65604 60.2497C4.93537 61.3545 3.51644 62.8585 2.52387 64.6296C1.505 66.3684 0.922403 68.3217 0.824514 70.327C0.716224 72.2366 1.03355 74.1465 1.75425 75.9226C2.41117 77.5405 3.40718 79.0038 4.67724 80.2169C5.94731 81.4301 7.46288 82.3658 9.12501 82.963C11.9041 83.9515 14.9504 83.9298 17.7148 82.9019C19.7437 82.1434 21.544 80.8902 22.9471 79.2596C22.9623 79.255 22.9785 79.255 22.9936 79.2596L26.5111 79.1426L27.4305 79.1121H27.7508H27.4564L26.5576 79.1681L22.9988 79.3665H23.0401C21.6378 81.0305 19.8256 82.3125 17.7768 83.0901C14.9745 84.1573 11.8758 84.1953 9.04754 83.197C7.3511 82.5953 5.80309 81.6469 4.50517 80.4143C3.20725 79.1816 2.18878 77.6925 1.51665 76.0447C0.773939 74.2314 0.445923 72.2792 0.55592 70.327C0.618658 69.3179 0.791836 68.3184 1.07244 67.346C1.68525 65.359 2.74449 63.5334 4.17157 62.0047C4.88501 61.2646 5.68222 60.6075 6.54758 60.0462C8.22448 58.9656 10.1315 58.2798 12.1208 58.042C13.9279 57.8508 15.7556 58.0454 17.4794 58.6125C19.2032 59.1795 20.7827 60.1058 22.1104 61.3281C23.2674 62.3965 24.2147 63.6657 24.9048 65.0721C25.5237 66.3149 25.9354 67.6478 26.1237 69.0196C26.4138 71.1564 26.1691 73.3305 25.4109 75.3529L25.3076 75.302C25.313 75.2965 25.3194 75.292 25.3265 75.289C25.3336 75.286 25.3412 75.2844 25.349 75.2844C25.3567 75.2844 25.3644 75.286 25.3715 75.289C25.3786 75.292 25.385 75.2965 25.3903 75.302C26.1651 76.5432 26.7591 77.4996 27.1723 78.1558L27.6165 78.8781C27.6991 79.0358 27.7405 79.1121 27.7405 79.1121Z" fill="#033B90"/>
<path d="M9.34766 68.9078L13.1389 64.1719L16.9302 68.8468L9.34766 68.9078Z" fill="#BF9D1B"/>
<path d="M15.0093 77.5668L11.5538 77.5922L11.4453 68.1407L14.8957 68.1152L15.0093 77.5668Z" fill="#BF9D1B"/>
</svg>
