<svg width="60" height="60" viewBox="0 0 60 60" fill="none" xmlns="http://www.w3.org/2000/svg">
<path fill-rule="evenodd" clip-rule="evenodd" d="M30 15C21.705 15 15 21.705 15 30C15 38.295 21.705 45 30 45C38.295 45 45 38.295 45 30C45 21.705 38.295 15 30 15ZM30 42C23.385 42 18 36.615 18 30C18 23.385 23.385 18 30 18C36.615 18 42 23.385 42 30C42 36.615 36.615 42 30 42ZM30 27.885L35.385 22.5L37.5 24.615L32.115 30L37.5 35.385L35.385 37.5L30 32.115L24.615 37.5L22.5 35.385L27.885 30L22.5 24.615L24.615 22.5L30 27.885Z" fill="white"/>
</svg>
