<svg width="344" height="222" viewBox="0 0 344 222" fill="none" xmlns="http://www.w3.org/2000/svg">
<path d="M222.305 219.531L218.539 225.22L226.132 225.785L222.305 219.531Z" fill="#044AB4" fill-opacity="0.24"/>
<path d="M206.047 218.264L202.509 223.583L209.619 224.1L206.047 218.264Z" fill="#044AB4" fill-opacity="0.24"/>
<path d="M217.509 216.671L210.453 216.129L214.009 221.94L217.509 216.671Z" fill="#044AB4" fill-opacity="0.24"/>
<path d="M233.995 218.098L226.516 217.548L230.295 223.724L233.995 218.098Z" fill="#044AB4" fill-opacity="0.24"/>
<path d="M238.609 220.941L234.717 226.82L242.564 227.404L238.609 220.941Z" fill="#044AB4" fill-opacity="0.24"/>
<path d="M189.77 217.008L186.498 221.908L193.07 222.402L189.77 217.008Z" fill="#044AB4" fill-opacity="0.24"/>
<path d="M200.927 215.254L194.468 214.776L197.737 220.118L200.927 215.254Z" fill="#044AB4" fill-opacity="0.24"/>
<path d="M213.781 205.977L210.675 210.636L216.923 211.11L213.781 205.977Z" fill="#044AB4" fill-opacity="0.24"/>
<path d="M224.73 204.153L218.71 203.71L221.755 208.687L224.73 204.153Z" fill="#044AB4" fill-opacity="0.24"/>
<path d="M230.066 207.234L226.694 212.313L233.479 212.811L230.066 207.234Z" fill="#044AB4" fill-opacity="0.24"/>
<path d="M250.498 219.553L242.563 218.942L246.566 225.483L250.498 219.553Z" fill="#044AB4" fill-opacity="0.24"/>
<path d="M173.484 215.92L170.66 220.186L176.355 220.61L173.484 215.92Z" fill="#044AB4" fill-opacity="0.24"/>
<path d="M184.334 213.874L178.526 213.435L181.444 218.203L184.334 213.874Z" fill="#044AB4" fill-opacity="0.24"/>
<path d="M197.496 204.824L194.788 208.939L200.271 209.359L197.496 204.824Z" fill="#044AB4" fill-opacity="0.24"/>
<path d="M208.164 202.766L202.752 202.348L205.479 206.804L208.164 202.766Z" fill="#044AB4" fill-opacity="0.24"/>
<path d="M221.5 193.898L219.046 197.632L224.004 197.99L221.5 193.898Z" fill="#044AB4" fill-opacity="0.24"/>
<path d="M241.315 205.574L234.699 205.067L238.031 210.513L241.315 205.574Z" fill="#044AB4" fill-opacity="0.24"/>
<path d="M246.34 208.428L242.636 213.989L250.087 214.551L246.34 208.428Z" fill="#044AB4" fill-opacity="0.24"/>
<path d="M267.063 220.942L258.521 220.305L262.827 227.341L267.063 220.942Z" fill="#044AB4" fill-opacity="0.24"/>
<path d="M157.199 214.828L154.78 218.446L159.639 218.815L157.199 214.828Z" fill="#044AB4" fill-opacity="0.24"/>
<path d="M167.619 212.523L162.689 212.153L165.192 216.245L167.619 212.523Z" fill="#044AB4" fill-opacity="0.24"/>
<path d="M181.219 203.635L178.799 207.253L183.658 207.621L181.219 203.635Z" fill="#044AB4" fill-opacity="0.24"/>
<path d="M191.528 201.372L186.825 201.032L189.201 204.915L191.528 201.372Z" fill="#044AB4" fill-opacity="0.24"/>
<path d="M205.238 192.67L203.062 195.946L207.455 196.292L205.238 192.67Z" fill="#044AB4" fill-opacity="0.24"/>
<path d="M215.275 190.297L211.153 189.995L213.242 193.409L215.275 190.297Z" fill="#044AB4" fill-opacity="0.24"/>
<path d="M231.915 191.692L227.056 191.324L229.512 195.337L231.915 191.692Z" fill="#044AB4" fill-opacity="0.24"/>
<path d="M237.793 195.051L234.942 199.329L240.679 199.767L237.793 195.051Z" fill="#044AB4" fill-opacity="0.24"/>
<path d="M257.96 206.926L250.578 206.365L254.31 212.463L257.96 206.926Z" fill="#044AB4" fill-opacity="0.24"/>
<path d="M262.617 209.617L258.624 215.674L266.683 216.262L262.617 209.617Z" fill="#044AB4" fill-opacity="0.24"/>
<path d="M283.762 222.274L274.358 221.595L279.094 229.334L283.762 222.274Z" fill="#044AB4" fill-opacity="0.24"/>
<path d="M126.572 222.536L123.171 222.274L124.894 225.089L126.572 222.536Z" fill="#044AB4" fill-opacity="0.24"/>
<path d="M140.93 213.768L138.97 216.713L142.907 216.999L140.93 213.768Z" fill="#044AB4" fill-opacity="0.24"/>
<path d="M150.915 211.193L146.864 210.892L148.905 214.228L150.915 211.193Z" fill="#044AB4" fill-opacity="0.24"/>
<path d="M164.949 202.508L162.912 205.555L167.006 205.869L164.949 202.508Z" fill="#044AB4" fill-opacity="0.24"/>
<path d="M174.907 200.005L170.926 199.706L172.935 202.989L174.907 200.005Z" fill="#044AB4" fill-opacity="0.24"/>
<path d="M188.961 191.479L187.117 194.272L190.843 194.554L188.961 191.479Z" fill="#044AB4" fill-opacity="0.24"/>
<path d="M198.709 188.908L195.168 188.644L196.954 191.562L198.709 188.908Z" fill="#044AB4" fill-opacity="0.24"/>
<path d="M212.992 180.537L211.376 182.962L214.619 183.195L212.992 180.537Z" fill="#044AB4" fill-opacity="0.24"/>
<path d="M222.595 177.773L219.308 177.526L220.967 180.236L222.595 177.773Z" fill="#044AB4" fill-opacity="0.24"/>
<path d="M229.27 181.664L227.244 184.672L231.294 184.973L229.27 181.664Z" fill="#044AB4" fill-opacity="0.24"/>
<path d="M248.56 193.044L242.935 192.621L245.79 197.286L248.56 193.044Z" fill="#044AB4" fill-opacity="0.24"/>
<path d="M254.062 196.178L250.872 201.042L257.332 201.52L254.062 196.178Z" fill="#044AB4" fill-opacity="0.24"/>
<path d="M274.623 208.307L266.478 207.691L270.576 214.388L274.623 208.307Z" fill="#044AB4" fill-opacity="0.24"/>
<path d="M278.879 210.781L274.542 217.359L283.312 218.026L278.879 210.781Z" fill="#044AB4" fill-opacity="0.24"/>
<path d="M300.505 223.615L290.18 222.852L295.378 231.347L300.505 223.615Z" fill="#044AB4" fill-opacity="0.24"/>
<path d="M109.9 221.197L107.335 220.991L108.626 223.102L109.9 221.197Z" fill="#044AB4" fill-opacity="0.24"/>
<path d="M124.645 212.678L123.132 214.989L126.191 215.205L124.645 212.678Z" fill="#044AB4" fill-opacity="0.24"/>
<path d="M134.24 209.85L131.007 209.578L132.65 212.263L134.24 209.85Z" fill="#044AB4" fill-opacity="0.24"/>
<path d="M148.652 201.287L146.963 203.878L150.391 204.128L148.652 201.287Z" fill="#044AB4" fill-opacity="0.24"/>
<path d="M158.342 198.616L154.941 198.354L156.648 201.142L158.342 198.616Z" fill="#044AB4" fill-opacity="0.24"/>
<path d="M172.668 190.197L171.094 192.637L174.311 192.882L172.668 190.197Z" fill="#044AB4" fill-opacity="0.24"/>
<path d="M182.223 187.482L179.121 187.252L180.683 189.805L182.223 187.482Z" fill="#044AB4" fill-opacity="0.24"/>
<path d="M196.711 179.217L195.326 181.338L198.13 181.536L196.711 179.217Z" fill="#044AB4" fill-opacity="0.24"/>
<path d="M205.998 176.393L203.362 176.185L204.686 178.348L205.998 176.393Z" fill="#044AB4" fill-opacity="0.24"/>
<path d="M220.734 168.086L219.372 170.13L222.106 170.327L220.734 168.086Z" fill="#044AB4" fill-opacity="0.24"/>
<path d="M239.212 179.14L235.23 178.841L237.256 182.151L239.212 179.14Z" fill="#044AB4" fill-opacity="0.24"/>
<path d="M245.539 182.793L243.147 186.399L247.963 186.754L245.539 182.793Z" fill="#044AB4" fill-opacity="0.24"/>
<path d="M265.22 194.422L258.815 193.919L262.053 199.209L265.22 194.422Z" fill="#044AB4" fill-opacity="0.24"/>
<path d="M270.348 197.268L266.709 202.766L274.047 203.313L270.348 197.268Z" fill="#044AB4" fill-opacity="0.24"/>
<path d="M291.134 209.72L282.478 209.069L286.847 216.209L291.134 209.72Z" fill="#044AB4" fill-opacity="0.24"/>
<path d="M295.176 212.066L290.542 219.011L299.848 219.701L295.176 212.066Z" fill="#044AB4" fill-opacity="0.24"/>
<path d="M317.134 224.982L306.114 224.166L311.679 233.261L317.134 224.982Z" fill="#044AB4" fill-opacity="0.24"/>
<path d="M93.3146 219.776L91.3461 219.634L92.3347 221.249L93.3146 219.776Z" fill="#044AB4" fill-opacity="0.24"/>
<path d="M108.375 211.557L107.229 213.271L109.539 213.459L108.375 211.557Z" fill="#044AB4" fill-opacity="0.24"/>
<path d="M117.575 208.47L115.124 208.278L116.367 210.311L117.575 208.47Z" fill="#044AB4" fill-opacity="0.24"/>
<path d="M132.383 200.162L131.059 202.156L133.738 202.377L132.383 200.162Z" fill="#044AB4" fill-opacity="0.24"/>
<path d="M141.732 197.21L138.999 197.013L140.371 199.254L141.732 197.21Z" fill="#044AB4" fill-opacity="0.24"/>
<path d="M156.398 188.965L155.075 190.958L157.738 191.154L156.398 188.965Z" fill="#044AB4" fill-opacity="0.24"/>
<path d="M165.67 186.051L163.104 185.845L164.412 187.982L165.67 186.051Z" fill="#044AB4" fill-opacity="0.24"/>
<path d="M180.426 177.898L179.23 179.701L181.638 179.879L180.426 177.898Z" fill="#044AB4" fill-opacity="0.24"/>
<path d="M189.527 174.928L187.303 174.767L188.435 176.617L189.527 174.928Z" fill="#044AB4" fill-opacity="0.24"/>
<path d="M204.438 166.865L203.407 168.427L205.49 168.585L204.438 166.865Z" fill="#044AB4" fill-opacity="0.24"/>
<path d="M213.487 163.753L211.377 163.607L212.446 165.353L213.487 163.753Z" fill="#044AB4" fill-opacity="0.24"/>
<path d="M230.128 165.149L227.281 164.937L228.7 167.256L230.128 165.149Z" fill="#044AB4" fill-opacity="0.24"/>
<path d="M237.012 169.277L235.318 171.803L238.702 172.039L237.012 169.277Z" fill="#044AB4" fill-opacity="0.24"/>
<path d="M255.903 180.504L251.114 180.137L253.538 184.098L255.903 180.504Z" fill="#044AB4" fill-opacity="0.24"/>
<path d="M261.816 183.982L259.092 188.071L264.575 188.49L261.816 183.982Z" fill="#044AB4" fill-opacity="0.24"/>
<path d="M281.813 195.802L274.757 195.26L278.33 201.097L281.813 195.802Z" fill="#044AB4" fill-opacity="0.24"/>
<path d="M286.621 198.623L282.806 204.4L290.496 204.955L286.621 198.623Z" fill="#044AB4" fill-opacity="0.24"/>
<path d="M307.596 211.161L298.588 210.503L303.133 217.929L307.596 211.161Z" fill="#044AB4" fill-opacity="0.24"/>
<path d="M311.441 213.291L306.53 220.693L316.416 221.421L311.441 213.291Z" fill="#044AB4" fill-opacity="0.24"/>
<path d="M333.684 226.411L322.11 225.546L327.947 235.084L333.684 226.411Z" fill="#044AB4" fill-opacity="0.24"/>
<path d="M68.0781 221.793L67.4801 222.694L68.6841 222.783L68.0781 221.793Z" fill="#044AB4" fill-opacity="0.24"/>
<path d="M76.8042 218.365L75.3454 218.258L76.0789 219.457L76.8042 218.365Z" fill="#044AB4" fill-opacity="0.24"/>
<path d="M92.0859 210.338L91.2603 211.608L92.9473 211.745L92.0859 210.338Z" fill="#044AB4" fill-opacity="0.24"/>
<path d="M100.978 207.09L99.1776 206.938L100.087 208.423L100.978 207.09Z" fill="#044AB4" fill-opacity="0.24"/>
<path d="M116.121 199L115.141 200.473L117.11 200.615L116.121 199Z" fill="#044AB4" fill-opacity="0.24"/>
<path d="M125.112 195.846L123.1 195.689L124.12 197.357L125.112 195.846Z" fill="#044AB4" fill-opacity="0.24"/>
<path d="M140.121 187.773L139.13 189.285L141.142 189.441L140.121 187.773Z" fill="#044AB4" fill-opacity="0.24"/>
<path d="M149.128 184.648L147.115 184.492L148.136 186.16L149.128 184.648Z" fill="#044AB4" fill-opacity="0.24"/>
<path d="M164.129 176.615L163.203 178.064L165.102 178.205L164.129 176.615Z" fill="#044AB4" fill-opacity="0.24"/>
<path d="M173.092 173.477L171.194 173.336L172.15 174.899L173.092 173.477Z" fill="#044AB4" fill-opacity="0.24"/>
<path d="M188.156 165.547L187.331 166.817L189.001 166.928L188.156 165.547Z" fill="#044AB4" fill-opacity="0.24"/>
<path d="M196.954 162.354L195.364 162.206L196.178 163.535L196.954 162.354Z" fill="#044AB4" fill-opacity="0.24"/>
<path d="M212.191 154.314L211.3 155.647L213.084 155.773L212.191 154.314Z" fill="#044AB4" fill-opacity="0.24"/>
<path d="M221.162 151.071L219.194 150.929L220.182 152.544L221.162 151.071Z" fill="#044AB4" fill-opacity="0.24"/>
<path d="M228.477 155.465L227.215 157.331L229.736 157.523L228.477 155.465Z" fill="#044AB4" fill-opacity="0.24"/>
<path d="M246.721 166.523L243.223 166.272L244.977 169.138L246.721 166.523Z" fill="#044AB4" fill-opacity="0.24"/>
<path d="M253.27 170.441L251.259 173.476L255.327 173.803L253.27 170.441Z" fill="#044AB4" fill-opacity="0.24"/>
<path d="M272.417 181.921L267.135 181.543L269.798 185.895L272.417 181.921Z" fill="#044AB4" fill-opacity="0.24"/>
<path d="M278.086 185.275L275.162 189.72L281.068 190.148L278.086 185.275Z" fill="#044AB4" fill-opacity="0.24"/>
<path d="M298.236 197.294L290.899 196.747L294.598 202.792L298.236 197.294Z" fill="#044AB4" fill-opacity="0.24"/>
<path d="M302.898 200.047L298.994 205.964L306.885 206.562L302.898 200.047Z" fill="#044AB4" fill-opacity="0.24"/>
<path d="M324.127 212.603L314.593 211.882L319.392 219.726L324.127 212.603Z" fill="#044AB4" fill-opacity="0.24"/>
<path d="M327.719 214.547L322.552 222.33L332.965 223.12L327.719 214.547Z" fill="#044AB4" fill-opacity="0.24"/>
<path d="M60.2742 216.92L59.2984 216.862L59.7765 217.643L60.2742 216.92Z" fill="#044AB4" fill-opacity="0.24"/>
<path d="M75.8086 209.043L75.2106 209.944L76.4145 210.033L75.8086 209.043Z" fill="#044AB4" fill-opacity="0.24"/>
<path d="M84.4556 205.652L83.154 205.574L83.8077 206.642L84.4556 205.652Z" fill="#044AB4" fill-opacity="0.24"/>
<path d="M99.8398 197.807L99.176 198.771L100.493 198.875L99.8398 197.807Z" fill="#044AB4" fill-opacity="0.24"/>
<path d="M108.472 194.45L107.154 194.346L107.823 195.44L108.472 194.45Z" fill="#044AB4" fill-opacity="0.24"/>
<path d="M123.848 186.584L123.172 187.587L124.533 187.705L123.848 186.584Z" fill="#044AB4" fill-opacity="0.24"/>
<path d="M132.519 183.241L131.173 183.149L131.859 184.27L132.519 183.241Z" fill="#044AB4" fill-opacity="0.24"/>
<path d="M147.867 175.389L147.192 176.392L148.553 176.509L147.867 175.389Z" fill="#044AB4" fill-opacity="0.24"/>
<path d="M156.483 172.07L155.235 171.968L155.873 173.01L156.483 172.07Z" fill="#044AB4" fill-opacity="0.24"/>
<path d="M171.875 164.229L171.265 165.169L172.513 165.271L171.875 164.229Z" fill="#044AB4" fill-opacity="0.24"/>
<path d="M180.478 160.887L179.291 160.824L179.881 161.788L180.478 160.887Z" fill="#044AB4" fill-opacity="0.24"/>
<path d="M195.922 153.084L195.308 153.959L196.512 154.048L195.922 153.084Z" fill="#044AB4" fill-opacity="0.24"/>
<path d="M204.549 149.664L203.248 149.586L203.901 150.654L204.549 149.664Z" fill="#044AB4" fill-opacity="0.24"/>
<path d="M219.938 141.59L219.058 142.884L220.814 143.023L219.938 141.59Z" fill="#044AB4" fill-opacity="0.24"/>
<path d="M237.751 152.443L235.132 152.262L236.455 154.424L237.751 152.443Z" fill="#044AB4" fill-opacity="0.24"/>
<path d="M244.746 156.654L243.195 159.016L246.325 159.234L244.746 156.654Z" fill="#044AB4" fill-opacity="0.24"/>
<path d="M263.231 167.941L259.25 167.641L261.275 170.951L263.231 167.941Z" fill="#044AB4" fill-opacity="0.24"/>
<path d="M269.559 171.762L267.332 175.127L271.823 175.462L269.559 171.762Z" fill="#044AB4" fill-opacity="0.24"/>
<path d="M288.81 183.424L283.283 182.991L286.074 187.551L288.81 183.424Z" fill="#044AB4" fill-opacity="0.24"/>
<path d="M294.375 186.66L291.296 191.307L297.5 191.768L294.375 186.66Z" fill="#044AB4" fill-opacity="0.24"/>
<path d="M314.529 198.806L307.164 198.271L310.88 204.342L314.529 198.806Z" fill="#044AB4" fill-opacity="0.24"/>
<path d="M319.172 201.467L315.151 207.536L323.27 208.164L319.172 201.467Z" fill="#044AB4" fill-opacity="0.24"/>
<path d="M340.609 214.031L330.679 213.289L335.686 221.471L340.609 214.031Z" fill="#044AB4" fill-opacity="0.24"/>
<path d="M343.996 215.91L338.68 223.961L349.418 224.77L343.996 215.91Z" fill="#044AB4" fill-opacity="0.24"/>
<path d="M59.5273 207.721L59.1341 208.33L59.9259 208.372L59.5273 207.721Z" fill="#044AB4" fill-opacity="0.24"/>
<path d="M67.9733 204.224L67.0946 204.155L67.5412 204.885L67.9733 204.224Z" fill="#044AB4" fill-opacity="0.24"/>
<path d="M83.5586 196.486L83.1265 197.147L84.0052 197.216L83.5586 196.486Z" fill="#044AB4" fill-opacity="0.24"/>
<path d="M91.9928 193.025L91.1141 192.956L91.5607 193.686L91.9928 193.025Z" fill="#044AB4" fill-opacity="0.24"/>
<path d="M107.582 185.355L107.2 185.927L107.965 185.981L107.582 185.355Z" fill="#044AB4" fill-opacity="0.24"/>
<path d="M115.953 181.854L115.188 181.8L115.571 182.425L115.953 181.854Z" fill="#044AB4" fill-opacity="0.24"/>
<path d="M131.602 174.158L131.22 174.729L131.984 174.783L131.602 174.158Z" fill="#044AB4" fill-opacity="0.24"/>
<path d="M139.973 170.656L139.208 170.602L139.591 171.228L139.973 170.656Z" fill="#044AB4" fill-opacity="0.24"/>
<path d="M155.633 162.92L155.185 163.554L156.047 163.597L155.633 162.92Z" fill="#044AB4" fill-opacity="0.24"/>
<path d="M164.047 159.433L163.169 159.364L163.6 160.067L164.047 159.433Z" fill="#044AB4" fill-opacity="0.24"/>
<path d="M179.633 151.697L179.201 152.357L180.063 152.401L179.633 151.697Z" fill="#044AB4" fill-opacity="0.24"/>
<path d="M188.067 148.238L187.188 148.169L187.635 148.898L188.067 148.238Z" fill="#044AB4" fill-opacity="0.24"/>
<path d="M203.656 140.332L203.058 141.233L204.262 141.322L203.656 140.332Z" fill="#044AB4" fill-opacity="0.24"/>
<path d="M212.382 136.906L210.924 136.799L211.657 137.998L212.382 136.906Z" fill="#044AB4" fill-opacity="0.24"/>
<path d="M228.924 138.31L226.928 138.179L227.933 139.821L228.924 138.31Z" fill="#044AB4" fill-opacity="0.24"/>
<path d="M236.184 142.789L235.042 144.568L237.38 144.744L236.184 142.789Z" fill="#044AB4" fill-opacity="0.24"/>
<path d="M254.337 153.864L251.121 153.619L252.731 156.25L254.337 153.864Z" fill="#044AB4" fill-opacity="0.24"/>
<path d="M261.012 157.988L259.256 160.642L262.798 160.907L261.012 157.988Z" fill="#044AB4" fill-opacity="0.24"/>
<path d="M279.627 169.442L275.435 169.139L277.539 172.578L279.627 169.442Z" fill="#044AB4" fill-opacity="0.24"/>
<path d="M285.824 173.289L283.571 176.666L288.104 177.015L285.824 173.289Z" fill="#044AB4" fill-opacity="0.24"/>
<path d="M305.134 184.924L299.526 184.527L302.348 189.139L305.134 184.924Z" fill="#044AB4" fill-opacity="0.24"/>
<path d="M310.629 188.225L307.577 192.86L313.738 193.306L310.629 188.225Z" fill="#044AB4" fill-opacity="0.24"/>
<path d="M330.827 200.32L323.391 199.784L327.138 205.907L330.827 200.32Z" fill="#044AB4" fill-opacity="0.24"/>
<path d="M335.465 202.855L331.279 209.166L339.706 209.787L335.465 202.855Z" fill="#044AB4" fill-opacity="0.24"/>
<path d="M51.7969 220.475L51.4149 221.046L52.1795 221.1L51.7969 220.475Z" fill="#044AB4" fill-opacity="0.24"/>
<path d="M43.2461 206.404L43.0681 206.685L43.4541 206.744L43.2461 206.404Z" fill="#044AB4" fill-opacity="0.24"/>
<path d="M51.4946 202.757L51.0273 202.735L51.2669 203.126L51.4946 202.757Z" fill="#044AB4" fill-opacity="0.24"/>
<path d="M67.2734 195.104L66.9799 195.535L67.5766 195.599L67.2734 195.104Z" fill="#044AB4" fill-opacity="0.24"/>
<path d="M75.5416 191.548L75.0046 191.525L75.2756 191.967L75.5416 191.548Z" fill="#044AB4" fill-opacity="0.24"/>
<path d="M91.2812 184.006L91.1032 184.286L91.4893 184.346L91.2812 184.006Z" fill="#044AB4" fill-opacity="0.24"/>
<path d="M99.4781 180.386L99.1256 180.379L99.3009 180.665L99.4781 180.386Z" fill="#044AB4" fill-opacity="0.24"/>
<path d="M115.312 172.838L115.119 173.091L115.488 173.124L115.312 172.838Z" fill="#044AB4" fill-opacity="0.24"/>
<path d="M123.498 169.187L123.145 169.18L123.32 169.466L123.498 169.187Z" fill="#044AB4" fill-opacity="0.24"/>
<path d="M139.332 161.574L139.116 161.905L139.556 161.94L139.332 161.574Z" fill="#044AB4" fill-opacity="0.24"/>
<path d="M147.6 157.956L147.063 157.933L147.334 158.376L147.6 157.956Z" fill="#044AB4" fill-opacity="0.24"/>
<path d="M163.371 150.303L163.024 150.758L163.674 150.797L163.371 150.303Z" fill="#044AB4" fill-opacity="0.24"/>
<path d="M171.698 146.721L171.021 146.695L171.355 147.242L171.698 146.721Z" fill="#044AB4" fill-opacity="0.24"/>
<path d="M187.383 138.975L186.935 139.609L187.813 139.678L187.383 138.975Z" fill="#044AB4" fill-opacity="0.24"/>
<path d="M195.88 135.452L194.86 135.38L195.387 136.24L195.88 135.452Z" fill="#044AB4" fill-opacity="0.24"/>
<path d="M211.383 127.453L210.657 128.545L212.133 128.678L211.383 127.453Z" fill="#044AB4" fill-opacity="0.24"/>
<path d="M220.251 124.094L218.51 123.982L219.387 125.415L220.251 124.094Z" fill="#044AB4" fill-opacity="0.24"/>
<path d="M227.676 128.736L226.696 130.209L228.664 130.352L227.676 128.736Z" fill="#044AB4" fill-opacity="0.24"/>
<path d="M245.501 139.724L242.882 139.543L244.19 141.679L245.501 139.724Z" fill="#044AB4" fill-opacity="0.24"/>
<path d="M252.496 144.037L251.018 146.233L253.979 146.46L252.496 144.037Z" fill="#044AB4" fill-opacity="0.24"/>
<path d="M270.736 155.326L267.239 155.075L268.992 157.941L270.736 155.326Z" fill="#044AB4" fill-opacity="0.24"/>
<path d="M277.305 159.502L275.522 162.168L279.107 162.446L277.305 159.502Z" fill="#044AB4" fill-opacity="0.24"/>
<path d="M295.785 171.02L291.821 170.746L293.814 174.003L295.785 171.02Z" fill="#044AB4" fill-opacity="0.24"/>
<path d="M302.098 174.877L299.937 178.179L304.314 178.499L302.098 174.877Z" fill="#044AB4" fill-opacity="0.24"/>
<path d="M321.368 186.502L315.842 186.069L318.632 190.629L321.368 186.502Z" fill="#044AB4" fill-opacity="0.24"/>
<path d="M326.922 189.842L323.932 194.349L329.952 194.793L326.922 189.842Z" fill="#044AB4" fill-opacity="0.24"/>
<path d="M347.329 201.773L339.439 201.176L343.409 207.664L347.329 201.773Z" fill="#044AB4" fill-opacity="0.24"/>
<path d="M43.7606 215.508L43.2501 215.471L43.5056 215.889L43.7606 215.508Z" fill="#044AB4" fill-opacity="0.24"/>
<path d="M35.0083 201.327L34.937 201.326L34.9692 201.378L35.0083 201.327Z" fill="#044AB4" fill-opacity="0.24"/>
<path d="M50.9805 193.717L50.8415 193.946L51.1401 193.978L50.9805 193.717Z" fill="#044AB4" fill-opacity="0.24"/>
<path d="M59.1617 190.07L58.8365 190.05L58.9958 190.311L59.1617 190.07Z" fill="#044AB4" fill-opacity="0.24"/>
<path d="M75.0312 182.572L74.9152 182.724L75.127 182.729L75.0312 182.572Z" fill="#044AB4" fill-opacity="0.24"/>
<path d="M83.1024 178.914L82.9606 178.911L83.0247 179.016L83.1024 178.914Z" fill="#044AB4" fill-opacity="0.24"/>
<path d="M99.0273 171.449L99.0157 171.488L99.0599 171.503L99.0273 171.449Z" fill="#044AB4" fill-opacity="0.24"/>
<path d="M107.067 167.738L107.023 167.724L107.055 167.777L107.067 167.738Z" fill="#044AB4" fill-opacity="0.24"/>
<path d="M123.043 160.189L122.981 160.318L123.139 160.347L123.043 160.189Z" fill="#044AB4" fill-opacity="0.24"/>
<path d="M131.169 156.505L130.941 156.474L131.069 156.683L131.169 156.505Z" fill="#044AB4" fill-opacity="0.24"/>
<path d="M147.07 148.891L146.893 149.171L147.262 149.204L147.07 148.891Z" fill="#044AB4" fill-opacity="0.24"/>
<path d="M155.346 145.23L154.809 145.206L155.064 145.623L155.346 145.23Z" fill="#044AB4" fill-opacity="0.24"/>
<path d="M171.094 137.525L170.75 138.046L171.445 138.099L171.094 137.525Z" fill="#044AB4" fill-opacity="0.24"/>
<path d="M179.5 133.972L178.692 133.904L179.107 134.582L179.5 133.972Z" fill="#044AB4" fill-opacity="0.24"/>
<path d="M195.109 126.098L194.55 126.949L195.683 127.036L195.109 126.098Z" fill="#044AB4" fill-opacity="0.24"/>
<path d="M203.792 122.652L202.431 122.534L203.133 123.681L203.792 122.652Z" fill="#044AB4" fill-opacity="0.24"/>
<path d="M219.137 114.562L218.246 115.895L220.03 116.022L219.137 114.562Z" fill="#044AB4" fill-opacity="0.24"/>
<path d="M236.753 125.547L234.557 125.374L235.657 127.172L236.753 125.547Z" fill="#044AB4" fill-opacity="0.24"/>
<path d="M243.949 130.031L242.726 131.846L245.177 132.038L243.949 130.031Z" fill="#044AB4" fill-opacity="0.24"/>
<path d="M261.961 141.165L258.956 140.924L260.487 143.426L261.961 141.165Z" fill="#044AB4" fill-opacity="0.24"/>
<path d="M268.754 145.432L267.192 147.832L270.365 148.064L268.754 145.432Z" fill="#044AB4" fill-opacity="0.24"/>
<path d="M286.848 156.929L283.718 156.711L285.297 159.291L286.848 156.929Z" fill="#044AB4" fill-opacity="0.24"/>
<path d="M293.562 161.234L291.973 163.647L295.189 163.893L293.562 161.234Z" fill="#044AB4" fill-opacity="0.24"/>
<path d="M311.937 172.633L308.211 172.352L310.093 175.427L311.937 172.633Z" fill="#044AB4" fill-opacity="0.24"/>
<path d="M318.375 176.531L316.287 179.667L320.496 179.997L318.375 176.531Z" fill="#044AB4" fill-opacity="0.24"/>
<path d="M337.555 188.065L332.185 187.66L334.896 192.09L337.555 188.065Z" fill="#044AB4" fill-opacity="0.24"/>
<path d="M343.188 191.303L340.12 195.912L346.297 196.384L343.188 191.303Z" fill="#044AB4" fill-opacity="0.24"/>
<path d="M58.7383 181.123L58.7266 181.162L58.7708 181.176L58.7383 181.123Z" fill="#044AB4" fill-opacity="0.24"/>
<path d="M130.793 147.467L130.731 147.595L130.873 147.598L130.793 147.467Z" fill="#044AB4" fill-opacity="0.24"/>
<path d="M138.947 143.767L138.676 143.723L138.819 143.958L138.947 143.767Z" fill="#044AB4" fill-opacity="0.24"/>
<path d="M154.828 136.066L154.562 136.486L155.099 136.509L154.828 136.066Z" fill="#044AB4" fill-opacity="0.24"/>
<path d="M163.152 132.485L162.501 132.446L162.82 132.967L163.152 132.485Z" fill="#044AB4" fill-opacity="0.24"/>
<path d="M178.844 124.697L178.412 125.357L179.274 125.401L178.844 124.697Z" fill="#044AB4" fill-opacity="0.24"/>
<path d="M187.361 121.201L186.325 121.103L186.851 121.963L187.361 121.201Z" fill="#044AB4" fill-opacity="0.24"/>
<path d="M202.863 113.205L202.165 114.285L203.581 114.378L202.863 113.205Z" fill="#044AB4" fill-opacity="0.24"/>
<path d="M211.649 109.878L210.076 109.756L210.857 111.033L211.649 109.878Z" fill="#044AB4" fill-opacity="0.24"/>
<path d="M228.131 111.307L226.119 111.15L227.14 112.818L228.131 111.307Z" fill="#044AB4" fill-opacity="0.24"/>
<path d="M235.418 115.883L234.322 117.508L236.518 117.681L235.418 115.883Z" fill="#044AB4" fill-opacity="0.24"/>
<path d="M253.236 126.975L250.616 126.793L251.94 128.956L253.236 126.975Z" fill="#044AB4" fill-opacity="0.24"/>
<path d="M260.23 131.35L258.819 133.482L261.649 133.668L260.23 131.35Z" fill="#044AB4" fill-opacity="0.24"/>
<path d="M278.163 142.75L275.3 142.512L276.751 144.883L278.163 142.75Z" fill="#044AB4" fill-opacity="0.24"/>
<path d="M285.023 147.189L283.677 149.26L286.427 149.483L285.023 147.189Z" fill="#044AB4" fill-opacity="0.24"/>
<path d="M302.861 158.604L300.268 158.41L301.576 160.546L302.861 158.604Z" fill="#044AB4" fill-opacity="0.24"/>
<path d="M309.832 163.057L308.508 165.05L311.188 165.272L309.832 163.057Z" fill="#044AB4" fill-opacity="0.24"/>
<path d="M328.1 174.208L324.602 173.957L326.356 176.823L328.1 174.208Z" fill="#044AB4" fill-opacity="0.24"/>
<path d="M334.648 178.123L332.627 181.196L336.705 181.484L334.648 178.123Z" fill="#044AB4" fill-opacity="0.24"/>
<path d="M122.551 142.263L122.507 142.249L122.54 142.302L122.551 142.263Z" fill="#044AB4" fill-opacity="0.24"/>
<path d="M138.539 134.68L138.411 134.871L138.683 134.915L138.539 134.68Z" fill="#044AB4" fill-opacity="0.24"/>
<path d="M146.733 130.997L146.363 130.963L146.555 131.277L146.733 130.997Z" fill="#044AB4" fill-opacity="0.24"/>
<path d="M162.574 123.277L162.242 123.759L162.893 123.798L162.574 123.277Z" fill="#044AB4" fill-opacity="0.24"/>
<path d="M170.941 119.71L170.22 119.67L170.586 120.269L170.941 119.71Z" fill="#044AB4" fill-opacity="0.24"/>
<path d="M186.582 111.887L186.072 112.649L187.108 112.747L186.582 111.887Z" fill="#044AB4" fill-opacity="0.24"/>
<path d="M195.201 108.403L193.97 108.327L194.592 109.343L195.201 108.403Z" fill="#044AB4" fill-opacity="0.24"/>
<path d="M210.609 100.42L209.845 101.563L211.391 101.697L210.609 100.42Z" fill="#044AB4" fill-opacity="0.24"/>
<path d="M219.438 97.107L217.768 96.9959L218.597 98.3505L219.438 97.107Z" fill="#044AB4" fill-opacity="0.24"/>
<path d="M226.867 101.752L225.941 103.201L227.84 103.342L226.867 101.752Z" fill="#044AB4" fill-opacity="0.24"/>
<path d="M244.563 112.761L242.225 112.585L243.421 114.54L244.563 112.761Z" fill="#044AB4" fill-opacity="0.24"/>
<path d="M251.691 117.24L250.445 119.132L252.967 119.325L251.691 117.24Z" fill="#044AB4" fill-opacity="0.24"/>
<path d="M269.545 128.512L266.882 128.317L268.221 130.506L269.545 128.512Z" fill="#044AB4" fill-opacity="0.24"/>
<path d="M276.5 133.045L275.227 134.949L277.792 135.156L276.5 133.045Z" fill="#044AB4" fill-opacity="0.24"/>
<path d="M294.136 144.414L291.913 144.253L293.029 146.077L294.136 144.414Z" fill="#044AB4" fill-opacity="0.24"/>
<path d="M301.305 149.141L300.297 150.626L302.309 150.782L301.305 149.141Z" fill="#044AB4" fill-opacity="0.24"/>
<path d="M318.862 160.252L316.822 160.108L317.859 161.802L318.862 160.252Z" fill="#044AB4" fill-opacity="0.24"/>
<path d="M326.117 164.775L324.987 166.516L327.281 166.678L326.117 164.775Z" fill="#044AB4" fill-opacity="0.24"/>
<path d="M344.354 175.771L340.91 175.496L342.648 178.336L344.354 175.771Z" fill="#044AB4" fill-opacity="0.24"/>
<path d="M122.27 133.219L122.219 133.308L122.318 133.297L122.27 133.219Z" fill="#044AB4" fill-opacity="0.24"/>
<path d="M130.357 129.518L130.198 129.489L130.279 129.621L130.357 129.518Z" fill="#044AB4" fill-opacity="0.24"/>
<path d="M146.285 121.893L146.107 122.173L146.477 122.206L146.285 121.893Z" fill="#044AB4" fill-opacity="0.24"/>
<path d="M154.565 118.234L154.012 118.185L154.283 118.628L154.565 118.234Z" fill="#044AB4" fill-opacity="0.24"/>
<path d="M170.305 110.461L169.911 111.07L170.703 111.112L170.305 110.461Z" fill="#044AB4" fill-opacity="0.24"/>
<path d="M178.798 106.94L177.849 106.869L178.327 107.651L178.798 106.94Z" fill="#044AB4" fill-opacity="0.24"/>
<path d="M194.336 99.0605L193.738 99.962L194.942 100.051L194.336 99.0605Z" fill="#044AB4" fill-opacity="0.24"/>
<path d="M203.011 95.6554L201.65 95.5377L202.336 96.6584L203.011 95.6554Z" fill="#044AB4" fill-opacity="0.24"/>
<path d="M218.355 87.6289L217.542 88.8602L219.168 88.9575L218.355 87.6289Z" fill="#044AB4" fill-opacity="0.24"/>
<path d="M235.909 98.5726L233.827 98.4147L234.863 100.108L235.909 98.5726Z" fill="#044AB4" fill-opacity="0.24"/>
<path d="M243.164 103.096L242.045 104.798L244.312 104.972L243.164 103.096Z" fill="#044AB4" fill-opacity="0.24"/>
<path d="M260.907 114.288L258.456 114.097L259.684 116.103L260.907 114.288Z" fill="#044AB4" fill-opacity="0.24"/>
<path d="M267.98 118.859L266.769 120.636L269.176 120.813L267.98 118.859Z" fill="#044AB4" fill-opacity="0.24"/>
<path d="M285.546 130.162L283.42 129.99L284.504 131.762L285.546 130.162Z" fill="#044AB4" fill-opacity="0.24"/>
<path d="M292.758 134.902L291.832 136.351L293.731 136.492L292.758 134.902Z" fill="#044AB4" fill-opacity="0.24"/>
<path d="M310.026 146.114L308.584 146.033L309.301 147.205L310.026 146.114Z" fill="#044AB4" fill-opacity="0.24"/>
<path d="M317.566 151L316.907 152.029L318.252 152.121L317.566 151Z" fill="#044AB4" fill-opacity="0.24"/>
<path d="M334.954 161.889L333.267 161.752L334.128 163.16L334.954 161.889Z" fill="#044AB4" fill-opacity="0.24"/>
<path d="M342.402 166.391L341.306 168.015L343.503 168.189L342.402 166.391Z" fill="#044AB4" fill-opacity="0.24"/>
<path d="M130.016 120.432L129.9 120.584L130.127 120.614L130.016 120.432Z" fill="#044AB4" fill-opacity="0.24"/>
<path d="M138.17 116.732L137.844 116.712L138.004 116.973L138.17 116.732Z" fill="#044AB4" fill-opacity="0.24"/>
<path d="M154.039 109.066L153.757 109.459L154.31 109.509L154.039 109.066Z" fill="#044AB4" fill-opacity="0.24"/>
<path d="M162.375 105.447L161.68 105.394L162.047 105.994L162.375 105.447Z" fill="#044AB4" fill-opacity="0.24"/>
<path d="M178.059 97.6387L177.561 98.3615L178.537 98.4199L178.059 97.6387Z" fill="#044AB4" fill-opacity="0.24"/>
<path d="M186.611 94.1518L185.494 94.0906L186.052 95.0023L186.611 94.1518Z" fill="#044AB4" fill-opacity="0.24"/>
<path d="M202.066 86.2441L201.391 87.2471L202.752 87.3648L202.066 86.2441Z" fill="#044AB4" fill-opacity="0.24"/>
<path d="M210.793 82.8806L209.334 82.7738L210.067 83.9724L210.793 82.8806Z" fill="#044AB4" fill-opacity="0.24"/>
<path d="M227.188 84.3835L225.501 84.2464L226.363 85.6539L227.188 84.3835Z" fill="#044AB4" fill-opacity="0.24"/>
<path d="M234.617 89.0273L233.676 90.4495L235.574 90.5908L234.617 89.0273Z" fill="#044AB4" fill-opacity="0.24"/>
<path d="M252.262 100.062L250.021 99.8746L251.17 101.752L252.262 100.062Z" fill="#044AB4" fill-opacity="0.24"/>
<path d="M259.453 104.65L258.319 106.326L260.585 106.5L259.453 104.65Z" fill="#044AB4" fill-opacity="0.24"/>
<path d="M277.011 115.885L274.901 115.74L275.969 117.486L277.011 115.885Z" fill="#044AB4" fill-opacity="0.24"/>
<path d="M284.25 120.617L283.27 122.09L285.239 122.233L284.25 120.617Z" fill="#044AB4" fill-opacity="0.24"/>
<path d="M301.508 131.862L300.033 131.729L300.782 132.954L301.508 131.862Z" fill="#044AB4" fill-opacity="0.24"/>
<path d="M309.051 136.816L308.453 137.718L309.657 137.807L309.051 136.816Z" fill="#044AB4" fill-opacity="0.24"/>
<path d="M325.985 147.807L325.177 147.74L325.575 148.391L325.985 147.807Z" fill="#044AB4" fill-opacity="0.24"/>
<path d="M333.855 152.785L333.396 153.458L334.318 153.541L333.855 152.785Z" fill="#044AB4" fill-opacity="0.24"/>
<path d="M113.75 118.971L113.684 119.033L113.782 119.022L113.75 118.971Z" fill="#044AB4" fill-opacity="0.24"/>
<path d="M121.822 115.243L121.663 115.214L121.744 115.345L121.822 115.243Z" fill="#044AB4" fill-opacity="0.24"/>
<path d="M137.746 107.615L137.568 107.895L137.938 107.929L137.746 107.615Z" fill="#044AB4" fill-opacity="0.24"/>
<path d="M146.003 103.972L145.52 103.924L145.759 104.316L146.003 103.972Z" fill="#044AB4" fill-opacity="0.24"/>
<path d="M161.77 96.252L161.426 96.7726L162.12 96.8253L161.77 96.252Z" fill="#044AB4" fill-opacity="0.24"/>
<path d="M170.208 92.6872L169.329 92.6179L169.776 93.3477L170.208 92.6872Z" fill="#044AB4" fill-opacity="0.24"/>
<path d="M185.789 84.8223L185.23 85.6732L186.363 85.7605L185.789 84.8223Z" fill="#044AB4" fill-opacity="0.24"/>
<path d="M194.389 81.417L193.185 81.3282L193.791 82.3184L194.389 81.417Z" fill="#044AB4" fill-opacity="0.24"/>
<path d="M209.824 73.4844L209.111 74.5375L210.526 74.6305L209.824 73.4844Z" fill="#044AB4" fill-opacity="0.24"/>
<path d="M218.543 70.1568L217.068 70.024L217.817 71.2491L218.543 70.1568Z" fill="#044AB4" fill-opacity="0.24"/>
<path d="M226.09 74.8789L225.276 76.1106L226.919 76.234L226.09 74.8789Z" fill="#044AB4" fill-opacity="0.24"/>
<path d="M243.56 85.8618L241.662 85.7204L242.619 87.2839L243.56 85.8618Z" fill="#044AB4" fill-opacity="0.24"/>
<path d="M250.906 90.4766L249.876 92.0385L251.959 92.1965L250.906 90.4766Z" fill="#044AB4" fill-opacity="0.24"/>
<path d="M268.448 101.622L266.365 101.464L267.418 103.184L268.448 101.622Z" fill="#044AB4" fill-opacity="0.24"/>
<path d="M275.699 106.314L274.708 107.826L276.72 107.982L275.699 106.314Z" fill="#044AB4" fill-opacity="0.24"/>
<path d="M293.024 117.562L291.451 117.44L292.248 118.743L293.024 117.562Z" fill="#044AB4" fill-opacity="0.24"/>
<path d="M300.512 122.475L299.836 123.478L301.197 123.595L300.512 122.475Z" fill="#044AB4" fill-opacity="0.24"/>
<path d="M317.426 133.547L316.688 133.481L317.071 134.107L317.426 133.547Z" fill="#044AB4" fill-opacity="0.24"/>
<path d="M325.32 138.74L325.104 139.071L325.56 139.132L325.32 138.74Z" fill="#044AB4" fill-opacity="0.24"/>
<path d="M342.092 149.409L341.625 149.387L341.865 149.778L342.092 149.409Z" fill="#044AB4" fill-opacity="0.24"/>
<path d="M105.508 113.704L105.41 113.715L105.458 113.793L105.508 113.704Z" fill="#044AB4" fill-opacity="0.24"/>
<path d="M121.484 106.156L121.341 106.321L121.596 106.339L121.484 106.156Z" fill="#044AB4" fill-opacity="0.24"/>
<path d="M129.662 102.444L129.292 102.411L129.5 102.751L129.662 102.444Z" fill="#044AB4" fill-opacity="0.24"/>
<path d="M145.504 94.7891L145.222 95.1821L145.775 95.2319L145.504 94.7891Z" fill="#044AB4" fill-opacity="0.24"/>
<path d="M153.844 91.1736L153.149 91.1209L153.516 91.7208L153.844 91.1736Z" fill="#044AB4" fill-opacity="0.24"/>
<path d="M169.512 83.3984L169.052 84.0712L169.974 84.1542L169.512 83.3984Z" fill="#044AB4" fill-opacity="0.24"/>
<path d="M178.029 79.9034L177.009 79.8313L177.535 80.6915L178.029 79.9034Z" fill="#044AB4" fill-opacity="0.24"/>
<path d="M193.535 72.0371L192.91 72.9508L194.157 73.0533L193.535 72.0371Z" fill="#044AB4" fill-opacity="0.24"/>
<path d="M202.178 68.6421L200.877 68.5643L201.53 69.6325L202.178 68.6421Z" fill="#044AB4" fill-opacity="0.24"/>
<path d="M217.57 60.6953L216.818 61.7994L218.32 61.9199L217.57 60.6953Z" fill="#044AB4" fill-opacity="0.24"/>
<path d="M234.922 71.6345L233.252 71.5235L234.097 72.9045L234.922 71.6345Z" fill="#044AB4" fill-opacity="0.24"/>
<path d="M242.355 76.3418L241.48 77.7011L243.265 77.8273L242.355 76.3418Z" fill="#044AB4" fill-opacity="0.24"/>
<path d="M259.901 87.3884L257.889 87.2319L258.894 88.8734L259.901 87.3884Z" fill="#044AB4" fill-opacity="0.24"/>
<path d="M267.168 92.041L266.176 93.5524L268.189 93.709L267.168 92.041Z" fill="#044AB4" fill-opacity="0.24"/>
<path d="M284.572 103.249L282.814 103.111L283.707 104.57L284.572 103.249Z" fill="#044AB4" fill-opacity="0.24"/>
<path d="M291.973 108.074L291.197 109.256L292.786 109.404L291.973 108.074Z" fill="#044AB4" fill-opacity="0.24"/>
<path d="M309.025 119.21L308.005 119.138L308.515 119.971L309.025 119.21Z" fill="#044AB4" fill-opacity="0.24"/>
<path d="M316.789 124.363L316.446 124.884L317.14 124.937L316.789 124.363Z" fill="#044AB4" fill-opacity="0.24"/>
<path d="M333.395 135.208L333.27 135.231L333.318 135.309L333.395 135.208Z" fill="#044AB4" fill-opacity="0.24"/>
<path d="M341.613 140.488L341.548 140.551L341.645 140.54L341.613 140.488Z" fill="#044AB4" fill-opacity="0.24"/>
<path d="M105.203 104.668L105.125 104.77L105.267 104.773L105.203 104.668Z" fill="#044AB4" fill-opacity="0.24"/>
<path d="M113.31 100.954L113.082 100.924L113.21 101.133L113.31 100.954Z" fill="#044AB4" fill-opacity="0.24"/>
<path d="M129.215 93.3438L129.037 93.6239L129.407 93.6572L129.215 93.3438Z" fill="#044AB4" fill-opacity="0.24"/>
<path d="M137.491 89.68L136.938 89.6302L137.225 90.0995L137.491 89.68Z" fill="#044AB4" fill-opacity="0.24"/>
<path d="M153.246 81.9395L152.864 82.5107L153.629 82.5647L153.246 81.9395Z" fill="#044AB4" fill-opacity="0.24"/>
<path d="M161.673 78.4137L160.794 78.3444L161.24 79.0742L161.673 78.4137Z" fill="#044AB4" fill-opacity="0.24"/>
<path d="M177.258 70.6113L176.749 71.3729L177.768 71.4451L177.258 70.6113Z" fill="#044AB4" fill-opacity="0.24"/>
<path d="M185.826 67.1527L184.693 67.0654L185.267 68.0036L185.826 67.1527Z" fill="#044AB4" fill-opacity="0.24"/>
<path d="M201.266 59.2207L200.606 60.2502L201.968 60.3679L201.266 59.2207Z" fill="#044AB4" fill-opacity="0.24"/>
<path d="M210.007 55.8806L208.549 55.7738L209.282 56.9724L210.007 55.8806Z" fill="#044AB4" fill-opacity="0.24"/>
<path d="M226.332 57.385L224.775 57.2892L225.557 58.5657L226.332 57.385Z" fill="#044AB4" fill-opacity="0.24"/>
<path d="M233.84 62.1582L233.026 63.3899L234.669 63.5133L233.84 62.1582Z" fill="#044AB4" fill-opacity="0.24"/>
<path d="M251.259 73.1601L249.459 73.0078L250.368 74.4933L251.259 73.1601Z" fill="#044AB4" fill-opacity="0.24"/>
<path d="M258.633 77.8281L257.718 79.2384L259.59 79.3922L258.633 77.8281Z" fill="#044AB4" fill-opacity="0.24"/>
<path d="M276.119 88.938L274.221 88.7966L275.178 90.3601L276.119 88.938Z" fill="#044AB4" fill-opacity="0.24"/>
<path d="M283.461 93.7207L282.581 95.0152L284.338 95.1537L283.461 93.7207Z" fill="#044AB4" fill-opacity="0.24"/>
<path d="M300.651 104.863L299.306 104.772L299.976 105.866L300.651 104.863Z" fill="#044AB4" fill-opacity="0.24"/>
<path d="M308.258 109.924L307.749 110.685L308.768 110.758L308.258 109.924Z" fill="#044AB4" fill-opacity="0.24"/>
<path d="M324.987 120.913L324.617 120.879L324.809 121.193L324.987 120.913Z" fill="#044AB4" fill-opacity="0.24"/>
<path d="M333.066 126.188L332.989 126.289L333.131 126.292L333.066 126.188Z" fill="#044AB4" fill-opacity="0.24"/>
<path d="M96.9891 99.4548L96.8747 99.4395L96.9228 99.5181L96.9891 99.4548Z" fill="#044AB4" fill-opacity="0.24"/>
<path d="M112.957 91.8398L112.791 92.0803L113.1 92.0738L112.957 91.8398Z" fill="#044AB4" fill-opacity="0.24"/>
<path d="M121.139 88.1929L120.753 88.1334L120.961 88.4734L121.139 88.1929Z" fill="#044AB4" fill-opacity="0.24"/>
<path d="M136.98 80.4766L136.649 80.9585L137.299 80.9974L136.98 80.4766Z" fill="#044AB4" fill-opacity="0.24"/>
<path d="M145.32 76.9223L144.61 76.8436L144.977 77.4434L145.32 76.9223Z" fill="#044AB4" fill-opacity="0.24"/>
<path d="M160.992 69.1484L160.56 69.8085L161.423 69.8517L160.992 69.1484Z" fill="#044AB4" fill-opacity="0.24"/>
<path d="M169.506 65.6521L168.47 65.5539L168.996 66.4142L169.506 65.6521Z" fill="#044AB4" fill-opacity="0.24"/>
<path d="M184.996 57.7598L184.414 58.6877L185.618 58.7765L184.996 57.7598Z" fill="#044AB4" fill-opacity="0.24"/>
<path d="M193.663 54.3948L192.345 54.2909L192.999 55.359L193.663 54.3948Z" fill="#044AB4" fill-opacity="0.24"/>
<path d="M209.008 46.4316L208.298 47.55L209.758 47.6568L209.008 46.4316Z" fill="#044AB4" fill-opacity="0.24"/>
<path d="M217.813 43.1337L216.24 43.0118L217.021 44.2884L217.813 43.1337Z" fill="#044AB4" fill-opacity="0.24"/>
<path d="M225.305 47.8809L224.491 49.1126L226.134 49.2359L225.305 47.8809Z" fill="#044AB4" fill-opacity="0.24"/>
<path d="M242.696 58.9008L240.982 58.776L241.843 60.183L242.696 58.9008Z" fill="#044AB4" fill-opacity="0.24"/>
<path d="M250.121 63.6484L249.241 64.943L250.998 65.0815L250.121 63.6484Z" fill="#044AB4" fill-opacity="0.24"/>
<path d="M267.556 74.6757L265.728 74.5357L266.653 76.0472L267.556 74.6757Z" fill="#044AB4" fill-opacity="0.24"/>
<path d="M274.922 79.3828L274.008 80.7927L275.863 80.9203L274.922 79.3828Z" fill="#044AB4" fill-opacity="0.24"/>
<path d="M292.254 90.5282L290.627 90.4309L291.44 91.7595L292.254 90.5282Z" fill="#044AB4" fill-opacity="0.24"/>
<path d="M299.738 95.4395L299.025 96.4926L300.44 96.5856L299.738 95.4395Z" fill="#044AB4" fill-opacity="0.24"/>
<path d="M316.664 106.536L315.856 106.468L316.271 107.146L316.664 106.536Z" fill="#044AB4" fill-opacity="0.24"/>
<path d="M324.547 111.705L324.292 112.086L324.802 112.123L324.547 111.705Z" fill="#044AB4" fill-opacity="0.24"/>
<path d="M234.165 44.6254L232.451 44.5006L233.312 45.9077L234.165 44.6254Z" fill="#044AB4" fill-opacity="0.24"/>
<path d="M241.586 49.3711L240.733 50.6538L242.463 50.8047L241.586 49.3711Z" fill="#044AB4" fill-opacity="0.24"/>
<path d="M258.997 60.4133L257.213 60.2871L258.122 61.7726L258.997 60.4133Z" fill="#044AB4" fill-opacity="0.24"/>
<path d="M266.402 65.1309L265.5 66.5024L267.327 66.6424L266.402 65.1309Z" fill="#044AB4" fill-opacity="0.24"/>
<path d="M283.837 76.2284L282.01 76.0885L282.935 77.6L283.837 76.2284Z" fill="#044AB4" fill-opacity="0.24"/>
<path d="M291.207 80.998L290.354 82.2803L292.068 82.4051L291.207 80.998Z" fill="#044AB4" fill-opacity="0.24"/>
<path d="M308.346 92.1639L307.099 92.0614L307.737 93.1041L308.346 92.1639Z" fill="#044AB4" fill-opacity="0.24"/>
<path d="M316.012 97.1992L315.514 97.9225L316.506 98.007L316.012 97.1992Z" fill="#044AB4" fill-opacity="0.24"/>
<path d="M332.745 108.15L332.305 108.115L332.528 108.48L332.745 108.15Z" fill="#044AB4" fill-opacity="0.24"/>
<path d="M340.824 113.426L340.708 113.578L340.92 113.582L340.824 113.426Z" fill="#044AB4" fill-opacity="0.24"/>
<path d="M233.051 35.0938L232.187 36.4143L233.928 36.5268L233.051 35.0938Z" fill="#044AB4" fill-opacity="0.24"/>
<path d="M250.458 46.136L248.674 46.0098L249.583 47.4953L250.458 46.136Z" fill="#044AB4" fill-opacity="0.24"/>
<path d="M257.836 50.8691L256.96 52.2285L258.745 52.3547L257.836 50.8691Z" fill="#044AB4" fill-opacity="0.24"/>
<path d="M275.334 61.9397L273.436 61.7984L274.377 63.3353L275.334 61.9397Z" fill="#044AB4" fill-opacity="0.24"/>
<path d="M282.668 66.6582L281.765 68.0298L283.593 68.1697L282.668 66.6582Z" fill="#044AB4" fill-opacity="0.24"/>
<path d="M300.001 77.8025L298.357 77.6792L299.186 79.0342L300.001 77.8025Z" fill="#044AB4" fill-opacity="0.24"/>
<path d="M307.473 82.6895L306.759 83.743L308.19 83.8621L307.473 82.6895Z" fill="#044AB4" fill-opacity="0.24"/>
<path d="M324.481 93.7502L323.505 93.6918L323.999 94.4996L324.481 93.7502Z" fill="#044AB4" fill-opacity="0.24"/>
<path d="M332.285 98.8535L331.93 99.4125L332.652 99.4528L332.285 98.8535Z" fill="#044AB4" fill-opacity="0.24"/>
<path d="M241.962 31.8749L240.135 31.7349L241.06 33.2465L241.962 31.8749Z" fill="#044AB4" fill-opacity="0.24"/>
<path d="M249.316 36.5566L248.402 37.9669L250.273 38.1207L249.316 36.5566Z" fill="#044AB4" fill-opacity="0.24"/>
<path d="M266.799 47.6646L264.901 47.5232L265.857 49.0867L266.799 47.6646Z" fill="#044AB4" fill-opacity="0.24"/>
<path d="M274.117 52.3535L273.176 53.7756L275.074 53.917L274.117 52.3535Z" fill="#044AB4" fill-opacity="0.24"/>
<path d="M291.576 63.4765L289.748 63.3365L290.673 64.848L291.576 63.4765Z" fill="#044AB4" fill-opacity="0.24"/>
<path d="M298.941 68.248L298.077 69.5686L299.818 69.6811L298.941 68.248Z" fill="#044AB4" fill-opacity="0.24"/>
<path d="M316.163 79.3782L314.774 79.2729L315.492 80.446L316.163 79.3782Z" fill="#044AB4" fill-opacity="0.24"/>
<path d="M323.734 84.3203L323.152 85.2483L324.357 85.337L323.734 84.3203Z" fill="#044AB4" fill-opacity="0.24"/>
<path d="M340.66 95.3517L339.923 95.2853L340.289 95.8846L340.66 95.3517Z" fill="#044AB4" fill-opacity="0.24"/>
<path d="M258.291 33.378L256.323 33.2352L257.311 34.8507L258.291 33.378Z" fill="#044AB4" fill-opacity="0.24"/>
<path d="M265.598 38.0469L264.617 39.52L266.602 39.6889L265.598 38.0469Z" fill="#044AB4" fill-opacity="0.24"/>
<path d="M283.092 49.1771L281.123 49.0343L282.128 50.6763L283.092 49.1771Z" fill="#044AB4" fill-opacity="0.24"/>
<path d="M290.387 53.8828L289.461 55.3314L291.36 55.4728L290.387 53.8828Z" fill="#044AB4" fill-opacity="0.24"/>
<path d="M307.834 65.0429L306.033 64.8906L306.942 66.3762L307.834 65.0429Z" fill="#044AB4" fill-opacity="0.24"/>
<path d="M315.215 69.8379L314.401 71.0696L316.044 71.193L315.215 69.8379Z" fill="#044AB4" fill-opacity="0.24"/>
<path d="M332.393 80.9547L331.119 80.8645L331.757 81.9067L332.393 80.9547Z" fill="#044AB4" fill-opacity="0.24"/>
<path d="M340.039 85.9648L339.503 86.7387L340.565 86.8246L340.039 85.9648Z" fill="#044AB4" fill-opacity="0.24"/>
<path d="M257.059 23.7695L256.067 25.2805L258.063 25.411L257.059 23.7695Z" fill="#044AB4" fill-opacity="0.24"/>
<path d="M274.612 34.8806L272.546 34.7487L273.582 36.4421L274.612 34.8806Z" fill="#044AB4" fill-opacity="0.24"/>
<path d="M281.875 39.5293L280.845 41.0908L282.911 41.2227L281.875 39.5293Z" fill="#044AB4" fill-opacity="0.24"/>
<path d="M299.381 50.7325L297.396 50.5636L298.401 52.2056L299.381 50.7325Z" fill="#044AB4" fill-opacity="0.24"/>
<path d="M306.695 55.4199L305.727 56.8543L307.668 57.0094L306.695 55.4199Z" fill="#044AB4" fill-opacity="0.24"/>
<path d="M324.075 66.5824L322.361 66.4576L323.222 67.8647L324.075 66.5824Z" fill="#044AB4" fill-opacity="0.24"/>
<path d="M331.488 71.4297L330.724 72.5725L332.27 72.7068L331.488 71.4297Z" fill="#044AB4" fill-opacity="0.24"/>
<path d="M266.093 20.6293L264.01 20.4713L265.047 22.1647L266.093 20.6293Z" fill="#044AB4" fill-opacity="0.24"/>
<path d="M273.348 25.2168L272.279 26.8293L274.432 26.9887L273.348 25.2168Z" fill="#044AB4" fill-opacity="0.24"/>
<path d="M290.952 36.4055L288.799 36.2461L289.884 38.018L290.952 36.4055Z" fill="#044AB4" fill-opacity="0.24"/>
<path d="M298.16 41.082L297.114 42.6175L299.196 42.7755L298.16 41.082Z" fill="#044AB4" fill-opacity="0.24"/>
<path d="M315.647 52.257L313.678 52.1141L314.667 53.7296L315.647 52.257Z" fill="#044AB4" fill-opacity="0.24"/>
<path d="M322.957 56.9883L322.016 58.4104L323.914 58.5518L322.957 56.9883Z" fill="#044AB4" fill-opacity="0.24"/>
<path d="M340.262 68.1448L338.705 68.0489L339.486 69.3255L340.262 68.1448Z" fill="#044AB4" fill-opacity="0.24"/>
<path d="M282.441 22.119L280.217 21.9581L281.334 23.782L282.441 22.119Z" fill="#044AB4" fill-opacity="0.24"/>
<path d="M289.609 26.7168L288.502 28.3803L290.742 28.5672L289.609 26.7168Z" fill="#044AB4" fill-opacity="0.24"/>
<path d="M307.222 37.9309L305.069 37.7715L306.153 39.5434L307.222 37.9309Z" fill="#044AB4" fill-opacity="0.24"/>
<path d="M314.441 42.5703L313.373 44.1828L315.526 44.3422L314.441 42.5703Z" fill="#044AB4" fill-opacity="0.24"/>
<path d="M331.932 53.8047L329.947 53.6358L330.952 55.2778L331.932 53.8047Z" fill="#044AB4" fill-opacity="0.24"/>
<path d="M339.242 58.5391L338.339 59.9106L340.167 60.0506L339.242 58.5391Z" fill="#044AB4" fill-opacity="0.24"/>
<path d="M281.07 12.4395L279.979 14.129L282.203 14.2899L281.07 12.4395Z" fill="#044AB4" fill-opacity="0.24"/>
<path d="M298.761 23.6176L296.44 23.4677L297.604 25.3695L298.761 23.6176Z" fill="#044AB4" fill-opacity="0.24"/>
<path d="M305.902 28.2324L304.783 29.9342L307.051 30.1088L305.902 28.2324Z" fill="#044AB4" fill-opacity="0.24"/>
<path d="M323.503 39.4836L321.35 39.3242L322.434 41.0961L323.503 39.4836Z" fill="#044AB4" fill-opacity="0.24"/>
<path d="M330.711 44.0957L329.642 45.7082L331.795 45.8676L330.711 44.0957Z" fill="#044AB4" fill-opacity="0.24"/>
<path d="M290.246 9.37216L287.909 9.19617L289.073 11.098L290.246 9.37216Z" fill="#044AB4" fill-opacity="0.24"/>
<path d="M297.367 13.8926L296.171 15.6955L298.579 15.8729L297.367 13.8926Z" fill="#044AB4" fill-opacity="0.24"/>
<path d="M315.051 25.1712L312.713 24.9952L313.894 26.9236L315.051 25.1712Z" fill="#044AB4" fill-opacity="0.24"/>
<path d="M322.168 29.7539L321.022 31.468L323.332 31.6563L322.168 29.7539Z" fill="#044AB4" fill-opacity="0.24"/>
<path d="M306.543 10.8828L304.136 10.7053L305.347 12.6857L306.543 10.8828Z" fill="#044AB4" fill-opacity="0.24"/>
<path d="M313.633 15.416L312.436 17.2194L314.861 17.4229L313.633 15.416Z" fill="#044AB4" fill-opacity="0.24"/>
<path d="M305.109 1.10547L303.863 2.99724L306.369 3.16379L305.109 1.10547Z" fill="#044AB4" fill-opacity="0.24"/>
</svg>
