<svg width="297" height="111" viewBox="0 0 297 111" fill="none" xmlns="http://www.w3.org/2000/svg">
<rect width="297" height="111" rx="8" fill="#D4D8FF"/>
<path d="M148.5 60.0781C148.5 60.6376 148.278 61.1741 147.882 61.5697C147.487 61.9653 146.95 62.1875 146.391 62.1875H144.281V74.8438C144.281 75.4032 144.059 75.9397 143.663 76.3353C143.268 76.7309 142.731 76.9531 142.172 76.9531C141.612 76.9531 141.076 76.7309 140.68 76.3353C140.285 75.9397 140.062 75.4032 140.062 74.8438V62.1875H137.953C137.394 62.1875 136.857 61.9653 136.462 61.5697C136.066 61.1741 135.844 60.6376 135.844 60.0781C135.844 59.5187 136.066 58.9822 136.462 58.5866C136.857 58.191 137.394 57.9688 137.953 57.9688H146.391C146.95 57.9688 147.487 58.191 147.882 58.5866C148.278 58.9822 148.5 59.5187 148.5 60.0781ZM131.625 57.9688C131.066 57.9688 130.529 58.191 130.133 58.5866C129.738 58.9822 129.516 59.5187 129.516 60.0781V65.3516H125.297V60.0781C125.297 59.5187 125.075 58.9822 124.679 58.5866C124.283 58.191 123.747 57.9688 123.188 57.9688C122.628 57.9688 122.092 58.191 121.696 58.5866C121.3 58.9822 121.078 59.5187 121.078 60.0781V74.8438C121.078 75.4032 121.3 75.9397 121.696 76.3353C122.092 76.7309 122.628 76.9531 123.188 76.9531C123.747 76.9531 124.283 76.7309 124.679 76.3353C125.075 75.9397 125.297 75.4032 125.297 74.8438V69.5703H129.516V74.8438C129.516 75.4032 129.738 75.9397 130.133 76.3353C130.529 76.7309 131.066 76.9531 131.625 76.9531C132.184 76.9531 132.721 76.7309 133.117 76.3353C133.512 75.9397 133.734 75.4032 133.734 74.8438V60.0781C133.734 59.5187 133.512 58.9822 133.117 58.5866C132.721 58.191 132.184 57.9688 131.625 57.9688ZM178.031 72.7344H174.867V60.0781C174.867 59.5187 174.645 58.9822 174.249 58.5866C173.854 58.191 173.317 57.9688 172.758 57.9688C172.198 57.9688 171.662 58.191 171.266 58.5866C170.871 58.9822 170.648 59.5187 170.648 60.0781V74.8438C170.648 75.4032 170.871 75.9397 171.266 76.3353C171.662 76.7309 172.198 76.9531 172.758 76.9531H178.031C178.591 76.9531 179.127 76.7309 179.523 76.3353C179.918 75.9397 180.141 75.4032 180.141 74.8438C180.141 74.2843 179.918 73.7478 179.523 73.3522C179.127 72.9566 178.591 72.7344 178.031 72.7344ZM165.939 58.0452C165.495 57.9217 165.022 57.9474 164.593 58.1184C164.164 58.2893 163.804 58.5962 163.566 58.9918L159.047 66.5249L154.528 58.9918C154.29 58.5961 153.93 58.2892 153.501 58.1181C153.073 57.947 152.6 57.9211 152.155 58.0443C151.711 58.1676 151.319 58.4333 151.039 58.8006C150.76 59.168 150.609 59.6167 150.609 60.0781V74.8438C150.609 75.4032 150.832 75.9397 151.227 76.3353C151.623 76.7309 152.159 76.9531 152.719 76.9531C153.278 76.9531 153.815 76.7309 154.21 76.3353C154.606 75.9397 154.828 75.4032 154.828 74.8438V67.693L157.238 71.7113C157.425 72.0237 157.691 72.2822 158.008 72.4617C158.325 72.6411 158.683 72.7355 159.047 72.7355C159.411 72.7355 159.769 72.6411 160.086 72.4617C160.403 72.2822 160.668 72.0237 160.856 71.7113L163.266 67.693V74.8438C163.266 75.4032 163.488 75.9397 163.883 76.3353C164.279 76.7309 164.816 76.9531 165.375 76.9531C165.934 76.9531 166.471 76.7309 166.867 76.3353C167.262 75.9397 167.484 75.4032 167.484 74.8438V60.0781C167.484 59.617 167.333 59.1685 167.054 58.8013C166.775 58.4342 166.384 58.1686 165.939 58.0452ZM169.594 51.6406C169.034 51.6406 168.498 51.4184 168.102 51.0228C167.707 50.6272 167.484 50.0907 167.484 49.5312V45.3125H154.828C154.269 45.3125 153.732 45.0903 153.337 44.6947C152.941 44.2991 152.719 43.7626 152.719 43.2031V30.5469H129.516V49.5312C129.516 50.0907 129.293 50.6272 128.898 51.0228C128.502 51.4184 127.966 51.6406 127.406 51.6406C126.847 51.6406 126.31 51.4184 125.915 51.0228C125.519 50.6272 125.297 50.0907 125.297 49.5312V30.5469C125.297 29.428 125.741 28.3549 126.533 27.5638C127.324 26.7726 128.397 26.3281 129.516 26.3281H154.828C155.105 26.3279 155.38 26.3823 155.636 26.4882C155.892 26.594 156.124 26.7493 156.321 26.9451L171.086 41.7107C171.282 41.9068 171.437 42.1395 171.543 42.3956C171.649 42.6516 171.703 42.926 171.703 43.2031V49.5312C171.703 50.0907 171.481 50.6272 171.085 51.0228C170.69 51.4184 170.153 51.6406 169.594 51.6406ZM164.502 41.0938L156.938 33.529V41.0938H164.502Z" fill="#8791EE"/>
</svg>
