<svg width="297" height="112" viewBox="0 0 297 112" fill="none" xmlns="http://www.w3.org/2000/svg">
<rect width="297" height="111.249" rx="8" fill="#DCF2EF"/>
<path d="M173.774 55.6245C182.922 42.7809 187.587 29.5069 181.1 23.0202C174.613 16.5334 161.339 21.1981 148.496 30.3455C135.652 21.1981 122.378 16.5334 115.891 23.0202C109.405 29.5069 114.069 42.7809 123.217 55.6245C114.069 68.468 109.405 81.742 115.891 88.2287C117.981 90.318 120.771 91.2495 124.022 91.2495C130.88 91.2495 139.786 87.1043 148.514 80.9034C157.205 87.1043 166.111 91.2495 172.988 91.2495C176.239 91.2495 179.033 90.3143 181.118 88.2287C187.587 81.742 182.922 68.468 173.774 55.6245ZM176.903 27.2172C179.738 30.0524 177.823 39.2407 170.03 50.7C167.565 47.6481 164.94 44.7285 162.167 41.9534C159.391 39.1839 156.472 36.5628 153.42 34.101C164.879 26.308 174.068 24.3784 176.903 27.2172ZM166.416 55.6245C163.79 58.9464 160.969 62.1099 157.97 65.0985C154.981 68.0983 151.817 70.9186 148.496 73.5446C145.174 70.9186 142.01 68.0983 139.022 65.0985C136.022 62.1099 133.201 58.9464 130.575 55.6245C135.844 48.9855 141.857 42.9728 148.496 37.7043C151.817 40.3303 154.981 43.1506 157.97 46.1504C160.969 49.139 163.79 52.3025 166.416 55.6245ZM120.088 27.2172C120.905 26.3971 122.252 25.9741 124.029 25.9741C128.416 25.9741 135.418 28.5346 143.567 34.101C140.519 36.5648 137.6 39.1858 134.824 41.9534C132.055 44.7288 129.434 47.6484 126.972 50.7C119.179 39.2407 117.253 30.0524 120.088 27.2172ZM120.088 84.0317C117.253 81.1965 119.179 72.0082 126.972 60.5489C129.437 63.6008 132.062 66.5204 134.836 69.2955C137.609 72.0628 140.525 74.6838 143.571 77.1479C132.112 84.9409 122.923 86.8705 120.088 84.0317ZM176.903 84.0317C174.068 86.8705 164.879 84.952 153.42 77.159C156.47 74.6916 159.39 72.0669 162.167 69.2955C164.936 66.5201 167.557 63.6005 170.019 60.5489C177.812 72.0082 179.738 81.1965 176.903 84.0317ZM152.949 55.6245C152.949 56.5052 152.687 57.3662 152.198 58.0985C151.709 58.8308 151.013 59.4016 150.2 59.7386C149.386 60.0756 148.491 60.1638 147.627 59.992C146.763 59.8202 145.969 59.3961 145.347 58.7733C144.724 58.1505 144.3 57.357 144.128 56.4932C143.956 55.6294 144.044 54.734 144.381 53.9203C144.718 53.1066 145.289 52.4111 146.022 51.9218C146.754 51.4325 147.615 51.1713 148.496 51.1713C149.677 51.1713 150.809 51.6405 151.644 52.4756C152.479 53.3107 152.949 54.4434 152.949 55.6245Z" fill="#48B6A7"/>
</svg>
