<svg width="12" height="10" viewBox="0 0 12 10" fill="none" xmlns="http://www.w3.org/2000/svg">
<path d="M10.8125 0.1875H1.1875C0.955436 0.1875 0.732876 0.279687 0.568782 0.443782C0.404687 0.607876 0.3125 0.830436 0.3125 1.0625V8.9375C0.3125 9.16956 0.404687 9.39212 0.568782 9.55622C0.732876 9.72031 0.955436 9.8125 1.1875 9.8125H10.8125C11.0446 9.8125 11.2671 9.72031 11.4312 9.55622C11.5953 9.39212 11.6875 9.16956 11.6875 8.9375V1.0625C11.6875 0.830436 11.5953 0.607876 11.4312 0.443782C11.2671 0.279687 11.0446 0.1875 10.8125 0.1875ZM10.8125 8.9375H1.1875V1.0625H10.8125V8.9375ZM9.0625 3.25C9.0625 3.36603 9.01641 3.47731 8.93436 3.55936C8.85231 3.64141 8.74103 3.6875 8.625 3.6875H3.375C3.25897 3.6875 3.14769 3.64141 3.06564 3.55936C2.98359 3.47731 2.9375 3.36603 2.9375 3.25C2.9375 3.13397 2.98359 3.02269 3.06564 2.94064C3.14769 2.85859 3.25897 2.8125 3.375 2.8125H8.625C8.74103 2.8125 8.85231 2.85859 8.93436 2.94064C9.01641 3.02269 9.0625 3.13397 9.0625 3.25ZM9.0625 5C9.0625 5.11603 9.01641 5.22731 8.93436 5.30936C8.85231 5.39141 8.74103 5.4375 8.625 5.4375H3.375C3.25897 5.4375 3.14769 5.39141 3.06564 5.30936C2.98359 5.22731 2.9375 5.11603 2.9375 5C2.9375 4.88397 2.98359 4.77269 3.06564 4.69064C3.14769 4.60859 3.25897 4.5625 3.375 4.5625H8.625C8.74103 4.5625 8.85231 4.60859 8.93436 4.69064C9.01641 4.77269 9.0625 4.88397 9.0625 5ZM9.0625 6.75C9.0625 6.86603 9.01641 6.97731 8.93436 7.05936C8.85231 7.14141 8.74103 7.1875 8.625 7.1875H3.375C3.25897 7.1875 3.14769 7.14141 3.06564 7.05936C2.98359 6.97731 2.9375 6.86603 2.9375 6.75C2.9375 6.63397 2.98359 6.52269 3.06564 6.44064C3.14769 6.35859 3.25897 6.3125 3.375 6.3125H8.625C8.74103 6.3125 8.85231 6.35859 8.93436 6.44064C9.01641 6.52269 9.0625 6.63397 9.0625 6.75Z" fill="#797979"/>
</svg>
