<svg width="15" height="15" viewBox="0 0 15 15" fill="none" xmlns="http://www.w3.org/2000/svg">
<path d="M13.5481 3.09135H10.9339V2.56851C10.9339 2.15251 10.7686 1.75356 10.4745 1.45941C10.1803 1.16525 9.78138 1 9.36539 1H6.22837C5.81237 1 5.41341 1.16525 5.11926 1.45941C4.82511 1.75356 4.65986 2.15251 4.65986 2.56851V3.09135H2.04567C1.76834 3.09135 1.50237 3.20151 1.30627 3.39762C1.11017 3.59372 1 3.85969 1 4.13702V12.5024C1 12.7797 1.11017 13.0457 1.30627 13.2418C1.50237 13.4379 1.76834 13.5481 2.04567 13.5481H13.5481C13.8254 13.5481 14.0914 13.4379 14.2875 13.2418C14.4836 13.0457 14.5938 12.7797 14.5938 12.5024V4.13702C14.5938 3.85969 14.4836 3.59372 14.2875 3.39762C14.0914 3.20151 13.8254 3.09135 13.5481 3.09135ZM5.70553 2.56851C5.70553 2.42984 5.76061 2.29686 5.85866 2.19881C5.95672 2.10076 6.0897 2.04567 6.22837 2.04567H9.36539C9.50405 2.04567 9.63704 2.10076 9.73509 2.19881C9.83314 2.29686 9.88822 2.42984 9.88822 2.56851V3.09135H5.70553V2.56851ZM13.5481 4.13702V6.85642C11.7834 7.81699 9.80608 8.32007 7.79688 8.31971C5.78775 8.32008 3.81052 7.81723 2.04567 6.85708V4.13702H13.5481ZM13.5481 12.5024H2.04567V8.03477C3.83634 8.91065 5.80347 9.36577 7.79688 9.36538C9.79031 9.36543 11.7574 8.91009 13.5481 8.03411V12.5024ZM6.22837 6.7512C6.22837 6.61254 6.28345 6.47955 6.3815 6.3815C6.47955 6.28345 6.61254 6.22836 6.7512 6.22836H8.84255C8.98121 6.22836 9.1142 6.28345 9.21225 6.3815C9.3103 6.47955 9.36539 6.61254 9.36539 6.7512C9.36539 6.88987 9.3103 7.02285 9.21225 7.1209C9.1142 7.21895 8.98121 7.27404 8.84255 7.27404H6.7512C6.61254 7.27404 6.47955 7.21895 6.3815 7.1209C6.28345 7.02285 6.22837 6.88987 6.22837 6.7512Z" fill="#616161"/>
</svg>
