<svg width="32" height="29" viewBox="0 0 32 29" fill="none" xmlns="http://www.w3.org/2000/svg">
<rect y="0.398438" width="32" height="28" rx="14" fill="#044AB4"/>
<path d="M16.0346 19.5277C15.4252 19.5277 14.882 19.4231 14.405 19.2138C13.931 19.0045 13.554 18.7137 13.274 18.3413C12.997 17.9658 12.8462 17.5303 12.8216 17.0348H13.9849C14.0095 17.3395 14.1142 17.6026 14.2988 17.8242C14.4835 18.0427 14.7251 18.212 15.0236 18.332C15.3221 18.4521 15.653 18.5121 16.0162 18.5121C16.4224 18.5121 16.7825 18.4413 17.0964 18.2997C17.4103 18.1581 17.6565 17.9612 17.835 17.7088C18.0136 17.4564 18.1028 17.1641 18.1028 16.8317C18.1028 16.4839 18.0166 16.1777 17.8443 15.913C17.6719 15.6452 17.4196 15.436 17.0872 15.2852C16.7548 15.1344 16.3485 15.0589 15.8684 15.0589H15.1113V14.0433H15.8684C16.2439 14.0433 16.5732 13.9756 16.8564 13.8402C17.1426 13.7048 17.3657 13.514 17.5257 13.2678C17.6889 13.0215 17.7704 12.7322 17.7704 12.3999C17.7704 12.0798 17.6996 11.8013 17.5581 11.5643C17.4165 11.3273 17.2164 11.1426 16.9579 11.0103C16.7025 10.878 16.4009 10.8118 16.0531 10.8118C15.7269 10.8118 15.4191 10.8718 15.1298 10.9918C14.8436 11.1088 14.6097 11.2796 14.4281 11.5043C14.2465 11.7259 14.148 11.9936 14.1326 12.3075H13.0247C13.0431 11.812 13.1924 11.3781 13.4725 11.0057C13.7525 10.6302 14.1188 10.3378 14.5712 10.1286C15.0267 9.91927 15.5268 9.81463 16.0716 9.81463C16.6563 9.81463 17.158 9.93312 17.5765 10.1701C17.9951 10.404 18.3167 10.7133 18.5414 11.098C18.766 11.4827 18.8784 11.8982 18.8784 12.3445C18.8784 12.8769 18.7383 13.3308 18.4583 13.7063C18.1813 14.0818 17.8043 14.3419 17.3272 14.4865V14.5604C17.9243 14.6589 18.3906 14.9128 18.726 15.3221C19.0615 15.7283 19.2292 16.2315 19.2292 16.8317C19.2292 17.3456 19.0892 17.8073 18.8091 18.2166C18.5321 18.6229 18.1536 18.9429 17.6735 19.1768C17.1934 19.4107 16.6471 19.5277 16.0346 19.5277Z" fill="white"/>
</svg>
