<svg width="14" height="14" viewBox="0 0 14 14" fill="none" xmlns="http://www.w3.org/2000/svg">
<path d="M11.375 4.375C11.375 4.49103 11.3289 4.60231 11.2469 4.68436C11.1648 4.76641 11.0535 4.8125 10.9375 4.8125H9.1793C9.18422 4.88469 9.1875 4.95742 9.1875 5.03125C9.18649 5.90118 8.84046 6.73519 8.22533 7.35032C7.61019 7.96546 6.77618 8.31149 5.90625 8.3125H5.06898L9.04422 11.9262C9.08753 11.9647 9.12278 12.0113 9.14793 12.0634C9.17309 12.1156 9.18764 12.1722 9.19075 12.23C9.19386 12.2878 9.18547 12.3457 9.16605 12.4002C9.14664 12.4548 9.11659 12.5049 9.07766 12.5478C9.03872 12.5906 8.99166 12.6253 8.93922 12.6498C8.88678 12.6744 8.82999 12.6882 8.77215 12.6906C8.7143 12.6931 8.65655 12.684 8.60225 12.6639C8.54794 12.6438 8.49816 12.6132 8.45578 12.5737L3.64328 8.19875C3.57794 8.13936 3.5321 8.06158 3.51178 7.97565C3.49147 7.88971 3.49763 7.79964 3.52947 7.71728C3.5613 7.63491 3.61731 7.56411 3.69014 7.51417C3.76296 7.46424 3.8492 7.43751 3.9375 7.4375H5.90625C6.5442 7.43678 7.15582 7.18303 7.60693 6.73193C8.05803 6.28082 8.31178 5.6692 8.3125 5.03125C8.3125 4.95742 8.30867 4.88469 8.30211 4.8125H3.9375C3.82147 4.8125 3.71019 4.76641 3.62814 4.68436C3.54609 4.60231 3.5 4.49103 3.5 4.375C3.5 4.25897 3.54609 4.14769 3.62814 4.06564C3.71019 3.98359 3.82147 3.9375 3.9375 3.9375H8.04836C7.84686 3.54263 7.54019 3.21111 7.16219 2.9795C6.78419 2.7479 6.34956 2.62522 5.90625 2.625H3.9375C3.82147 2.625 3.71019 2.57891 3.62814 2.49686C3.54609 2.41481 3.5 2.30353 3.5 2.1875C3.5 2.07147 3.54609 1.96019 3.62814 1.87814C3.71019 1.79609 3.82147 1.75 3.9375 1.75H10.9375C11.0535 1.75 11.1648 1.79609 11.2469 1.87814C11.3289 1.96019 11.375 2.07147 11.375 2.1875C11.375 2.30353 11.3289 2.41481 11.2469 2.49686C11.1648 2.57891 11.0535 2.625 10.9375 2.625H8.13422C8.52447 2.98612 8.82134 3.43649 8.99937 3.9375H10.9375C11.0535 3.9375 11.1648 3.98359 11.2469 4.06564C11.3289 4.14769 11.375 4.25897 11.375 4.375Z" fill="#404040"/>
</svg>
