<svg width="32" height="28" viewBox="0 0 32 28" fill="none" xmlns="http://www.w3.org/2000/svg">
<rect width="32" height="28" rx="14" fill="#E6BC20"/>
<path d="M15.9786 19.1293C15.437 19.1293 14.9492 19.0215 14.5152 18.8061C14.0813 18.5907 13.7335 18.2952 13.4719 17.9197C13.2103 17.5443 13.0672 17.1165 13.0426 16.6364H14.1505C14.1936 17.0642 14.3875 17.4181 14.7322 17.6982C15.08 17.9751 15.4955 18.1136 15.9786 18.1136C16.3664 18.1136 16.7111 18.0228 17.0127 17.8413C17.3174 17.6597 17.5559 17.4104 17.7283 17.0934C17.9037 16.7733 17.9914 16.4117 17.9914 16.0085C17.9914 15.5961 17.9006 15.2283 17.7191 14.9052C17.5406 14.579 17.2943 14.322 16.9804 14.1342C16.6665 13.9465 16.308 13.8511 15.9048 13.848C15.6155 13.8449 15.3185 13.8896 15.0138 13.9819C14.7091 14.0711 14.4583 14.1866 14.2613 14.3281L13.1903 14.1989L13.7627 9.54545H18.6747V10.5611H14.723L14.3906 13.3494H14.446C14.6399 13.1955 14.883 13.0678 15.1754 12.9663C15.4678 12.8647 15.7724 12.8139 16.0894 12.8139C16.668 12.8139 17.1835 12.9524 17.636 13.2294C18.0915 13.5033 18.4485 13.8788 18.707 14.3558C18.9686 14.8329 19.0994 15.3776 19.0994 15.9901C19.0994 16.5933 18.964 17.1319 18.6931 17.6058C18.4254 18.0767 18.0561 18.4491 17.5852 18.723C17.1143 18.9938 16.5788 19.1293 15.9786 19.1293Z" fill="black"/>
</svg>
