<svg width="638" height="287" viewBox="0 0 638 287" fill="none" xmlns="http://www.w3.org/2000/svg">
<path d="M44.8833 128.955C44.3203 128.955 43.7868 128.854 43.2826 128.653C42.7869 128.451 42.3836 128.149 42.0727 127.745C41.7702 127.333 41.619 126.825 41.619 126.22C41.619 125.758 41.7198 125.338 41.9215 124.96C42.1315 124.582 42.4424 124.279 42.8541 124.052C42.602 123.876 42.4004 123.653 42.2491 123.384C42.1063 123.116 42.0349 122.796 42.0349 122.427C42.0349 121.897 42.1693 121.448 42.4382 121.078C42.7071 120.708 43.06 120.423 43.4969 120.221C43.9338 120.019 44.3959 119.918 44.8833 119.918C45.3958 119.918 45.8663 120.024 46.2948 120.234C46.7233 120.435 47.0678 120.725 47.3283 121.103C47.5888 121.473 47.719 121.918 47.719 122.439C47.719 122.809 47.6476 123.128 47.5048 123.397C47.3619 123.658 47.1645 123.876 46.9124 124.052C47.3241 124.279 47.6308 124.582 47.8324 124.96C48.0425 125.338 48.1475 125.758 48.1475 126.22C48.1475 126.825 47.9921 127.333 47.6812 127.745C47.3787 128.149 46.9796 128.451 46.4839 128.653C45.9882 128.854 45.4546 128.955 44.8833 128.955ZM44.8833 127.468C45.2109 127.468 45.5008 127.418 45.7529 127.317C46.0134 127.207 46.215 127.048 46.3579 126.838C46.5091 126.628 46.5847 126.371 46.5847 126.069C46.5847 125.766 46.5091 125.514 46.3579 125.313C46.215 125.103 46.0134 124.947 45.7529 124.846C45.5008 124.737 45.2109 124.683 44.8833 124.683C44.5556 124.683 44.2615 124.737 44.001 124.846C43.7489 124.947 43.5473 125.103 43.3961 125.313C43.2532 125.514 43.1818 125.766 43.1818 126.069C43.1818 126.371 43.2532 126.628 43.3961 126.838C43.5473 127.048 43.7531 127.207 44.0136 127.317C44.2741 127.418 44.564 127.468 44.8833 127.468ZM44.8959 123.611C45.274 123.611 45.5806 123.515 45.8159 123.321C46.0512 123.128 46.1688 122.872 46.1688 122.553C46.1688 122.208 46.0554 121.935 45.8285 121.733C45.6016 121.523 45.2866 121.418 44.8833 121.418C44.6312 121.418 44.4085 121.465 44.2153 121.557C44.022 121.641 43.8708 121.767 43.7615 121.935C43.6607 122.095 43.6103 122.292 43.6103 122.527C43.6103 122.863 43.7279 123.128 43.9632 123.321C44.1985 123.515 44.5094 123.611 44.8959 123.611ZM51.8601 128.943C51.2047 128.943 50.6334 128.825 50.1461 128.59C49.6587 128.346 49.2764 128.006 48.9991 127.569C48.7303 127.132 48.5958 126.624 48.5958 126.044L50.1461 125.956C50.1461 126.409 50.3057 126.771 50.625 127.039C50.9527 127.308 51.3854 127.443 51.9231 127.443C52.2676 127.443 52.5617 127.392 52.8054 127.291C53.049 127.182 53.2381 127.031 53.3725 126.838C53.507 126.636 53.5742 126.401 53.5742 126.132C53.5742 125.897 53.5238 125.699 53.4229 125.54C53.3305 125.372 53.1877 125.237 52.9944 125.136C52.8096 125.035 52.5827 124.964 52.3138 124.922C52.0534 124.872 51.7551 124.846 51.419 124.846V123.624C51.6627 123.624 51.8853 123.603 52.087 123.561C52.2886 123.519 52.4609 123.456 52.6037 123.372C52.755 123.279 52.8684 123.162 52.944 123.019C53.0196 122.868 53.0574 122.691 53.0574 122.49C53.0574 122.263 53.007 122.074 52.9062 121.922C52.8138 121.763 52.6751 121.641 52.4903 121.557C52.3138 121.473 52.0996 121.431 51.8475 121.431C51.4442 121.431 51.1249 121.54 50.8897 121.759C50.6544 121.977 50.5326 122.271 50.5242 122.641L48.9739 122.54C48.9739 122.036 49.1 121.586 49.352 121.191C49.6041 120.797 49.9486 120.49 50.3855 120.271C50.8308 120.045 51.3392 119.931 51.9105 119.931C52.4483 119.931 52.9188 120.036 53.3221 120.246C53.7338 120.448 54.0531 120.729 54.28 121.091C54.5152 121.444 54.6329 121.855 54.6329 122.326C54.6329 122.536 54.6035 122.729 54.5446 122.906C54.4942 123.074 54.4186 123.233 54.3178 123.384C54.2254 123.527 54.1119 123.653 53.9775 123.763C53.8431 123.872 53.696 123.968 53.5364 124.052C53.7632 124.128 53.9733 124.233 54.1665 124.367C54.3682 124.494 54.5404 124.645 54.6833 124.821C54.8261 124.989 54.9354 125.187 55.011 125.414C55.095 125.632 55.137 125.876 55.137 126.145C55.137 126.699 54.9984 127.186 54.7211 127.607C54.4438 128.027 54.0615 128.354 53.5742 128.59C53.0869 128.825 52.5155 128.943 51.8601 128.943ZM60.4376 128.829L58.6353 125.993L57.6649 127.077V125.124L60.0469 122.616H62.0383L59.7822 124.935L62.3029 128.829H60.4376ZM56.2281 128.829V120.045H57.8035V128.829H56.2281Z" fill="#8189A2"/>
<path d="M42.4508 175.725L46.4839 167.797L46.925 168.402H41.7072V166.94H48.0467V168.087L44.1901 175.725H42.4508ZM51.8979 175.851C51.3434 175.851 50.835 175.733 50.3729 175.498C49.9192 175.262 49.5453 174.943 49.2512 174.54C48.9655 174.137 48.7807 173.683 48.6967 173.179L50.2343 172.914C50.2679 173.149 50.3477 173.376 50.4737 173.595C50.5998 173.813 50.7804 173.994 51.0157 174.137C51.251 174.279 51.5366 174.351 51.8727 174.351C52.2424 174.351 52.5407 174.267 52.7676 174.099C53.0028 173.931 53.1751 173.716 53.2843 173.456C53.4019 173.196 53.4608 172.927 53.4608 172.649C53.4608 172.381 53.4061 172.133 53.2969 171.906C53.1961 171.679 53.028 171.494 52.7928 171.351C52.5659 171.208 52.2718 171.137 51.9105 171.137C51.5576 171.137 51.2594 171.213 51.0157 171.364C50.772 171.515 50.5788 171.708 50.4359 171.944L48.9613 171.565L49.8184 166.94H54.7337V168.402H50.3981L51.23 167.734L50.6754 170.683L50.1713 170.545C50.499 170.183 50.8308 169.948 51.1669 169.839C51.5114 169.721 51.8307 169.662 52.1248 169.662C52.7214 169.662 53.2423 169.801 53.6876 170.078C54.1413 170.356 54.4942 170.721 54.7463 171.175C54.9984 171.629 55.1244 172.12 55.1244 172.649C55.1244 173.069 55.0446 173.473 54.8849 173.859C54.7253 174.237 54.5026 174.578 54.217 174.88C53.9313 175.174 53.591 175.41 53.1961 175.586C52.8012 175.762 52.3685 175.851 51.8979 175.851ZM60.4376 175.725L58.6353 172.889L57.6649 173.973V172.019L60.0469 169.511H62.0383L59.7822 171.83L62.3029 175.725H60.4376ZM56.2281 175.725V166.94H57.8035V175.725H56.2281Z" fill="#8189A2"/>
<path d="M45.1167 214.381L42.9363 217.696L42.7473 217.457C42.8901 217.398 43.0372 217.352 43.1884 217.318C43.3397 217.276 43.4909 217.255 43.6421 217.255C44.2051 217.255 44.7134 217.389 45.1671 217.658C45.6209 217.919 45.978 218.272 46.2384 218.717C46.4989 219.162 46.6291 219.666 46.6291 220.229C46.6291 220.826 46.4821 221.355 46.188 221.817C45.9023 222.28 45.5158 222.641 45.0285 222.901C44.5496 223.162 44.016 223.292 43.4279 223.292C42.8397 223.292 42.2978 223.162 41.802 222.901C41.3147 222.641 40.924 222.28 40.6299 221.817C40.3358 221.355 40.1888 220.83 40.1888 220.242C40.1888 219.948 40.2308 219.662 40.3148 219.385C40.4073 219.099 40.5333 218.835 40.6929 218.591L43.3018 214.381H45.1167ZM43.4279 218.641C43.1254 218.641 42.8523 218.709 42.6087 218.843C42.365 218.969 42.1675 219.15 42.0163 219.385C41.8735 219.62 41.802 219.902 41.802 220.229C41.802 220.54 41.8735 220.813 42.0163 221.049C42.1591 221.284 42.3524 221.469 42.5961 221.603C42.8481 221.729 43.1254 221.792 43.4279 221.792C43.722 221.792 43.9908 221.729 44.2345 221.603C44.4782 221.469 44.6714 221.284 44.8143 221.049C44.9655 220.813 45.0411 220.536 45.0411 220.217C45.0411 219.898 44.9697 219.62 44.8269 219.385C44.684 219.15 44.4908 218.969 44.2471 218.843C44.0034 218.709 43.7304 218.641 43.4279 218.641ZM48.1361 223.166L52.1692 215.238L52.6103 215.843H47.3925V214.381H53.732V215.528L49.8754 223.166H48.1361ZM56.2347 220.519V218.452L60.0913 214.381H62.2843L56.2347 220.519ZM54.9366 223.166V214.381H56.5624V223.166H54.9366ZM60.3812 223.166L57.6085 218.742L58.8184 217.608L62.3095 223.166H60.3812Z" fill="#8189A2"/>
<path d="M70.8516 218.666H594.375" stroke="#C9CDD4" stroke-width="1.05028"/>
<path d="M68.5286 240.306L62.2016 237.823V236.185L68.5286 233.702V235.025L62.7058 237.244V236.752L68.5286 238.983V240.306ZM72.3168 240.117V233.173L72.7705 233.942H70.0734V232.706H71.4345C71.7202 232.706 71.9387 232.643 72.0899 232.517C72.2411 232.383 72.3168 232.156 72.3168 231.837V231.333H73.8922V240.117H72.3168ZM80.5006 242.688L81.7609 239.638L79.4167 233.904H81.1308L82.5928 238.075L84.08 233.904H85.7688L82.2021 242.688H80.5006ZM86.7413 240.117V233.904H88.3167V235.593L88.0772 235.618C88.1024 235.256 88.2117 234.937 88.4049 234.66C88.5982 234.383 88.8334 234.168 89.1107 234.017C89.3964 233.857 89.6863 233.778 89.9803 233.778C90.1904 233.778 90.3878 233.807 90.5727 233.866C90.7659 233.916 90.9634 234.005 91.1651 234.131L90.4089 235.542C90.3164 235.492 90.1988 235.446 90.056 235.404C89.9131 235.362 89.7703 235.34 89.6274 235.34C89.4594 235.34 89.2956 235.37 89.1359 235.429C88.9847 235.488 88.846 235.58 88.72 235.706C88.6024 235.832 88.5057 236 88.4301 236.21C88.3965 236.328 88.3671 236.479 88.3419 236.664C88.3251 236.84 88.3167 237.101 88.3167 237.445V240.117H86.7413Z" fill="#8189A2"/>
<path d="M173.723 242V235.056L174.176 235.824H171.479V234.589H172.84C173.126 234.589 173.345 234.526 173.496 234.4C173.647 234.266 173.723 234.039 173.723 233.72V233.215H175.298V242H173.723ZM177.864 238.862V237.69H180.989V238.862H177.864ZM185.466 242V239.933H181.584V238.723L185.667 233.215H187.041V238.471H188.44V239.933H187.041V242H185.466ZM182.806 239.013L182.781 238.471H185.466V234.766L185.68 234.98L182.806 239.013ZM193.082 244.571L194.343 241.521L191.998 235.787H193.712L195.174 239.958L196.662 235.787H198.35L194.784 244.571H193.082ZM199.323 242V235.787H200.898V237.475L200.659 237.501C200.684 237.139 200.793 236.82 200.987 236.543C201.18 236.265 201.415 236.051 201.692 235.9C201.978 235.74 202.268 235.66 202.562 235.66C202.772 235.66 202.969 235.69 203.154 235.749C203.348 235.799 203.545 235.887 203.747 236.013L202.99 237.425C202.898 237.375 202.78 237.328 202.638 237.286C202.495 237.244 202.352 237.223 202.209 237.223C202.041 237.223 201.877 237.253 201.718 237.312C201.566 237.37 201.428 237.463 201.302 237.589C201.184 237.715 201.087 237.883 201.012 238.093C200.978 238.211 200.949 238.362 200.924 238.547C200.907 238.723 200.898 238.984 200.898 239.328V242H199.323ZM206.672 242.126C206.21 242.126 205.807 242.059 205.462 241.924C205.118 241.79 204.824 241.622 204.58 241.42C204.345 241.219 204.156 241.025 204.013 240.84L205.084 239.908C205.227 240.143 205.429 240.362 205.689 240.563C205.958 240.756 206.29 240.853 206.685 240.853C206.996 240.853 207.235 240.794 207.403 240.677C207.579 240.551 207.668 240.395 207.668 240.21C207.668 240.059 207.613 239.937 207.504 239.845C207.395 239.744 207.248 239.664 207.063 239.605C206.878 239.538 206.672 239.475 206.445 239.416C206.21 239.349 205.966 239.273 205.714 239.189C205.462 239.105 205.231 238.996 205.021 238.862C204.811 238.719 204.639 238.538 204.504 238.32C204.378 238.101 204.315 237.828 204.315 237.501C204.315 236.954 204.529 236.513 204.958 236.177C205.386 235.833 205.954 235.66 206.659 235.66C207.155 235.66 207.605 235.761 208.008 235.963C208.411 236.156 208.731 236.438 208.966 236.807L207.995 237.576C207.844 237.333 207.642 237.152 207.39 237.034C207.147 236.908 206.886 236.845 206.609 236.845C206.365 236.845 206.164 236.891 206.004 236.984C205.853 237.076 205.777 237.202 205.777 237.362C205.777 237.471 205.811 237.564 205.878 237.639C205.954 237.715 206.071 237.782 206.231 237.841C206.399 237.891 206.617 237.95 206.886 238.017C207.138 238.076 207.399 238.148 207.668 238.232C207.937 238.316 208.189 238.429 208.424 238.572C208.659 238.715 208.848 238.904 208.991 239.139C209.134 239.374 209.205 239.673 209.205 240.034C209.205 240.446 209.1 240.811 208.89 241.13C208.68 241.441 208.386 241.685 208.008 241.861C207.63 242.038 207.185 242.126 206.672 242.126Z" fill="#8189A2"/>
<path d="M612.792 221.273L613.422 10.0148L460 51L315.5 107L70.7372 219.657L612.792 221.273Z" fill="url(#paint0_linear_1450_9053)"/>
<path d="M305.798 242.126C305.244 242.126 304.735 242.008 304.273 241.773C303.82 241.538 303.446 241.219 303.152 240.815C302.866 240.412 302.681 239.958 302.597 239.454L304.135 239.189C304.168 239.425 304.248 239.652 304.374 239.87C304.5 240.088 304.681 240.269 304.916 240.412C305.151 240.555 305.437 240.626 305.773 240.626C306.143 240.626 306.441 240.542 306.668 240.374C306.903 240.206 307.075 239.992 307.185 239.731C307.302 239.471 307.361 239.202 307.361 238.925C307.361 238.656 307.307 238.408 307.197 238.181C307.096 237.954 306.928 237.769 306.693 237.627C306.466 237.484 306.172 237.412 305.811 237.412C305.458 237.412 305.16 237.488 304.916 237.639C304.672 237.79 304.479 237.984 304.336 238.219L302.862 237.841L303.719 233.215H308.634V234.677H304.299L305.13 234.009L304.576 236.959L304.072 236.82C304.399 236.459 304.731 236.223 305.067 236.114C305.412 235.997 305.731 235.938 306.025 235.938C306.622 235.938 307.143 236.076 307.588 236.354C308.042 236.631 308.395 236.996 308.647 237.45C308.899 237.904 309.025 238.395 309.025 238.925C309.025 239.345 308.945 239.748 308.785 240.135C308.626 240.513 308.403 240.853 308.117 241.156C307.832 241.45 307.491 241.685 307.096 241.861C306.702 242.038 306.269 242.126 305.798 242.126ZM309.864 238.862V237.69H312.989V238.862H309.864ZM315.31 242L317.491 238.685L317.68 238.925C317.537 238.984 317.39 239.034 317.239 239.076C317.087 239.11 316.936 239.126 316.785 239.126C316.222 239.126 315.714 238.996 315.26 238.736C314.806 238.467 314.445 238.11 314.176 237.664C313.916 237.219 313.785 236.715 313.785 236.152C313.785 235.555 313.932 235.026 314.226 234.564C314.521 234.102 314.911 233.741 315.399 233.48C315.886 233.22 316.419 233.089 316.999 233.089C317.596 233.089 318.138 233.22 318.625 233.48C319.112 233.741 319.499 234.102 319.785 234.564C320.079 235.026 320.226 235.551 320.226 236.139C320.226 236.425 320.184 236.711 320.1 236.996C320.016 237.274 319.894 237.538 319.734 237.79L317.113 242H315.31ZM316.999 237.74C317.302 237.74 317.575 237.677 317.818 237.551C318.062 237.417 318.255 237.232 318.398 236.996C318.549 236.761 318.625 236.48 318.625 236.152C318.625 235.833 318.549 235.56 318.398 235.333C318.255 235.098 318.062 234.917 317.818 234.791C317.575 234.656 317.302 234.589 316.999 234.589C316.705 234.589 316.432 234.656 316.18 234.791C315.936 234.917 315.743 235.098 315.6 235.333C315.457 235.56 315.386 235.837 315.386 236.165C315.386 236.476 315.457 236.753 315.6 236.996C315.743 237.232 315.936 237.417 316.18 237.551C316.424 237.677 316.697 237.74 316.999 237.74ZM325.082 244.571L326.343 241.521L323.998 235.787H325.712L327.174 239.958L328.662 235.787H330.35L326.784 244.571H325.082ZM331.323 242V235.787H332.898V237.475L332.659 237.501C332.684 237.139 332.793 236.82 332.987 236.543C333.18 236.265 333.415 236.051 333.692 235.9C333.978 235.74 334.268 235.66 334.562 235.66C334.772 235.66 334.969 235.69 335.154 235.749C335.348 235.799 335.545 235.887 335.747 236.013L334.99 237.425C334.898 237.375 334.78 237.328 334.638 237.286C334.495 237.244 334.352 237.223 334.209 237.223C334.041 237.223 333.877 237.253 333.718 237.312C333.566 237.37 333.428 237.463 333.302 237.589C333.184 237.715 333.087 237.883 333.012 238.093C332.978 238.211 332.949 238.362 332.924 238.547C332.907 238.723 332.898 238.984 332.898 239.328V242H331.323ZM338.672 242.126C338.21 242.126 337.807 242.059 337.462 241.924C337.118 241.79 336.824 241.622 336.58 241.42C336.345 241.219 336.156 241.025 336.013 240.84L337.084 239.908C337.227 240.143 337.429 240.362 337.689 240.563C337.958 240.756 338.29 240.853 338.685 240.853C338.996 240.853 339.235 240.794 339.403 240.677C339.579 240.551 339.668 240.395 339.668 240.21C339.668 240.059 339.613 239.937 339.504 239.845C339.395 239.744 339.248 239.664 339.063 239.605C338.878 239.538 338.672 239.475 338.445 239.416C338.21 239.349 337.966 239.273 337.714 239.189C337.462 239.105 337.231 238.996 337.021 238.862C336.811 238.719 336.639 238.538 336.504 238.32C336.378 238.101 336.315 237.828 336.315 237.501C336.315 236.954 336.529 236.513 336.958 236.177C337.386 235.833 337.954 235.66 338.659 235.66C339.155 235.66 339.605 235.761 340.008 235.963C340.411 236.156 340.731 236.438 340.966 236.807L339.995 237.576C339.844 237.333 339.642 237.152 339.39 237.034C339.147 236.908 338.886 236.845 338.609 236.845C338.365 236.845 338.164 236.891 338.004 236.984C337.853 237.076 337.777 237.202 337.777 237.362C337.777 237.471 337.811 237.564 337.878 237.639C337.954 237.715 338.071 237.782 338.231 237.841C338.399 237.891 338.617 237.95 338.886 238.017C339.138 238.076 339.399 238.148 339.668 238.232C339.937 238.316 340.189 238.429 340.424 238.572C340.659 238.715 340.848 238.904 340.991 239.139C341.134 239.374 341.205 239.673 341.205 240.034C341.205 240.446 341.1 240.811 340.89 241.13C340.68 241.441 340.386 241.685 340.008 241.861C339.63 242.038 339.185 242.126 338.672 242.126Z" fill="#8189A2"/>
<path d="M424.67 242V235.056L425.124 235.824H422.427V234.589H423.788C424.074 234.589 424.292 234.526 424.443 234.4C424.595 234.266 424.67 234.039 424.67 233.72V233.215H426.246V242H424.67ZM431.849 242.113C431.303 242.113 430.845 242.017 430.475 241.824C430.105 241.63 429.807 241.374 429.58 241.055C429.353 240.727 429.181 240.366 429.063 239.971C428.954 239.576 428.879 239.168 428.837 238.748C428.795 238.328 428.774 237.933 428.774 237.564C428.774 237.202 428.79 236.82 428.824 236.417C428.866 236.005 428.942 235.602 429.051 235.207C429.168 234.812 429.341 234.455 429.568 234.135C429.794 233.816 430.088 233.56 430.45 233.367C430.819 233.173 431.282 233.077 431.836 233.077C432.382 233.077 432.836 233.173 433.197 233.367C433.567 233.552 433.865 233.804 434.092 234.123C434.319 234.442 434.487 234.799 434.596 235.194C434.714 235.589 434.794 235.992 434.836 236.404C434.878 236.807 434.899 237.194 434.899 237.564C434.899 237.95 434.878 238.353 434.836 238.774C434.794 239.194 434.714 239.601 434.596 239.996C434.479 240.391 434.306 240.748 434.08 241.067C433.853 241.387 433.559 241.643 433.197 241.836C432.836 242.021 432.386 242.113 431.849 242.113ZM431.849 240.614C432.244 240.614 432.546 240.479 432.756 240.21C432.966 239.933 433.109 239.568 433.185 239.114C433.26 238.66 433.298 238.16 433.298 237.614C433.298 237.051 433.256 236.543 433.172 236.089C433.096 235.627 432.954 235.261 432.744 234.993C432.534 234.724 432.231 234.589 431.836 234.589C431.525 234.589 431.273 234.669 431.08 234.829C430.887 234.988 430.74 235.207 430.639 235.484C430.546 235.761 430.479 236.085 430.437 236.455C430.404 236.816 430.387 237.202 430.387 237.614C430.387 238.009 430.404 238.387 430.437 238.748C430.479 239.11 430.551 239.429 430.651 239.706C430.752 239.983 430.899 240.206 431.093 240.374C431.286 240.534 431.538 240.614 431.849 240.614ZM435.864 238.862V237.69H438.989V238.862H435.864ZM442.898 242V235.056L443.352 235.824H440.655V234.589H442.016C442.302 234.589 442.52 234.526 442.672 234.4C442.823 234.266 442.898 234.039 442.898 233.72V233.215H444.474V242H442.898ZM448.363 242L450.543 238.685L450.732 238.925C450.589 238.984 450.442 239.034 450.291 239.076C450.14 239.11 449.989 239.126 449.837 239.126C449.274 239.126 448.766 238.996 448.312 238.736C447.859 238.467 447.497 238.11 447.229 237.664C446.968 237.219 446.838 236.715 446.838 236.152C446.838 235.555 446.985 235.026 447.279 234.564C447.573 234.102 447.964 233.741 448.451 233.48C448.938 233.22 449.472 233.089 450.052 233.089C450.648 233.089 451.19 233.22 451.678 233.48C452.165 233.741 452.551 234.102 452.837 234.564C453.131 235.026 453.278 235.551 453.278 236.139C453.278 236.425 453.236 236.711 453.152 236.996C453.068 237.274 452.946 237.538 452.787 237.79L450.165 242H448.363ZM450.052 237.74C450.354 237.74 450.627 237.677 450.871 237.551C451.115 237.417 451.308 237.232 451.451 236.996C451.602 236.761 451.678 236.48 451.678 236.152C451.678 235.833 451.602 235.56 451.451 235.333C451.308 235.098 451.115 234.917 450.871 234.791C450.627 234.656 450.354 234.589 450.052 234.589C449.758 234.589 449.485 234.656 449.232 234.791C448.989 234.917 448.796 235.098 448.653 235.333C448.51 235.56 448.438 235.837 448.438 236.165C448.438 236.476 448.51 236.753 448.653 236.996C448.796 237.232 448.989 237.417 449.232 237.551C449.476 237.677 449.749 237.74 450.052 237.74ZM458.135 244.571L459.395 241.521L457.051 235.787H458.765L460.227 239.958L461.714 235.787H463.403L459.836 244.571H458.135ZM464.375 242V235.787H465.951V237.475L465.711 237.501C465.737 237.139 465.846 236.82 466.039 236.543C466.232 236.265 466.468 236.051 466.745 235.9C467.03 235.74 467.32 235.66 467.614 235.66C467.824 235.66 468.022 235.69 468.207 235.749C468.4 235.799 468.598 235.887 468.799 236.013L468.043 237.425C467.951 237.375 467.833 237.328 467.69 237.286C467.547 237.244 467.404 237.223 467.262 237.223C467.094 237.223 466.93 237.253 466.77 237.312C466.619 237.37 466.48 237.463 466.354 237.589C466.236 237.715 466.14 237.883 466.064 238.093C466.031 238.211 466.001 238.362 465.976 238.547C465.959 238.723 465.951 238.984 465.951 239.328V242H464.375ZM471.725 242.126C471.262 242.126 470.859 242.059 470.515 241.924C470.17 241.79 469.876 241.622 469.632 241.42C469.397 241.219 469.208 241.025 469.065 240.84L470.136 239.908C470.279 240.143 470.481 240.362 470.741 240.563C471.01 240.756 471.342 240.853 471.737 240.853C472.048 240.853 472.287 240.794 472.456 240.677C472.632 240.551 472.72 240.395 472.72 240.21C472.72 240.059 472.666 239.937 472.556 239.845C472.447 239.744 472.3 239.664 472.115 239.605C471.93 239.538 471.725 239.475 471.498 239.416C471.262 239.349 471.019 239.273 470.767 239.189C470.515 239.105 470.284 238.996 470.073 238.862C469.863 238.719 469.691 238.538 469.557 238.32C469.431 238.101 469.368 237.828 469.368 237.501C469.368 236.954 469.582 236.513 470.01 236.177C470.439 235.833 471.006 235.66 471.712 235.66C472.208 235.66 472.657 235.761 473.06 235.963C473.464 236.156 473.783 236.438 474.018 236.807L473.048 237.576C472.897 237.333 472.695 237.152 472.443 237.034C472.199 236.908 471.939 236.845 471.662 236.845C471.418 236.845 471.216 236.891 471.057 236.984C470.905 237.076 470.83 237.202 470.83 237.362C470.83 237.471 470.863 237.564 470.931 237.639C471.006 237.715 471.124 237.782 471.283 237.841C471.451 237.891 471.67 237.95 471.939 238.017C472.191 238.076 472.451 238.148 472.72 238.232C472.989 238.316 473.241 238.429 473.476 238.572C473.712 238.715 473.901 238.904 474.044 239.139C474.186 239.374 474.258 239.673 474.258 240.034C474.258 240.446 474.153 240.811 473.943 241.13C473.733 241.441 473.439 241.685 473.06 241.861C472.682 242.038 472.237 242.126 471.725 242.126Z" fill="#8189A2"/>
<path d="M582.859 242V240.815C583.128 240.614 583.443 240.383 583.805 240.122C584.166 239.862 584.531 239.576 584.901 239.265C585.279 238.954 585.628 238.622 585.947 238.269C586.266 237.916 586.523 237.547 586.716 237.16C586.918 236.774 587.018 236.379 587.018 235.976C587.018 235.597 586.918 235.282 586.716 235.03C586.514 234.77 586.199 234.64 585.771 234.64C585.418 234.64 585.136 234.728 584.926 234.904C584.725 235.081 584.578 235.308 584.485 235.585C584.393 235.854 584.338 236.135 584.321 236.429L582.784 236.316C582.784 235.921 582.847 235.534 582.973 235.156C583.107 234.778 583.3 234.438 583.552 234.135C583.813 233.825 584.132 233.577 584.51 233.392C584.888 233.207 585.325 233.115 585.821 233.115C586.359 233.115 586.834 233.232 587.245 233.467C587.665 233.703 587.993 234.03 588.228 234.451C588.464 234.871 588.581 235.362 588.581 235.925C588.581 236.362 588.506 236.786 588.354 237.198C588.212 237.61 588.006 238.005 587.737 238.383C587.468 238.761 587.149 239.118 586.779 239.454C586.409 239.79 585.998 240.105 585.544 240.399C585.09 240.685 584.611 240.946 584.107 241.181L584.523 240.538H588.922V242H582.859ZM592.937 242.113C592.39 242.113 591.933 242.017 591.563 241.824C591.193 241.63 590.895 241.374 590.668 241.055C590.441 240.727 590.269 240.366 590.151 239.971C590.042 239.576 589.966 239.168 589.924 238.748C589.882 238.328 589.861 237.933 589.861 237.564C589.861 237.202 589.878 236.82 589.912 236.417C589.954 236.005 590.029 235.602 590.139 235.207C590.256 234.812 590.428 234.455 590.655 234.135C590.882 233.816 591.176 233.56 591.538 233.367C591.907 233.173 592.369 233.077 592.924 233.077C593.47 233.077 593.924 233.173 594.285 233.367C594.655 233.552 594.953 233.804 595.18 234.123C595.407 234.442 595.575 234.799 595.684 235.194C595.802 235.589 595.882 235.992 595.924 236.404C595.966 236.807 595.987 237.194 595.987 237.564C595.987 237.95 595.966 238.353 595.924 238.774C595.882 239.194 595.802 239.601 595.684 239.996C595.566 240.391 595.394 240.748 595.167 241.067C594.941 241.387 594.646 241.643 594.285 241.836C593.924 242.021 593.474 242.113 592.937 242.113ZM592.937 240.614C593.331 240.614 593.634 240.479 593.844 240.21C594.054 239.933 594.197 239.568 594.273 239.114C594.348 238.66 594.386 238.16 594.386 237.614C594.386 237.051 594.344 236.543 594.26 236.089C594.184 235.627 594.041 235.261 593.831 234.993C593.621 234.724 593.319 234.589 592.924 234.589C592.613 234.589 592.361 234.669 592.168 234.829C591.975 234.988 591.827 235.207 591.727 235.484C591.634 235.761 591.567 236.085 591.525 236.455C591.491 236.816 591.475 237.202 591.475 237.614C591.475 238.009 591.491 238.387 591.525 238.748C591.567 239.11 591.638 239.429 591.739 239.706C591.84 239.983 591.987 240.206 592.18 240.374C592.374 240.534 592.626 240.614 592.937 240.614ZM599.359 241.95V239.505H596.901V238.269H599.359V235.812H600.607V238.269H603.052V239.505H600.607V241.95H599.359ZM608.047 244.571L609.307 241.521L606.963 235.787H608.677L610.139 239.958L611.626 235.787H613.315L609.748 244.571H608.047ZM614.288 242V235.787H615.863V237.475L615.623 237.501C615.649 237.139 615.758 236.82 615.951 236.543C616.144 236.265 616.38 236.051 616.657 235.9C616.943 235.74 617.233 235.66 617.527 235.66C617.737 235.66 617.934 235.69 618.119 235.749C618.312 235.799 618.51 235.887 618.711 236.013L617.955 237.425C617.863 237.375 617.745 237.328 617.602 237.286C617.459 237.244 617.317 237.223 617.174 237.223C617.006 237.223 616.842 237.253 616.682 237.312C616.531 237.37 616.392 237.463 616.266 237.589C616.149 237.715 616.052 237.883 615.976 238.093C615.943 238.211 615.913 238.362 615.888 238.547C615.871 238.723 615.863 238.984 615.863 239.328V242H614.288ZM621.637 242.126C621.175 242.126 620.771 242.059 620.427 241.924C620.082 241.79 619.788 241.622 619.545 241.42C619.309 241.219 619.12 241.025 618.977 240.84L620.049 239.908C620.191 240.143 620.393 240.362 620.654 240.563C620.922 240.756 621.254 240.853 621.649 240.853C621.96 240.853 622.2 240.794 622.368 240.677C622.544 240.551 622.632 240.395 622.632 240.21C622.632 240.059 622.578 239.937 622.469 239.845C622.359 239.744 622.212 239.664 622.027 239.605C621.843 239.538 621.637 239.475 621.41 239.416C621.175 239.349 620.931 239.273 620.679 239.189C620.427 239.105 620.196 238.996 619.986 238.862C619.776 238.719 619.603 238.538 619.469 238.32C619.343 238.101 619.28 237.828 619.28 237.501C619.28 236.954 619.494 236.513 619.923 236.177C620.351 235.833 620.918 235.66 621.624 235.66C622.12 235.66 622.569 235.761 622.973 235.963C623.376 236.156 623.695 236.438 623.931 236.807L622.96 237.576C622.809 237.333 622.607 237.152 622.355 237.034C622.111 236.908 621.851 236.845 621.574 236.845C621.33 236.845 621.128 236.891 620.969 236.984C620.817 237.076 620.742 237.202 620.742 237.362C620.742 237.471 620.775 237.564 620.843 237.639C620.918 237.715 621.036 237.782 621.196 237.841C621.364 237.891 621.582 237.95 621.851 238.017C622.103 238.076 622.363 238.148 622.632 238.232C622.901 238.316 623.153 238.429 623.389 238.572C623.624 238.715 623.813 238.904 623.956 239.139C624.099 239.374 624.17 239.673 624.17 240.034C624.17 240.446 624.065 240.811 623.855 241.13C623.645 241.441 623.351 241.685 622.973 241.861C622.595 242.038 622.149 242.126 621.637 242.126Z" fill="#8189A2"/>
<path d="M43.1193 85.8887L45.2997 82.574L45.4887 82.8134C45.3459 82.8723 45.1989 82.9227 45.0476 82.9647C44.8964 82.9983 44.7451 83.0151 44.5939 83.0151C44.0309 83.0151 43.5226 82.8849 43.0689 82.6244C42.6152 82.3555 42.2539 81.9984 41.985 81.5531C41.7245 81.1078 41.5943 80.6036 41.5943 80.0407C41.5943 79.4441 41.7413 78.9148 42.0354 78.4527C42.3295 77.9905 42.7202 77.6292 43.2075 77.3688C43.6948 77.1083 44.2284 76.9781 44.8081 76.9781C45.4047 76.9781 45.9467 77.1083 46.434 77.3688C46.9213 77.6292 47.3078 77.9905 47.5935 78.4527C47.8876 78.9148 48.0346 79.4399 48.0346 80.0281C48.0346 80.3138 47.9926 80.5994 47.9086 80.8851C47.8246 81.1624 47.7027 81.4271 47.5431 81.6791L44.9216 85.8887H43.1193ZM44.8081 81.6287C45.1106 81.6287 45.3837 81.5657 45.6274 81.4397C45.871 81.3052 46.0643 81.1204 46.2071 80.8851C46.3584 80.6499 46.434 80.3684 46.434 80.0407C46.434 79.7214 46.3584 79.4483 46.2071 79.2215C46.0643 78.9862 45.871 78.8056 45.6274 78.6795C45.3837 78.5451 45.1106 78.4779 44.8081 78.4779C44.5141 78.4779 44.241 78.5451 43.9889 78.6795C43.7453 78.8056 43.552 78.9862 43.4092 79.2215C43.2663 79.4483 43.1949 79.7256 43.1949 80.0533C43.1949 80.3642 43.2663 80.6415 43.4092 80.8851C43.552 81.1204 43.7453 81.3052 43.9889 81.4397C44.2326 81.5657 44.5057 81.6287 44.8081 81.6287ZM51.7598 85.8887V78.9442L52.2135 79.713H49.5164V78.4779H50.8776C51.1632 78.4779 51.3817 78.4149 51.5329 78.2888C51.6842 78.1544 51.7598 77.9275 51.7598 77.6082V77.1041H53.3352V85.8887H51.7598ZM60.3751 85.8887L58.5728 83.0529L57.6024 84.1368V82.1833L59.9844 79.6752H61.9758L59.7197 81.9942L62.2404 85.8887H60.3751ZM56.1656 85.8887V77.1041H57.741V85.8887H56.1656Z" fill="#8189A2"/>
<path d="M43.1193 46.627L45.2997 43.3123L45.4887 43.5517C45.3459 43.6105 45.1989 43.661 45.0476 43.703C44.8964 43.7366 44.7451 43.7534 44.5939 43.7534C44.0309 43.7534 43.5226 43.6231 43.0689 43.3627C42.6152 43.0938 42.2539 42.7367 41.985 42.2914C41.7245 41.8461 41.5943 41.3419 41.5943 40.779C41.5943 40.1824 41.7413 39.6531 42.0354 39.1909C42.3295 38.7288 42.7202 38.3675 43.2075 38.1071C43.6948 37.8466 44.2284 37.7163 44.8081 37.7163C45.4047 37.7163 45.9467 37.8466 46.434 38.1071C46.9213 38.3675 47.3078 38.7288 47.5935 39.1909C47.8876 39.6531 48.0346 40.1782 48.0346 40.7664C48.0346 41.052 47.9926 41.3377 47.9086 41.6234C47.8246 41.9007 47.7027 42.1653 47.5431 42.4174L44.9216 46.627H43.1193ZM44.8081 42.367C45.1106 42.367 45.3837 42.304 45.6274 42.178C45.871 42.0435 46.0643 41.8587 46.2071 41.6234C46.3584 41.3881 46.434 41.1067 46.434 40.779C46.434 40.4597 46.3584 40.1866 46.2071 39.9598C46.0643 39.7245 45.871 39.5438 45.6274 39.4178C45.3837 39.2834 45.1106 39.2162 44.8081 39.2162C44.5141 39.2162 44.241 39.2834 43.9889 39.4178C43.7453 39.5438 43.552 39.7245 43.4092 39.9598C43.2663 40.1866 43.1949 40.4639 43.1949 40.7916C43.1949 41.1025 43.2663 41.3797 43.4092 41.6234C43.552 41.8587 43.7453 42.0435 43.9889 42.178C44.2326 42.304 44.5057 42.367 44.8081 42.367ZM50.1718 46.627L52.3522 43.3123L52.5412 43.5517C52.3984 43.6105 52.2513 43.661 52.1001 43.703C51.9489 43.7366 51.7976 43.7534 51.6464 43.7534C51.0834 43.7534 50.5751 43.6231 50.1214 43.3627C49.6676 43.0938 49.3063 42.7367 49.0375 42.2914C48.777 41.8461 48.6468 41.3419 48.6468 40.779C48.6468 40.1824 48.7938 39.6531 49.0879 39.1909C49.382 38.7288 49.7727 38.3675 50.26 38.1071C50.7473 37.8466 51.2809 37.7163 51.8606 37.7163C52.4572 37.7163 52.9991 37.8466 53.4865 38.1071C53.9738 38.3675 54.3603 38.7288 54.646 39.1909C54.9401 39.6531 55.0871 40.1782 55.0871 40.7664C55.0871 41.052 55.0451 41.3377 54.9611 41.6234C54.8771 41.9007 54.7552 42.1653 54.5956 42.4174L51.9741 46.627H50.1718ZM51.8606 42.367C52.1631 42.367 52.4362 42.304 52.6799 42.178C52.9235 42.0435 53.1168 41.8587 53.2596 41.6234C53.4109 41.3881 53.4865 41.1067 53.4865 40.779C53.4865 40.4597 53.4109 40.1866 53.2596 39.9598C53.1168 39.7245 52.9235 39.5438 52.6799 39.4178C52.4362 39.2834 52.1631 39.2162 51.8606 39.2162C51.5666 39.2162 51.2935 39.2834 51.0414 39.4178C50.7978 39.5438 50.6045 39.7245 50.4617 39.9598C50.3188 40.1866 50.2474 40.4639 50.2474 40.7916C50.2474 41.1025 50.3188 41.3797 50.4617 41.6234C50.6045 41.8587 50.7978 42.0435 51.0414 42.178C51.2851 42.304 51.5582 42.367 51.8606 42.367ZM60.3751 46.627L58.5728 43.7912L57.6024 44.8751V42.9216L59.9844 40.4135H61.9758L59.7197 42.7325L62.2404 46.627H60.3751ZM56.1656 46.627V37.8424H57.741V46.627H56.1656Z" fill="#8189A2"/>
<path d="M37.6548 9.54688V2.6024L38.1086 3.37121H35.4114V2.13607H36.7726C37.0583 2.13607 37.2767 2.07306 37.428 1.94702C37.5792 1.81259 37.6548 1.58573 37.6548 1.26644V0.762303H39.2303V9.54688H37.6548ZM44.8334 9.66031C44.2872 9.66031 43.8293 9.56368 43.4596 9.37043C43.0899 9.17718 42.7916 8.92091 42.5647 8.60162C42.3379 8.27393 42.1656 7.91263 42.048 7.51773C41.9388 7.12282 41.8632 6.71531 41.8211 6.2952C41.7791 5.87508 41.7581 5.48018 41.7581 5.11048C41.7581 4.74918 41.7749 4.36688 41.8085 3.96357C41.8506 3.55186 41.9262 3.14855 42.0354 2.75364C42.153 2.35873 42.3253 2.00164 42.5521 1.68235C42.779 1.36307 43.0731 1.1068 43.4344 0.913544C43.8041 0.720292 44.2662 0.623666 44.8208 0.623666C45.3669 0.623666 45.8206 0.720292 46.1819 0.913544C46.5516 1.09839 46.8499 1.35046 47.0768 1.66975C47.3036 1.98903 47.4717 2.34613 47.5809 2.74104C47.6985 3.13594 47.7784 3.53925 47.8204 3.95096C47.8624 4.35427 47.8834 4.74078 47.8834 5.11048C47.8834 5.49698 47.8624 5.90029 47.8204 6.3204C47.7784 6.74052 47.6985 7.14803 47.5809 7.54293C47.4633 7.93784 47.291 8.29494 47.0642 8.61422C46.8373 8.93351 46.5432 9.18978 46.1819 9.38303C45.8206 9.56788 45.3711 9.66031 44.8334 9.66031ZM44.8334 8.1605C45.2283 8.1605 45.5307 8.02606 45.7408 7.75719C45.9509 7.47992 46.0937 7.11442 46.1693 6.6607C46.2449 6.20697 46.2827 5.70704 46.2827 5.16089C46.2827 4.59794 46.2407 4.0896 46.1567 3.63588C46.0811 3.17375 45.9383 2.80826 45.7282 2.53938C45.5181 2.27051 45.2157 2.13607 44.8208 2.13607C44.5099 2.13607 44.2578 2.2159 44.0645 2.37554C43.8713 2.53518 43.7243 2.75364 43.6234 3.03092C43.531 3.30819 43.4638 3.63168 43.4218 4.00138C43.3882 4.36268 43.3714 4.74918 43.3714 5.16089C43.3714 5.5558 43.3882 5.9339 43.4218 6.2952C43.4638 6.65649 43.5352 6.97578 43.636 7.25306C43.7369 7.53033 43.8839 7.75299 44.0772 7.92104C44.2704 8.08068 44.5225 8.1605 44.8334 8.1605ZM51.8858 9.66031C51.3397 9.66031 50.8818 9.56368 50.5121 9.37043C50.1424 9.17718 49.8441 8.92091 49.6172 8.60162C49.3904 8.27393 49.2181 7.91263 49.1005 7.51773C48.9913 7.12282 48.9156 6.71531 48.8736 6.2952C48.8316 5.87508 48.8106 5.48018 48.8106 5.11048C48.8106 4.74918 48.8274 4.36688 48.861 3.96357C48.903 3.55186 48.9787 3.14855 49.0879 2.75364C49.2055 2.35873 49.3778 2.00164 49.6046 1.68235C49.8315 1.36307 50.1256 1.1068 50.4869 0.913544C50.8566 0.720292 51.3187 0.623666 51.8732 0.623666C52.4194 0.623666 52.8731 0.720292 53.2344 0.913544C53.6041 1.09839 53.9024 1.35046 54.1292 1.66975C54.3561 1.98903 54.5242 2.34613 54.6334 2.74104C54.751 3.13594 54.8308 3.53925 54.8729 3.95096C54.9149 4.35427 54.9359 4.74078 54.9359 5.11048C54.9359 5.49698 54.9149 5.90029 54.8729 6.3204C54.8308 6.74052 54.751 7.14803 54.6334 7.54293C54.5158 7.93784 54.3435 8.29494 54.1166 8.61422C53.8898 8.93351 53.5957 9.18978 53.2344 9.38303C52.8731 9.56788 52.4236 9.66031 51.8858 9.66031ZM51.8858 8.1605C52.2808 8.1605 52.5832 8.02606 52.7933 7.75719C53.0033 7.47992 53.1462 7.11442 53.2218 6.6607C53.2974 6.20697 53.3352 5.70704 53.3352 5.16089C53.3352 4.59794 53.2932 4.0896 53.2092 3.63588C53.1336 3.17375 52.9907 2.80826 52.7807 2.53938C52.5706 2.27051 52.2681 2.13607 51.8732 2.13607C51.5624 2.13607 51.3103 2.2159 51.117 2.37554C50.9238 2.53518 50.7767 2.75364 50.6759 3.03092C50.5835 3.30819 50.5163 3.63168 50.4743 4.00138C50.4407 4.36268 50.4238 4.74918 50.4238 5.16089C50.4238 5.5558 50.4407 5.9339 50.4743 6.2952C50.5163 6.65649 50.5877 6.97578 50.6885 7.25306C50.7893 7.53033 50.9364 7.75299 51.1296 7.92104C51.3229 8.08068 51.575 8.1605 51.8858 8.1605ZM60.3751 9.54688L58.5728 6.71111L57.6024 7.795V5.84147L59.9844 3.3334H61.9758L59.7197 5.65242L62.2404 9.54688H60.3751ZM56.1656 9.54688V0.762303H57.741V9.54688H56.1656Z" fill="#8189A2"/>
<path d="M70.8906 219.21L70.8906 5.45269" stroke="#E0E0E0" stroke-width="1.05028" stroke-dasharray="4.2 4.2"/>
<path d="M190.855 213.757V-0.000435129" stroke="#E0E0E0" stroke-width="1.05028" stroke-dasharray="4.2 4.2"/>
<path d="M320.637 217.029V3.27203" stroke="#E0E0E0" stroke-width="1.05028" stroke-dasharray="4.2 4.2"/>
<path d="M448.234 214.848V1.09039" stroke="#E0E0E0" stroke-width="1.05028" stroke-dasharray="4.2 4.2"/>
<rect x="39" y="182" width="63" height="25" rx="6" fill="#FFD124"/>
<path d="M64.3985 190.215L62.2181 193.53L62.0291 193.291C62.1719 193.232 62.319 193.186 62.4702 193.152C62.6214 193.11 62.7727 193.089 62.9239 193.089C63.4869 193.089 63.9952 193.223 64.4489 193.492C64.9027 193.753 65.2598 194.106 65.5202 194.551C65.7807 194.996 65.9109 195.5 65.9109 196.063C65.9109 196.66 65.7639 197.189 65.4698 197.651C65.1841 198.114 64.7976 198.475 64.3103 198.735C63.8314 198.996 63.2978 199.126 62.7097 199.126C62.1215 199.126 61.5796 198.996 61.0838 198.735C60.5965 198.475 60.2058 198.114 59.9117 197.651C59.6176 197.189 59.4706 196.664 59.4706 196.076C59.4706 195.782 59.5126 195.496 59.5966 195.219C59.6891 194.933 59.8151 194.669 59.9747 194.425L62.5836 190.215H64.3985ZM62.7097 194.475C62.4072 194.475 62.1341 194.543 61.8904 194.677C61.6468 194.803 61.4493 194.984 61.2981 195.219C61.1553 195.454 61.0838 195.736 61.0838 196.063C61.0838 196.374 61.1553 196.647 61.2981 196.883C61.4409 197.118 61.6342 197.303 61.8778 197.437C62.1299 197.563 62.4072 197.626 62.7097 197.626C63.0037 197.626 63.2726 197.563 63.5163 197.437C63.76 197.303 63.9532 197.118 64.096 196.883C64.2473 196.647 64.3229 196.37 64.3229 196.051C64.3229 195.732 64.2515 195.454 64.1086 195.219C63.9658 194.984 63.7726 194.803 63.5289 194.677C63.2852 194.543 63.0122 194.475 62.7097 194.475ZM69.8504 199.126C69.2874 199.126 68.7539 199.025 68.2498 198.824C67.754 198.622 67.3507 198.319 67.0398 197.916C66.7373 197.504 66.5861 196.996 66.5861 196.391C66.5861 195.929 66.6869 195.509 66.8886 195.131C67.0986 194.753 67.4095 194.45 67.8212 194.223C67.5692 194.047 67.3675 193.824 67.2163 193.555C67.0734 193.286 67.002 192.967 67.002 192.597C67.002 192.068 67.1365 191.619 67.4053 191.249C67.6742 190.879 68.0271 190.594 68.464 190.392C68.9009 190.19 69.3631 190.089 69.8504 190.089C70.3629 190.089 70.8334 190.194 71.262 190.404C71.6905 190.606 72.035 190.896 72.2954 191.274C72.5559 191.644 72.6861 192.089 72.6861 192.61C72.6861 192.98 72.6147 193.299 72.4719 193.568C72.3291 193.828 72.1316 194.047 71.8795 194.223C72.2912 194.45 72.5979 194.753 72.7996 195.131C73.0096 195.509 73.1147 195.929 73.1147 196.391C73.1147 196.996 72.9592 197.504 72.6483 197.916C72.3459 198.319 71.9467 198.622 71.451 198.824C70.9553 199.025 70.4217 199.126 69.8504 199.126ZM69.8504 197.639C70.1781 197.639 70.468 197.588 70.72 197.488C70.9805 197.378 71.1821 197.219 71.325 197.009C71.4762 196.799 71.5518 196.542 71.5518 196.24C71.5518 195.937 71.4762 195.685 71.325 195.484C71.1821 195.274 70.9805 195.118 70.72 195.017C70.468 194.908 70.1781 194.853 69.8504 194.853C69.5227 194.853 69.2286 194.908 68.9681 195.017C68.7161 195.118 68.5144 195.274 68.3632 195.484C68.2203 195.685 68.1489 195.937 68.1489 196.24C68.1489 196.542 68.2203 196.799 68.3632 197.009C68.5144 197.219 68.7203 197.378 68.9807 197.488C69.2412 197.588 69.5311 197.639 69.8504 197.639ZM69.863 193.782C70.2411 193.782 70.5478 193.686 70.783 193.492C71.0183 193.299 71.1359 193.043 71.1359 192.724C71.1359 192.379 71.0225 192.106 70.7956 191.904C70.5688 191.694 70.2537 191.589 69.8504 191.589C69.5983 191.589 69.3757 191.635 69.1824 191.728C68.9892 191.812 68.8379 191.938 68.7287 192.106C68.6279 192.266 68.5774 192.463 68.5774 192.698C68.5774 193.034 68.6951 193.299 68.9303 193.492C69.1656 193.686 69.4765 193.782 69.863 193.782ZM75.5165 196.353V194.286L79.3731 190.215H81.5661L75.5165 196.353ZM74.2183 199V190.215H75.8442V199H74.2183ZM79.663 199L76.8903 194.576L78.1002 193.442L81.5913 199H79.663Z" fill="#2E2E2E"/>
<rect x="158" y="136" width="63" height="25" rx="6" fill="#FFD124"/>
<path d="M179.365 153L183.399 145.072L183.84 145.677H178.622V144.215H184.961V145.362L181.105 153H179.365ZM186.418 153L190.451 145.072L190.892 145.677H185.674V144.215H192.014V145.362L188.157 153H186.418ZM194.516 150.353V148.286L198.373 144.215H200.566L194.516 150.353ZM193.218 153V144.215H194.844V153H193.218ZM198.663 153L195.89 148.576L197.1 147.442L200.591 153H198.663Z" fill="#2E2E2E"/>
<rect x="286" y="77" width="63" height="25" rx="6" fill="#FFD124"/>
<path d="M308.096 94L310.277 90.6853L310.466 90.9248C310.323 90.9836 310.176 91.034 310.025 91.076C309.874 91.1096 309.722 91.1264 309.571 91.1264C309.008 91.1264 308.5 90.9962 308.046 90.7357C307.592 90.4668 307.231 90.1097 306.962 89.6644C306.702 89.2191 306.571 88.715 306.571 88.152C306.571 87.5555 306.718 87.0261 307.013 86.564C307.307 86.1019 307.697 85.7406 308.185 85.4801C308.672 85.2196 309.206 85.0894 309.785 85.0894C310.382 85.0894 310.924 85.2196 311.411 85.4801C311.898 85.7406 312.285 86.1019 312.571 86.564C312.865 87.0261 313.012 87.5513 313.012 88.1394C313.012 88.4251 312.97 88.7108 312.886 88.9964C312.802 89.2737 312.68 89.5384 312.52 89.7905L309.899 94H308.096ZM309.785 89.74C310.088 89.74 310.361 89.677 310.605 89.551C310.848 89.4166 311.041 89.2317 311.184 88.9964C311.336 88.7612 311.411 88.4797 311.411 88.152C311.411 87.8327 311.336 87.5597 311.184 87.3328C311.041 87.0975 310.848 86.9169 310.605 86.7909C310.361 86.6564 310.088 86.5892 309.785 86.5892C309.491 86.5892 309.218 86.6564 308.966 86.7909C308.722 86.9169 308.529 87.0975 308.386 87.3328C308.243 87.5597 308.172 87.8369 308.172 88.1646C308.172 88.4755 308.243 88.7528 308.386 88.9964C308.529 89.2317 308.722 89.4166 308.966 89.551C309.21 89.677 309.483 89.74 309.785 89.74ZM316.863 94.1134C316.317 94.1134 315.859 94.0168 315.489 93.8236C315.12 93.6303 314.821 93.374 314.594 93.0547C314.368 92.7271 314.195 92.3658 314.078 91.9709C313.968 91.5759 313.893 91.1684 313.851 90.7483C313.809 90.3282 313.788 89.9333 313.788 89.5636C313.788 89.2023 313.805 88.82 313.838 88.4167C313.88 88.005 313.956 87.6017 314.065 87.2068C314.183 86.8119 314.355 86.4548 314.582 86.1355C314.809 85.8162 315.103 85.5599 315.464 85.3667C315.834 85.1734 316.296 85.0768 316.85 85.0768C317.397 85.0768 317.85 85.1734 318.212 85.3667C318.581 85.5515 318.88 85.8036 319.106 86.1229C319.333 86.4422 319.501 86.7993 319.611 87.1942C319.728 87.5891 319.808 87.9924 319.85 88.4041C319.892 88.8074 319.913 89.1939 319.913 89.5636C319.913 89.9501 319.892 90.3534 319.85 90.7735C319.808 91.1936 319.728 91.6012 319.611 91.9961C319.493 92.391 319.321 92.7481 319.094 93.0673C318.867 93.3866 318.573 93.6429 318.212 93.8362C317.85 94.021 317.401 94.1134 316.863 94.1134ZM316.863 92.6136C317.258 92.6136 317.56 92.4792 317.77 92.2103C317.98 91.933 318.123 91.5675 318.199 91.1138C318.275 90.6601 318.312 90.1602 318.312 89.614C318.312 89.0511 318.27 88.5427 318.186 88.089C318.111 87.6269 317.968 87.2614 317.758 86.9925C317.548 86.7236 317.245 86.5892 316.85 86.5892C316.539 86.5892 316.287 86.669 316.094 86.8287C315.901 86.9883 315.754 87.2068 315.653 87.484C315.561 87.7613 315.493 88.0848 315.451 88.4545C315.418 88.8158 315.401 89.2023 315.401 89.614C315.401 90.0089 315.418 90.387 315.451 90.7483C315.493 91.1096 315.565 91.4289 315.666 91.7062C315.766 91.9835 315.914 92.2061 316.107 92.3742C316.3 92.5338 316.552 92.6136 316.863 92.6136ZM322.516 91.3533V89.2863L326.373 85.2154H328.566L322.516 91.3533ZM321.218 94V85.2154H322.844V94H321.218ZM326.663 94L323.89 89.5762L325.1 88.4419L328.591 94H326.663Z" fill="#2E2E2E"/>
<rect x="415" y="27" width="63" height="25" rx="6" fill="#FFD124"/>
<path d="M437.096 44L439.277 40.6853L439.466 40.9248C439.323 40.9836 439.176 41.034 439.025 41.076C438.874 41.1096 438.722 41.1264 438.571 41.1264C438.008 41.1264 437.5 40.9962 437.046 40.7357C436.592 40.4668 436.231 40.1097 435.962 39.6644C435.702 39.2191 435.571 38.715 435.571 38.152C435.571 37.5555 435.718 37.0261 436.013 36.564C436.307 36.1019 436.697 35.7406 437.185 35.4801C437.672 35.2196 438.206 35.0894 438.785 35.0894C439.382 35.0894 439.924 35.2196 440.411 35.4801C440.898 35.7406 441.285 36.1019 441.571 36.564C441.865 37.0261 442.012 37.5513 442.012 38.1394C442.012 38.4251 441.97 38.7108 441.886 38.9964C441.802 39.2737 441.68 39.5384 441.52 39.7905L438.899 44H437.096ZM438.785 39.74C439.088 39.74 439.361 39.677 439.605 39.551C439.848 39.4166 440.041 39.2317 440.184 38.9964C440.336 38.7612 440.411 38.4797 440.411 38.152C440.411 37.8327 440.336 37.5597 440.184 37.3328C440.041 37.0975 439.848 36.9169 439.605 36.7909C439.361 36.6564 439.088 36.5892 438.785 36.5892C438.491 36.5892 438.218 36.6564 437.966 36.7909C437.722 36.9169 437.529 37.0975 437.386 37.3328C437.243 37.5597 437.172 37.8369 437.172 38.1646C437.172 38.4755 437.243 38.7528 437.386 38.9964C437.529 39.2317 437.722 39.4166 437.966 39.551C438.21 39.677 438.483 39.74 438.785 39.74ZM444.149 44L446.329 40.6853L446.518 40.9248C446.376 40.9836 446.228 41.034 446.077 41.076C445.926 41.1096 445.775 41.1264 445.624 41.1264C445.061 41.1264 444.552 40.9962 444.099 40.7357C443.645 40.4668 443.283 40.1097 443.015 39.6644C442.754 39.2191 442.624 38.715 442.624 38.152C442.624 37.5555 442.771 37.0261 443.065 36.564C443.359 36.1019 443.75 35.7406 444.237 35.4801C444.724 35.2196 445.258 35.0894 445.838 35.0894C446.434 35.0894 446.976 35.2196 447.464 35.4801C447.951 35.7406 448.337 36.1019 448.623 36.564C448.917 37.0261 449.064 37.5513 449.064 38.1394C449.064 38.4251 449.022 38.7108 448.938 38.9964C448.854 39.2737 448.732 39.5384 448.573 39.7905L445.951 44H444.149ZM445.838 39.74C446.14 39.74 446.413 39.677 446.657 39.551C446.901 39.4166 447.094 39.2317 447.237 38.9964C447.388 38.7612 447.464 38.4797 447.464 38.152C447.464 37.8327 447.388 37.5597 447.237 37.3328C447.094 37.0975 446.901 36.9169 446.657 36.7909C446.413 36.6564 446.14 36.5892 445.838 36.5892C445.544 36.5892 445.271 36.6564 445.019 36.7909C444.775 36.9169 444.582 37.0975 444.439 37.3328C444.296 37.5597 444.225 37.8369 444.225 38.1646C444.225 38.4755 444.296 38.7528 444.439 38.9964C444.582 39.2317 444.775 39.4166 445.019 39.551C445.262 39.677 445.535 39.74 445.838 39.74ZM451.516 41.3533V39.2863L455.373 35.2154H457.566L451.516 41.3533ZM450.218 44V35.2154H451.844V44H450.218ZM455.663 44L452.89 39.5762L454.1 38.4419L457.591 44H455.663Z" fill="#2E2E2E"/>
<defs>
<linearGradient id="paint0_linear_1450_9053" x1="452.598" y1="-9.01458" x2="117.61" y2="36.9068" gradientUnits="userSpaceOnUse">
<stop stop-color="#044AB4"/>
<stop offset="1" stop-color="#B1C7E8" stop-opacity="0.7"/>
</linearGradient>
</defs>
</svg>
