<svg width="9" height="14" viewBox="0 0 9 14" fill="none" xmlns="http://www.w3.org/2000/svg">
<path d="M7.3125 0.4375H1.6875C1.31454 0.4375 0.956854 0.585658 0.693131 0.849381C0.429408 1.1131 0.28125 1.47079 0.28125 1.84375V12.1562C0.28125 12.5292 0.429408 12.8869 0.693131 13.1506C0.956854 13.4143 1.31454 13.5625 1.6875 13.5625H7.3125C7.68546 13.5625 8.04315 13.4143 8.30687 13.1506C8.57059 12.8869 8.71875 12.5292 8.71875 12.1562V1.84375C8.71875 1.47079 8.57059 1.1131 8.30687 0.849381C8.04315 0.585658 7.68546 0.4375 7.3125 0.4375ZM1.21875 3.25H7.78125V10.75H1.21875V3.25ZM1.6875 1.375H7.3125C7.43682 1.375 7.55605 1.42439 7.64396 1.51229C7.73186 1.6002 7.78125 1.71943 7.78125 1.84375V2.3125H1.21875V1.84375C1.21875 1.71943 1.26814 1.6002 1.35604 1.51229C1.44395 1.42439 1.56318 1.375 1.6875 1.375ZM7.3125 12.625H1.6875C1.56318 12.625 1.44395 12.5756 1.35604 12.4877C1.26814 12.3998 1.21875 12.2806 1.21875 12.1562V11.6875H7.78125V12.1562C7.78125 12.2806 7.73186 12.3998 7.64396 12.4877C7.55605 12.5756 7.43682 12.625 7.3125 12.625Z" fill="#797979"/>
</svg>
