<svg width="15" height="14" viewBox="0 0 15 14" fill="none" xmlns="http://www.w3.org/2000/svg">
<path d="M13.8 2.80039H1.8C1.64087 2.80039 1.48826 2.73718 1.37574 2.62465C1.26321 2.51213 1.2 2.35952 1.2 2.20039C1.2 2.04126 1.26321 1.88865 1.37574 1.77613C1.48826 1.6636 1.64087 1.60039 1.8 1.60039H12C12.1591 1.60039 12.3117 1.53718 12.4243 1.42465C12.5368 1.31213 12.6 1.15952 12.6 1.00039C12.6 0.841261 12.5368 0.688648 12.4243 0.576127C12.3117 0.463605 12.1591 0.400391 12 0.400391H1.8C1.32261 0.400391 0.864773 0.590033 0.527208 0.927598C0.189642 1.26516 0 1.723 0 2.20039V11.8004C0 12.2778 0.189642 12.7356 0.527208 13.0732C0.864773 13.4107 1.32261 13.6004 1.8 13.6004H13.8C14.1183 13.6004 14.4235 13.474 14.6485 13.2489C14.8736 13.0239 15 12.7186 15 12.4004V4.00039C15 3.68213 14.8736 3.37691 14.6485 3.15186C14.4235 2.92682 14.1183 2.80039 13.8 2.80039ZM13.8 12.4004H1.8C1.64087 12.4004 1.48826 12.3372 1.37574 12.2247C1.26321 12.1121 1.2 11.9595 1.2 11.8004V3.89764C1.39266 3.96593 1.5956 4.00069 1.8 4.00039H13.8V12.4004ZM10.2 7.90039C10.2 7.72239 10.2528 7.54838 10.3517 7.40038C10.4506 7.25237 10.5911 7.13702 10.7556 7.0689C10.92 7.00078 11.101 6.98296 11.2756 7.01768C11.4502 7.05241 11.6105 7.13813 11.7364 7.26399C11.8623 7.38986 11.948 7.55023 11.9827 7.72481C12.0174 7.89939 11.9996 8.08035 11.9315 8.2448C11.8634 8.40926 11.748 8.54982 11.6 8.64871C11.452 8.74761 11.278 8.80039 11.1 8.80039C10.8613 8.80039 10.6324 8.70557 10.4636 8.53679C10.2948 8.368 10.2 8.13908 10.2 7.90039Z" fill="#616161"/>
</svg>
