<svg width="16" height="16" viewBox="0 0 16 16" fill="none" xmlns="http://www.w3.org/2000/svg">
<path d="M14.7424 7.33262L11.7244 10.0663L12.6284 14.1362C12.6763 14.349 12.6626 14.5717 12.5892 14.7764C12.5158 14.9812 12.3858 15.1589 12.2156 15.2874C12.0453 15.4159 11.8423 15.4895 11.632 15.499C11.4217 15.5084 11.2134 15.4533 11.0331 15.3405L7.61284 13.1875L4.19995 15.3405C4.01965 15.4533 3.81132 15.5084 3.60101 15.499C3.39069 15.4895 3.18772 15.4159 3.01748 15.2874C2.84724 15.1589 2.71728 14.9812 2.64384 14.7764C2.5704 14.5717 2.55675 14.349 2.60459 14.1362L3.50734 10.0704L0.488605 7.33262C0.328941 7.1897 0.213487 7.00104 0.156722 6.7903C0.099957 6.57955 0.104407 6.3561 0.169515 6.14797C0.234622 5.93984 0.357488 5.75629 0.522706 5.62035C0.687923 5.4844 0.888137 5.4021 1.09824 5.38378L5.07726 5.0261L6.63046 1.18119C6.71157 0.979444 6.84838 0.807112 7.02367 0.685896C7.19896 0.56468 7.40488 0.5 7.61551 0.5C7.82615 0.5 8.03207 0.56468 8.20736 0.685896C8.38265 0.807112 8.51946 0.979444 8.60057 1.18119L10.1584 5.0261L14.1361 5.38378C14.3462 5.4021 14.5465 5.4844 14.7117 5.62035C14.8769 5.75629 14.9998 5.93984 15.0649 6.14797C15.13 6.3561 15.1344 6.57955 15.0777 6.7903C15.0209 7.00104 14.9054 7.1897 14.7458 7.33262H14.7424Z" fill="#FFD124"/>
</svg>
