<svg width="32" height="28" viewBox="0 0 32 28" fill="none" xmlns="http://www.w3.org/2000/svg">
<rect width="32" height="28" rx="14" fill="#E6BC20"/>
<path d="M16.0346 19.1293C15.4252 19.1293 14.882 19.0246 14.405 18.8153C13.931 18.6061 13.554 18.3152 13.274 17.9428C12.997 17.5674 12.8462 17.1319 12.8216 16.6364H13.9849C14.0095 16.9411 14.1142 17.2042 14.2988 17.4258C14.4835 17.6443 14.7251 17.8136 15.0236 17.9336C15.3221 18.0536 15.653 18.1136 16.0162 18.1136C16.4224 18.1136 16.7825 18.0429 17.0964 17.9013C17.4103 17.7597 17.6565 17.5627 17.835 17.3104C18.0136 17.058 18.1028 16.7656 18.1028 16.4332C18.1028 16.0855 18.0166 15.7792 17.8443 15.5146C17.6719 15.2468 17.4196 15.0375 17.0872 14.8867C16.7548 14.7359 16.3485 14.6605 15.8684 14.6605H15.1113V13.6449H15.8684C16.2439 13.6449 16.5732 13.5772 16.8564 13.4418C17.1426 13.3063 17.3657 13.1155 17.5257 12.8693C17.6889 12.6231 17.7704 12.3338 17.7704 12.0014C17.7704 11.6813 17.6996 11.4028 17.5581 11.1658C17.4165 10.9289 17.2164 10.7442 16.9579 10.6119C16.7025 10.4795 16.4009 10.4134 16.0531 10.4134C15.7269 10.4134 15.4191 10.4734 15.1298 10.5934C14.8436 10.7103 14.6097 10.8812 14.4281 11.1058C14.2465 11.3274 14.148 11.5952 14.1326 11.9091H13.0247C13.0431 11.4136 13.1924 10.9796 13.4725 10.6072C13.7525 10.2318 14.1188 9.93939 14.5712 9.73011C15.0267 9.52083 15.5268 9.41619 16.0716 9.41619C16.6563 9.41619 17.158 9.53468 17.5765 9.77166C17.9951 10.0056 18.3167 10.3149 18.5414 10.6996C18.766 11.0843 18.8784 11.4998 18.8784 11.946C18.8784 12.4785 18.7383 12.9324 18.4583 13.3079C18.1813 13.6834 17.8043 13.9434 17.3272 14.0881V14.1619C17.9243 14.2604 18.3906 14.5143 18.726 14.9237C19.0615 15.3299 19.2292 15.8331 19.2292 16.4332C19.2292 16.9472 19.0892 17.4089 18.8091 17.8182C18.5321 18.2244 18.1536 18.5445 17.6735 18.7784C17.1934 19.0123 16.6471 19.1293 16.0346 19.1293Z" fill="black"/>
</svg>
