<svg width="32" height="28" viewBox="0 0 32 28" fill="none" xmlns="http://www.w3.org/2000/svg">
<rect width="32" height="28" rx="14" fill="#E6BC20"/>
<path d="M13.0431 19V18.169L16.1639 14.7528C16.5301 14.3527 16.8317 14.005 17.0687 13.7095C17.3057 13.411 17.4811 13.1309 17.595 12.8693C17.7119 12.6046 17.7704 12.3277 17.7704 12.0384C17.7704 11.706 17.6904 11.4182 17.5304 11.1751C17.3734 10.9319 17.158 10.7442 16.8841 10.6119C16.6101 10.4795 16.3024 10.4134 15.9608 10.4134C15.5976 10.4134 15.2806 10.4888 15.0098 10.6396C14.742 10.7873 14.5343 10.995 14.3865 11.2628C14.2419 11.5305 14.1696 11.8445 14.1696 12.2045H13.0801C13.0801 11.6506 13.2078 11.1643 13.4632 10.7457C13.7187 10.3272 14.0665 10.0009 14.5066 9.76704C14.9498 9.53314 15.4468 9.41619 15.9977 9.41619C16.5517 9.41619 17.0426 9.53314 17.4703 9.76704C17.8981 10.0009 18.2336 10.3164 18.4767 10.7134C18.7199 11.1104 18.8414 11.5521 18.8414 12.0384C18.8414 12.3861 18.7783 12.7262 18.6522 13.0586C18.5291 13.3879 18.3136 13.7557 18.0059 14.1619C17.7012 14.5651 17.278 15.0575 16.7363 15.6392L14.6127 17.9105V17.9844H19.0076V19H13.0431Z" fill="black"/>
</svg>
