<svg width="12" height="10" viewBox="0 0 12 10" fill="none" xmlns="http://www.w3.org/2000/svg">
<path d="M7.99281 3.76078L5.36781 2.01078C5.30191 1.96681 5.2253 1.94156 5.14617 1.93773C5.06704 1.93389 4.98835 1.95162 4.91851 1.98901C4.84866 2.02641 4.79028 2.08206 4.7496 2.15004C4.70891 2.21802 4.68745 2.29578 4.6875 2.375V5.875C4.68745 5.95423 4.70891 6.03198 4.7496 6.09996C4.79028 6.16794 4.84866 6.22359 4.91851 6.26099C4.98835 6.29838 5.06704 6.31611 5.14617 6.31227C5.2253 6.30844 5.30191 6.28319 5.36781 6.23922L7.99281 4.48922C8.05282 4.44928 8.10204 4.39514 8.13608 4.33159C8.17011 4.26805 8.18793 4.19708 8.18793 4.125C8.18793 4.05292 8.17011 3.98195 8.13608 3.91841C8.10204 3.85486 8.05282 3.80072 7.99281 3.76078ZM5.5625 5.05742V3.19531L6.96141 4.125L5.5625 5.05742ZM10.8125 0.1875H1.1875C0.955436 0.1875 0.732876 0.279687 0.568782 0.443782C0.404687 0.607876 0.3125 0.830436 0.3125 1.0625V7.1875C0.3125 7.41956 0.404687 7.64212 0.568782 7.80622C0.732876 7.97031 0.955436 8.0625 1.1875 8.0625H10.8125C11.0446 8.0625 11.2671 7.97031 11.4312 7.80622C11.5953 7.64212 11.6875 7.41956 11.6875 7.1875V1.0625C11.6875 0.830436 11.5953 0.607876 11.4312 0.443782C11.2671 0.279687 11.0446 0.1875 10.8125 0.1875ZM10.8125 7.1875H1.1875V1.0625H10.8125V7.1875ZM11.6875 9.375C11.6875 9.49103 11.6414 9.60231 11.5594 9.68436C11.4773 9.76641 11.366 9.8125 11.25 9.8125H0.75C0.633968 9.8125 0.522688 9.76641 0.440641 9.68436C0.358594 9.60231 0.3125 9.49103 0.3125 9.375C0.3125 9.25897 0.358594 9.14769 0.440641 9.06564C0.522688 8.98359 0.633968 8.9375 0.75 8.9375H11.25C11.366 8.9375 11.4773 8.98359 11.5594 9.06564C11.6414 9.14769 11.6875 9.25897 11.6875 9.375Z" fill="#797979"/>
</svg>
