<svg width="380" height="681" viewBox="0 0 380 681" fill="none" xmlns="http://www.w3.org/2000/svg">
<path d="M10.0391 348.121L5.56069 351.236L5.03044 344.649L10.0391 348.121Z" fill="white" fill-opacity="0.25"/>
<path d="M0.0902265 393.755L0.490065 398.633L-3.24 396.048L0.0902265 393.755Z" fill="white" fill-opacity="0.25"/>
<path d="M12.3086 372.378L7.69514 375.602L7.08635 368.758L12.3086 372.378Z" fill="white" fill-opacity="0.25"/>
<path d="M15.5209 356.607L16.1557 364.177L10.3651 360.163L15.5209 356.607Z" fill="white" fill-opacity="0.25"/>
<path d="M13.3104 332.439L13.9574 339.866L8.30906 335.951L13.3104 332.439Z" fill="white" fill-opacity="0.25"/>
<path d="M7.72266 323.883L3.48185 326.859L2.96274 320.583L7.72266 323.883Z" fill="white" fill-opacity="0.25"/>
<path d="M2.03872 418.446L2.40517 422.391L-0.614671 420.298L2.03872 418.446Z" fill="white" fill-opacity="0.25"/>
<path d="M14.3125 396.602L9.90107 399.662L9.33895 393.154L14.3125 396.602Z" fill="white" fill-opacity="0.25"/>
<path d="M17.6656 380.825L18.3003 388.395L12.5456 384.405L17.6656 380.825Z" fill="white" fill-opacity="0.25"/>
<path d="M30.4688 360.812L24.2993 365.081L23.5415 356.01L30.4688 360.812Z" fill="white" fill-opacity="0.25"/>
<path d="M33.0048 343.914L33.8204 353.632L26.4316 348.51L33.0048 343.914Z" fill="white" fill-opacity="0.25"/>
<path d="M28.2852 336.564L22.1671 340.819L21.3934 331.787L28.2852 336.564Z" fill="white" fill-opacity="0.25"/>
<path d="M11.1471 308.259L11.7548 315.557L6.17742 311.691L11.1471 308.259Z" fill="white" fill-opacity="0.25"/>
<path d="M5.71484 299.655L1.23647 302.771L0.706222 296.183L5.71484 299.655Z" fill="white" fill-opacity="0.25"/>
<path d="M4.06206 443.089L4.31183 446.195L1.93167 444.545L4.06206 443.089Z" fill="white" fill-opacity="0.25"/>
<path d="M16.0117 420.818L12.2774 423.438L11.7843 417.888L16.0117 420.818Z" fill="white" fill-opacity="0.25"/>
<path d="M19.7035 405.427L20.2768 412.246L15.0545 408.627L19.7035 405.427Z" fill="white" fill-opacity="0.25"/>
<path d="M32.5273 385.023L26.5279 389.209L25.742 380.32L32.5273 385.023Z" fill="white" fill-opacity="0.25"/>
<path d="M35.1692 368.201L35.9652 377.855L28.6119 372.757L35.1692 368.201Z" fill="white" fill-opacity="0.25"/>
<path d="M48.2422 349.182L41.079 354.228L40.1787 343.592L48.2422 349.182Z" fill="white" fill-opacity="0.25"/>
<path d="M30.8754 319.656L31.6947 329.477L24.1991 324.281L30.8754 319.656Z" fill="white" fill-opacity="0.25"/>
<path d="M26.2266 312.353L19.9382 316.691L19.157 307.452L26.2266 312.353Z" fill="white" fill-opacity="0.25"/>
<path d="M9.14294 283.579L9.87104 291.82L3.58305 287.462L9.14294 283.579Z" fill="white" fill-opacity="0.25"/>
<path d="M4.22656 275.484L-1.18296 279.219L-1.88406 271.249L4.22656 275.484Z" fill="white" fill-opacity="0.25"/>
<path d="M17.582 444.996L14.66 447.066L14.3143 442.731L17.582 444.996Z" fill="white" fill-opacity="0.25"/>
<path d="M21.5759 430.32L22.0494 435.806L17.8575 432.9L21.5759 430.32Z" fill="white" fill-opacity="0.25"/>
<path d="M34.3086 409.246L28.8318 413.035L28.127 404.961L34.3086 409.246Z" fill="white" fill-opacity="0.25"/>
<path d="M37.202 392.697L37.9954 401.793L31.0322 396.967L37.202 392.697Z" fill="white" fill-opacity="0.25"/>
<path d="M50.3359 373.419L43.2559 378.372L42.3788 367.903L50.3359 373.419Z" fill="white" fill-opacity="0.25"/>
<path d="M52.4417 356.022L53.3654 366.827L45.1237 361.114L52.4417 356.022Z" fill="white" fill-opacity="0.25"/>
<path d="M50.3782 331.605L51.2972 342.76L42.8072 336.874L50.3782 331.605Z" fill="white" fill-opacity="0.25"/>
<path d="M46.2695 324.979L38.8327 330.14L37.8856 319.168L46.2695 324.979Z" fill="white" fill-opacity="0.25"/>
<path d="M28.8217 295.092L29.7343 305.586L21.7413 300.045L28.8217 295.092Z" fill="white" fill-opacity="0.25"/>
<path d="M24.4961 288.115L17.6019 292.944L16.7163 282.722L24.4961 288.115Z" fill="white" fill-opacity="0.25"/>
<path d="M7.36255 258.448L8.22481 268.502L0.551453 263.183L7.36255 258.448Z" fill="white" fill-opacity="0.25"/>
<path d="M3.17188 251.26L-3.82508 256.118L-4.67882 245.818L3.17188 251.26Z" fill="white" fill-opacity="0.25"/>
<path d="M19.2656 469.248L17.0163 470.774L16.7432 467.5L19.2656 469.248Z" fill="white" fill-opacity="0.25"/>
<path d="M23.4982 455.092L23.8795 459.452L20.5401 457.137L23.4982 455.092Z" fill="white" fill-opacity="0.25"/>
<path d="M35.832 433.438L31.2347 436.623L30.6811 429.868L35.832 433.438Z" fill="white" fill-opacity="0.25"/>
<path d="M39.1399 417.43L39.8446 425.504L33.6989 421.243L39.1399 417.43Z" fill="white" fill-opacity="0.25"/>
<path d="M52.207 397.651L45.5307 402.277L44.7114 392.455L52.207 397.651Z" fill="white" fill-opacity="0.25"/>
<path d="M54.5248 380.402L55.4374 390.895L47.4444 385.355L54.5248 380.402Z" fill="white" fill-opacity="0.25"/>
<path d="M67.7344 361.831L60.1789 367.061L59.244 355.946L67.7344 361.831Z" fill="white" fill-opacity="0.25"/>
<path d="M69.6036 344.122L70.5814 355.469L61.9492 349.485L69.6036 344.122Z" fill="white" fill-opacity="0.25"/>
<path d="M65.7617 337.627L57.9525 343.035L56.9513 331.52L65.7617 337.627Z" fill="white" fill-opacity="0.25"/>
<path d="M48.2781 307.161L49.283 318.78L40.4016 312.624L48.2781 307.161Z" fill="white" fill-opacity="0.25"/>
<path d="M44.4375 300.771L36.5611 306.233L35.5561 294.614L44.4375 300.771Z" fill="white" fill-opacity="0.25"/>
<path d="M26.9803 270.123L27.9804 282.093L18.8507 275.765L26.9803 270.123Z" fill="white" fill-opacity="0.25"/>
<path d="M23.2852 263.934L15.0367 269.644L14.0132 257.506L23.2852 263.934Z" fill="white" fill-opacity="0.25"/>
<path d="M5.66563 233.021L6.73572 245.494L-2.74906 238.919L5.66563 233.021Z" fill="white" fill-opacity="0.25"/>
<path d="M2.13672 227.098L-6.43273 233.041L-7.52621 220.4L2.13672 227.098Z" fill="white" fill-opacity="0.25"/>
<path d="M6.01448 467.781L6.21496 469.993L4.50955 468.811L6.01448 467.781Z" fill="white" fill-opacity="0.25"/>
<path d="M25.4708 479.852L25.7795 483.15L23.2212 481.377L25.4708 479.852Z" fill="white" fill-opacity="0.25"/>
<path d="M37.3867 457.658L33.6527 460.278L33.1951 454.752L37.3867 457.658Z" fill="white" fill-opacity="0.25"/>
<path d="M41.0324 442.387L41.5983 448.999L36.5538 445.503L41.0324 442.387Z" fill="white" fill-opacity="0.25"/>
<path d="M53.8984 421.865L47.899 426.05L47.1131 417.162L53.8984 421.865Z" fill="white" fill-opacity="0.25"/>
<path d="M56.5785 404.962L57.4137 414.744L49.9536 409.573L56.5785 404.962Z" fill="white" fill-opacity="0.25"/>
<path d="M69.7422 386.056L62.4243 391.147L61.5005 380.343L69.7422 386.056Z" fill="white" fill-opacity="0.25"/>
<path d="M71.7064 368.563L72.6536 379.535L64.2696 373.724L71.7064 368.563Z" fill="white" fill-opacity="0.25"/>
<path d="M84.8203 350.229L77.249 355.498L76.2945 344.318L84.8203 350.229Z" fill="white" fill-opacity="0.25"/>
<path d="M67.5397 319.702L68.5323 331.464L59.5804 325.259L67.5397 319.702Z" fill="white" fill-opacity="0.25"/>
<path d="M63.8594 313.372L55.6981 319.092L54.6588 306.994L63.8594 313.372Z" fill="white" fill-opacity="0.25"/>
<path d="M46.3563 282.388L47.4179 295.109L37.7199 288.386L46.3563 282.388Z" fill="white" fill-opacity="0.25"/>
<path d="M43.0195 276.549L34.0622 282.779L32.9305 269.555L43.0195 276.549Z" fill="white" fill-opacity="0.25"/>
<path d="M25.1829 244.931L26.392 258.866L15.7342 251.479L25.1829 244.931Z" fill="white" fill-opacity="0.25"/>
<path d="M22.0938 239.714L12.4948 246.41L11.2587 232.203L22.0938 239.714Z" fill="white" fill-opacity="0.25"/>
<path d="M3.95409 207.735L5.18909 222.396L-5.96522 214.664L3.95409 207.735Z" fill="white" fill-opacity="0.25"/>
<path d="M1.32812 480.818L0.330019 481.492L0.191044 480.03L1.32812 480.818Z" fill="white" fill-opacity="0.25"/>
<path d="M39.0312 481.886L36.0217 483.946L35.6563 479.546L39.0312 481.886Z" fill="white" fill-opacity="0.25"/>
<path d="M42.9701 467.123L43.4632 472.673L39.2358 469.743L42.9701 467.123Z" fill="white" fill-opacity="0.25"/>
<path d="M55.457 446.083L50.2854 449.679L49.631 442.044L55.457 446.083Z" fill="white" fill-opacity="0.25"/>
<path d="M58.4966 429.737L59.2592 438.458L52.6161 433.853L58.4966 429.737Z" fill="white" fill-opacity="0.25"/>
<path d="M71.4883 410.254L64.7289 414.974L63.8863 404.984L71.4883 410.254Z" fill="white" fill-opacity="0.25"/>
<path d="M73.7361 393.06L74.645 403.45L66.7229 397.959L73.7361 393.06Z" fill="white" fill-opacity="0.25"/>
<path d="M86.6172 374.412L79.5371 379.365L78.6601 368.896L86.6172 374.412Z" fill="white" fill-opacity="0.25"/>
<path d="M88.6462 357.216L89.5551 367.605L81.6331 362.114L88.6462 357.216Z" fill="white" fill-opacity="0.25"/>
<path d="M86.6284 332.679L87.5596 343.691L79.1401 337.855L86.6284 332.679Z" fill="white" fill-opacity="0.25"/>
<path d="M82.832 325.964L75.0073 331.412L74.022 319.857L82.832 325.964Z" fill="white" fill-opacity="0.25"/>
<path d="M65.5561 295.087L66.6103 307.6L57.0542 300.976L65.5561 295.087Z" fill="white" fill-opacity="0.25"/>
<path d="M62.1992 289.181L53.3247 295.317L52.1808 282.236L62.1992 289.181Z" fill="white" fill-opacity="0.25"/>
<path d="M44.5596 257.197L45.7946 271.858L34.6402 264.126L44.5596 257.197Z" fill="white" fill-opacity="0.25"/>
<path d="M41.8086 252.367L31.5166 259.544L30.192 244.315L41.8086 252.367Z" fill="white" fill-opacity="0.25"/>
<path d="M23.4211 219.764L24.8037 235.64L12.6538 227.218L23.4211 219.764Z" fill="white" fill-opacity="0.25"/>
<path d="M20.9688 215.543L9.88102 223.23L8.49961 206.9L20.9688 215.543Z" fill="white" fill-opacity="0.25"/>
<path d="M0.890625 202.891L-8.96176 209.765L-10.2286 195.183L0.890625 202.891Z" fill="white" fill-opacity="0.25"/>
<path d="M8.04799 492.281L8.21028 493.911L6.96679 493.049L8.04799 492.281Z" fill="white" fill-opacity="0.25"/>
<path d="M21.0469 493.471L19.3558 494.625L19.1282 492.141L21.0469 493.471Z" fill="white" fill-opacity="0.25"/>
<path d="M40.7227 506.1L38.3899 507.719L38.0579 504.253L40.7227 506.1Z" fill="white" fill-opacity="0.25"/>
<path d="M44.9089 491.956L45.2547 496.292L41.9511 494.002L44.9089 491.956Z" fill="white" fill-opacity="0.25"/>
<path d="M57.0156 470.304L52.7231 473.295L52.1844 466.955L57.0156 470.304Z" fill="white" fill-opacity="0.25"/>
<path d="M60.3898 454.69L60.9778 461.924L55.4718 458.107L60.3898 454.69Z" fill="white" fill-opacity="0.25"/>
<path d="M73.1328 434.485L67.1336 438.67L66.3833 429.807L73.1328 434.485Z" fill="white" fill-opacity="0.25"/>
<path d="M75.7094 417.821L76.4942 427.163L69.3896 422.238L75.7094 417.821Z" fill="white" fill-opacity="0.25"/>
<path d="M88.4023 398.637L81.8805 403.218L81.049 393.539L88.4023 398.637Z" fill="white" fill-opacity="0.25"/>
<path d="M90.6498 381.896L91.458 391.407L84.1752 386.359L90.6498 381.896Z" fill="white" fill-opacity="0.25"/>
<path d="M103.082 362.785L96.8808 367.134L96.0838 357.934L103.082 362.785Z" fill="white" fill-opacity="0.25"/>
<path d="M105.426 346.364L106.176 355.228L99.3909 350.524L105.426 346.364Z" fill="white" fill-opacity="0.25"/>
<path d="M101.297 338.563L94.5375 343.283L93.6949 333.294L101.297 338.563Z" fill="white" fill-opacity="0.25"/>
<path d="M84.5746 308.117L85.5991 319.8L76.6823 313.619L84.5746 308.117Z" fill="white" fill-opacity="0.25"/>
<path d="M81.0312 301.779L72.6997 307.584L71.6529 295.278L81.0312 301.779Z" fill="white" fill-opacity="0.25"/>
<path d="M63.6287 270.211L64.8181 284.082L54.2318 276.743L63.6287 270.211Z" fill="white" fill-opacity="0.25"/>
<path d="M60.8672 264.968L50.8286 271.966L49.5347 257.112L60.8672 264.968Z" fill="white" fill-opacity="0.25"/>
<path d="M42.7976 232.029L44.222 248.591L31.5751 239.825L42.7976 232.029Z" fill="white" fill-opacity="0.25"/>
<path d="M40.6133 228.146L28.9356 236.283L27.4694 219.034L40.6133 228.146Z" fill="white" fill-opacity="0.25"/>
<path d="M21.6132 194.61L23.1495 212.362L9.61462 202.98L21.6132 194.61Z" fill="white" fill-opacity="0.25"/>
<path d="M19.5508 191.319L7.43352 199.759L5.90949 181.863L19.5508 191.319Z" fill="white" fill-opacity="0.25"/>
<path d="M2.15767 182.644L3.55874 199.038L-8.98175 190.345L2.15767 182.644Z" fill="white" fill-opacity="0.25"/>
<path d="M3.25 505.037L2.55701 505.517L2.46844 504.495L3.25 505.037Z" fill="white" fill-opacity="0.25"/>
<path d="M27.5051 504.349L27.7241 507.08L25.6639 505.652L27.5051 504.349Z" fill="white" fill-opacity="0.25"/>
<path d="M46.8613 516.652L47.1737 520.055L44.5803 518.257L46.8613 516.652Z" fill="white" fill-opacity="0.25"/>
<path d="M58.5391 494.495L55.1413 496.843L54.7022 491.836L58.5391 494.495Z" fill="white" fill-opacity="0.25"/>
<path d="M62.2619 479.582L62.7662 485.444L58.2901 482.341L62.2619 479.582Z" fill="white" fill-opacity="0.25"/>
<path d="M74.5508 458.708L69.5811 462.14L68.9734 454.842L74.5508 458.708Z" fill="white" fill-opacity="0.25"/>
<path d="M77.5663 442.75L78.2477 450.655L72.2085 446.469L77.5663 442.75Z" fill="white" fill-opacity="0.25"/>
<path d="M89.957 422.855L84.2785 426.808L83.5626 418.423L89.957 422.855Z" fill="white" fill-opacity="0.25"/>
<path d="M92.6029 406.59L93.3421 415.143L86.8413 410.636L92.6029 406.59Z" fill="white" fill-opacity="0.25"/>
<path d="M104.727 387.013L99.2498 390.802L98.545 382.728L104.727 387.013Z" fill="white" fill-opacity="0.25"/>
<path d="M107.394 371.017L108.095 378.987L102.02 374.776L107.394 371.017Z" fill="white" fill-opacity="0.25"/>
<path d="M119.266 351.17L114.296 354.602L113.688 347.304L119.266 351.17Z" fill="white" fill-opacity="0.25"/>
<path d="M103.422 321.684L104.273 331.427L96.8487 326.28L103.422 321.684Z" fill="white" fill-opacity="0.25"/>
<path d="M99.6016 314.352L92.2005 319.537L91.2535 308.565L99.6016 314.352Z" fill="white" fill-opacity="0.25"/>
<path d="M82.6065 283.462L83.6804 296.039L74.0888 289.39L82.6065 283.462Z" fill="white" fill-opacity="0.25"/>
<path d="M79.4219 277.577L70.3297 283.917L69.1551 270.461L79.4219 277.577Z" fill="white" fill-opacity="0.25"/>
<path d="M61.8364 245.124L63.1759 260.768L51.2038 252.469L61.8364 245.124Z" fill="white" fill-opacity="0.25"/>
<path d="M59.6172 240.761L48.2602 248.665L46.8284 231.896L59.6172 240.761Z" fill="white" fill-opacity="0.25"/>
<path d="M40.9508 206.954L42.5411 225.249L28.5798 215.571L40.9508 206.954Z" fill="white" fill-opacity="0.25"/>
<path d="M39.0898 203.951L26.533 212.693L24.9511 194.15L39.0898 203.951Z" fill="white" fill-opacity="0.25"/>
<path d="M19.6564 169.916L21.2616 188.626L6.98062 178.727L19.6564 169.916Z" fill="white" fill-opacity="0.25"/>
<path d="M10.1474 516.722L10.2594 517.912L9.3355 517.272L10.1474 516.722Z" fill="white" fill-opacity="0.25"/>
<path d="M22.9297 517.664L21.5954 518.61L21.4379 516.63L22.9297 517.664Z" fill="white" fill-opacity="0.25"/>
<path d="M60.1484 518.699L57.5467 520.537L57.1999 516.655L60.1484 518.699Z" fill="white" fill-opacity="0.25"/>
<path d="M64.1737 504.502L64.5428 509.005L61.0969 506.616L64.1737 504.502Z" fill="white" fill-opacity="0.25"/>
<path d="M75.9844 482.893L72.0484 485.676L71.5441 479.814L75.9844 482.893Z" fill="white" fill-opacity="0.25"/>
<path d="M79.4475 467.747L79.9863 474.088L75.1191 470.714L79.4475 467.747Z" fill="white" fill-opacity="0.25"/>
<path d="M91.5156 447.072L86.7004 450.46L86.0806 443.305L91.5156 447.072Z" fill="white" fill-opacity="0.25"/>
<path d="M94.5258 431.465L95.1494 438.724L89.5717 434.858L94.5258 431.465Z" fill="white" fill-opacity="0.25"/>
<path d="M106.418 411.227L101.603 414.614L100.983 407.459L106.418 411.227Z" fill="white" fill-opacity="0.25"/>
<path d="M109.367 395.778L109.944 402.701L104.651 399.032L109.367 395.778Z" fill="white" fill-opacity="0.25"/>
<path d="M121.016 375.367L116.656 378.413L116.078 371.944L121.016 375.367Z" fill="white" fill-opacity="0.25"/>
<path d="M124.113 360.326L124.624 366.395L119.971 363.169L124.113 360.326Z" fill="white" fill-opacity="0.25"/>
<path d="M122.14 335.566L122.759 342.721L117.289 338.929L122.14 335.566Z" fill="white" fill-opacity="0.25"/>
<path d="M117.625 326.941L111.931 330.933L111.195 322.484L117.625 326.941Z" fill="white" fill-opacity="0.25"/>
<path d="M101.5 296.912L102.443 307.78L94.1301 302.018L101.5 296.912Z" fill="white" fill-opacity="0.25"/>
<path d="M97.9062 290.137L89.8439 295.723L88.8475 283.857L97.9062 290.137Z" fill="white" fill-opacity="0.25"/>
<path d="M80.7152 258.61L81.869 272.457L71.3185 265.143L80.7152 258.61Z" fill="white" fill-opacity="0.25"/>
<path d="M78.0039 253.352L67.8467 260.419L66.565 245.422L78.0039 253.352Z" fill="white" fill-opacity="0.25"/>
<path d="M59.99 220.049L61.4759 237.361L48.2607 228.201L59.99 220.049Z" fill="white" fill-opacity="0.25"/>
<path d="M58.1836 216.578L45.8126 225.196L44.2223 206.9L58.1836 216.578Z" fill="white" fill-opacity="0.25"/>
<path d="M38.9674 182.339L40.6034 201.424L26.0382 191.328L38.9674 182.339Z" fill="white" fill-opacity="0.25"/>
<path d="M37.2578 179.743L24.2256 188.762L22.5859 169.573L37.2578 179.743Z" fill="white" fill-opacity="0.25"/>
<path d="M17.4883 167.103L5.23624 175.651L3.66924 157.523L17.4883 167.103Z" fill="white" fill-opacity="0.25"/>
<path d="M0.0240665 158.281L1.4521 174.946L-11.2299 166.155L0.0240665 158.281Z" fill="white" fill-opacity="0.25"/>
<path d="M5.30859 529.249L4.7859 529.645L4.70479 528.83L5.30859 529.249Z" fill="white" fill-opacity="0.25"/>
<path d="M29.5391 528.948L29.6966 530.928L28.1689 529.869L29.5391 528.948Z" fill="white" fill-opacity="0.25"/>
<path d="M42.5078 530.324L40.6981 531.548L40.4828 528.921L42.5078 530.324Z" fill="white" fill-opacity="0.25"/>
<path d="M61.8281 542.951L59.8836 544.284L59.6253 541.424L61.8281 542.951Z" fill="white" fill-opacity="0.25"/>
<path d="M66.0922 529.274L66.369 532.651L63.7756 530.854L66.0922 529.274Z" fill="white" fill-opacity="0.25"/>
<path d="M77.5078 507.089L74.4668 509.228L74.0978 504.725L77.5078 507.089Z" fill="white" fill-opacity="0.25"/>
<path d="M81.3198 492.637L81.7589 497.644L77.9221 494.985L81.3198 492.637Z" fill="white" fill-opacity="0.25"/>
<path d="M93.0391 471.269L89.1189 474.012L88.6343 468.215L93.0391 471.269Z" fill="white" fill-opacity="0.25"/>
<path d="M96.414 456.319L96.922 462.284L92.3749 459.132L96.414 456.319Z" fill="white" fill-opacity="0.25"/>
<path d="M108.027 435.429L103.972 438.281L103.445 432.252L108.027 435.429Z" fill="white" fill-opacity="0.25"/>
<path d="M111.305 420.513L111.809 426.375L107.333 423.272L111.305 420.513Z" fill="white" fill-opacity="0.25"/>
<path d="M122.711 399.579L118.993 402.16L118.519 396.673L122.711 399.579Z" fill="white" fill-opacity="0.25"/>
<path d="M126.081 384.98L126.527 390.195L122.549 387.437L126.081 384.98Z" fill="white" fill-opacity="0.25"/>
<path d="M137.27 363.696L134.042 365.96L133.646 361.184L137.27 363.696Z" fill="white" fill-opacity="0.25"/>
<path d="M140.907 349.332L141.322 354.171L137.628 351.61L140.907 349.332Z" fill="white" fill-opacity="0.25"/>
<path d="M135.66 339.493L131.657 342.331L131.149 336.366L135.66 339.493Z" fill="white" fill-opacity="0.25"/>
<path d="M120.221 310.795L120.933 319.076L114.574 314.668L120.221 310.795Z" fill="white" fill-opacity="0.25"/>
<path d="M116.016 302.738L109.541 307.201L108.733 297.69L116.016 302.738Z" fill="white" fill-opacity="0.25"/>
<path d="M99.5424 272.111L100.578 284.106L91.4484 277.777L99.5424 272.111Z" fill="white" fill-opacity="0.25"/>
<path d="M96.25 265.948L87.4944 272.015L86.3738 259.103L96.25 265.948Z" fill="white" fill-opacity="0.25"/>
<path d="M78.8073 233.695L80.0964 248.899L68.5156 240.872L78.8073 233.695Z" fill="white" fill-opacity="0.25"/>
<path d="M76.5352 229.143L65.4316 236.869L64.0305 220.475L76.5352 229.143Z" fill="white" fill-opacity="0.25"/>
<path d="M58.0873 195.236L59.6495 213.714L45.5463 203.938L58.0873 195.236Z" fill="white" fill-opacity="0.25"/>
<path d="M56.3984 192.353L43.4693 201.342L41.8333 182.256L56.3984 192.353Z" fill="white" fill-opacity="0.25"/>
<path d="M36.8025 158.052L38.4777 177.266L23.8058 167.096L36.8025 158.052Z" fill="white" fill-opacity="0.25"/>
<path d="M34.9062 155.479L22.1632 164.345L20.5543 145.531L34.9062 155.479Z" fill="white" fill-opacity="0.25"/>
<path d="M17.4316 145.891L18.9865 164.162L5.02513 154.484L17.4316 145.891Z" fill="white" fill-opacity="0.25"/>
<path d="M12.2459 541.061L12.3504 542.044L11.6043 541.527L12.2459 541.061Z" fill="white" fill-opacity="0.25"/>
<path d="M24.8516 541.881L23.8893 542.579L23.7504 541.117L24.8516 541.881Z" fill="white" fill-opacity="0.25"/>
<path d="M48.8693 541.334L49.0613 543.794L47.1785 542.488L48.8693 541.334Z" fill="white" fill-opacity="0.25"/>
<path d="M68.0604 553.929L68.272 556.452L66.3537 555.122L68.0604 553.929Z" fill="white" fill-opacity="0.25"/>
<path d="M79.1523 531.316L76.8358 532.896L76.559 529.519L79.1523 531.316Z" fill="white" fill-opacity="0.25"/>
<path d="M83.2231 517.449L83.5663 521.227L80.6887 519.232L83.2231 517.449Z" fill="white" fill-opacity="0.25"/>
<path d="M94.5977 495.486L91.5209 497.601L91.1518 493.098L94.5977 495.486Z" fill="white" fill-opacity="0.25"/>
<path d="M98.3243 481.132L98.772 485.892L95.1124 483.356L98.3243 481.132Z" fill="white" fill-opacity="0.25"/>
<path d="M109.762 459.669L106.313 462.032L105.889 456.985L109.762 459.669Z" fill="white" fill-opacity="0.25"/>
<path d="M113.273 445.163L113.712 450.171L109.911 447.536L113.273 445.163Z" fill="white" fill-opacity="0.25"/>
<path d="M124.527 423.827L121.28 426.026L120.868 421.291L124.527 423.827Z" fill="white" fill-opacity="0.25"/>
<path d="M128.099 409.515L128.488 414.083L125.006 411.669L128.099 409.515Z" fill="white" fill-opacity="0.25"/>
<path d="M139.137 387.928L136.313 389.864L135.975 385.736L139.137 387.928Z" fill="white" fill-opacity="0.25"/>
<path d="M142.863 374.026L143.21 377.908L140.262 375.864L142.863 374.026Z" fill="white" fill-opacity="0.25"/>
<path d="M153.957 352.071L151.237 353.978L150.902 349.954L153.957 352.071Z" fill="white" fill-opacity="0.25"/>
<path d="M138.969 324.596L139.473 330.458L134.961 327.33L138.969 324.596Z" fill="white" fill-opacity="0.25"/>
<path d="M134.051 315.288L129.251 318.636L128.651 311.545L134.051 315.288Z" fill="white" fill-opacity="0.25"/>
<path d="M118.267 285.996L119.107 295.428L111.895 290.429L118.267 285.996Z" fill="white" fill-opacity="0.25"/>
<path d="M114.457 278.518L107.139 283.609L106.215 272.805L114.457 278.518Z" fill="white" fill-opacity="0.25"/>
<path d="M97.5432 247.538L98.6404 260.283L88.9065 253.535L97.5432 247.538Z" fill="white" fill-opacity="0.25"/>
<path d="M94.4297 241.697L85.1875 248.185L84.0215 234.482L94.4297 241.697Z" fill="white" fill-opacity="0.25"/>
<path d="M76.8694 208.959L78.2472 225.186L65.8489 216.592L76.8694 208.959Z" fill="white" fill-opacity="0.25"/>
<path d="M74.8359 204.928L63.0393 213.134L61.5497 195.718L74.8359 204.928Z" fill="white" fill-opacity="0.25"/>
<path d="M55.9873 170.791L57.6354 189.733L43.1767 179.711L55.9873 170.791Z" fill="white" fill-opacity="0.25"/>
<path d="M54.2188 168.109L41.3412 177.084L39.7249 158.062L54.2188 168.109Z" fill="white" fill-opacity="0.25"/>
<path d="M34.4819 134.266L36.0723 152.562L22.0751 142.859L34.4819 134.266Z" fill="white" fill-opacity="0.25"/>
<path d="M14.7188 142.855L3.31036 150.775L1.89449 133.966L14.7188 142.855Z" fill="white" fill-opacity="0.25"/>
<path d="M-2.38855 134.732L-1.07979 150L-12.7319 141.923L-2.38855 134.732Z" fill="white" fill-opacity="0.25"/>
<path d="M7.4375 553.507L6.94576 553.824L6.90377 553.137L7.4375 553.507Z" fill="white" fill-opacity="0.25"/>
<path d="M31.5918 553.407L31.7148 554.908L30.5782 554.12L31.5918 553.407Z" fill="white" fill-opacity="0.25"/>
<path d="M44.3047 554.508L43.0218 555.439L42.8484 553.498L44.3047 554.508Z" fill="white" fill-opacity="0.25"/>
<path d="M80.9336 555.538L79.1753 556.747L78.944 554.159L80.9336 555.538Z" fill="white" fill-opacity="0.25"/>
<path d="M85.2269 542.129L85.4693 545.028L83.2669 543.501L85.2269 542.129Z" fill="white" fill-opacity="0.25"/>
<path d="M96.2031 519.69L93.9221 521.295L93.6097 517.893L96.2031 519.69Z" fill="white" fill-opacity="0.25"/>
<path d="M100.278 505.929L100.598 509.539L97.8271 507.618L100.278 505.929Z" fill="white" fill-opacity="0.25"/>
<path d="M111.367 483.873L108.714 485.725L108.347 481.78L111.367 483.873Z" fill="white" fill-opacity="0.25"/>
<path d="M115.262 469.883L115.596 473.908L112.541 471.79L115.262 469.883Z" fill="white" fill-opacity="0.25"/>
<path d="M126.273 448.024L123.62 449.877L123.289 445.956L126.273 448.024Z" fill="white" fill-opacity="0.25"/>
<path d="M130.121 434.157L130.465 437.935L127.551 435.916L130.121 434.157Z" fill="white" fill-opacity="0.25"/>
<path d="M141.008 412.161L138.608 413.835L138.308 410.29L141.008 412.161Z" fill="white" fill-opacity="0.25"/>
<path d="M144.928 398.548L145.202 401.822L142.679 400.074L144.928 398.548Z" fill="white" fill-opacity="0.25"/>
<path d="M155.688 376.312L153.608 377.753L153.343 374.686L155.688 376.312Z" fill="white" fill-opacity="0.25"/>
<path d="M159.804 362.781L160.054 365.887L157.674 364.237L159.804 362.781Z" fill="white" fill-opacity="0.25"/>
<path d="M157.831 338.021L158.189 342.213L155.028 340.021L157.831 338.021Z" fill="white" fill-opacity="0.25"/>
<path d="M152.262 327.857L148.9 330.23L148.497 325.247L152.262 327.857Z" fill="white" fill-opacity="0.25"/>
<path d="M137.03 299.759L137.647 306.811L132.247 303.068L137.03 299.759Z" fill="white" fill-opacity="0.25"/>
<path d="M132.355 291.074L126.915 294.888L126.21 286.814L132.355 291.074Z" fill="white" fill-opacity="0.25"/>
<path d="M116.31 261.303L117.219 271.692L109.261 266.176L116.31 261.303Z" fill="white" fill-opacity="0.25"/>
<path d="M112.535 254.3L104.845 259.639L103.903 248.316L112.535 254.3Z" fill="white" fill-opacity="0.25"/>
<path d="M95.5102 223.04L96.626 236.304L86.5015 229.286L95.5102 223.04Z" fill="white" fill-opacity="0.25"/>
<path d="M92.6836 217.5L82.8315 224.374L81.6002 209.817L92.6836 217.5Z" fill="white" fill-opacity="0.25"/>
<path d="M74.8506 184.321L76.3094 201.362L63.3074 192.349L74.8506 184.321Z" fill="white" fill-opacity="0.25"/>
<path d="M72.9688 180.698L60.784 189.192L59.2206 171.168L72.9688 180.698Z" fill="white" fill-opacity="0.25"/>
<path d="M53.7474 146.806L55.3255 165.245L41.2578 155.493L53.7474 146.806Z" fill="white" fill-opacity="0.25"/>
<path d="M51.7305 143.851L39.3084 152.483L37.7695 134.173L51.7305 143.851Z" fill="white" fill-opacity="0.25"/>
<path d="M31.9453 131.25L20.3349 139.333L18.8724 122.188L31.9453 131.25Z" fill="white" fill-opacity="0.25"/>
<path d="M14.8693 122.595L16.2507 138.925L3.81739 130.306L14.8693 122.595Z" fill="white" fill-opacity="0.25"/>
<path d="M14.3916 565.386L14.4372 566.176L13.8334 565.757L14.3916 565.386Z" fill="white" fill-opacity="0.25"/>
<path d="M26.8555 566.108L26.0952 566.643L26.003 565.517L26.8555 566.108Z" fill="white" fill-opacity="0.25"/>
<path d="M50.868 565.908L51.0181 567.681L49.6682 566.745L50.868 565.908Z" fill="white" fill-opacity="0.25"/>
<path d="M63.5703 567.15L62.2002 568.072L62.0427 566.092L63.5703 567.15Z" fill="white" fill-opacity="0.25"/>
<path d="M82.6836 579.736L81.4838 580.573L81.3337 578.801L82.6836 579.736Z" fill="white" fill-opacity="0.25"/>
<path d="M87.2298 566.706L87.4107 568.854L85.7766 567.721L87.2298 566.706Z" fill="white" fill-opacity="0.25"/>
<path d="M97.9336 543.929L96.2425 545.083L96.0149 542.599L97.9336 543.929Z" fill="white" fill-opacity="0.25"/>
<path d="M102.231 530.624L102.482 533.275L100.457 531.872L102.231 530.624Z" fill="white" fill-opacity="0.25"/>
<path d="M113.027 508.061L111.067 509.432L110.825 506.534L113.027 508.061Z" fill="white" fill-opacity="0.25"/>
<path d="M117.199 494.619L117.461 497.582L115.187 496.006L117.199 494.619Z" fill="white" fill-opacity="0.25"/>
<path d="M127.973 472.242L125.961 473.629L125.699 470.666L127.973 472.242Z" fill="white" fill-opacity="0.25"/>
<path d="M132.105 458.772L132.367 461.734L130.094 460.158L132.105 458.772Z" fill="white" fill-opacity="0.25"/>
<path d="M142.824 436.408L140.896 437.701L140.657 434.906L142.824 436.408Z" fill="white" fill-opacity="0.25"/>
<path d="M146.977 423.004L147.216 425.799L145.084 424.322L146.977 423.004Z" fill="white" fill-opacity="0.25"/>
<path d="M157.559 400.545L155.868 401.699L155.676 399.24L157.559 400.545Z" fill="white" fill-opacity="0.25"/>
<path d="M161.787 387.395L162.027 389.736L160.215 388.48L161.787 387.395Z" fill="white" fill-opacity="0.25"/>
<path d="M172.512 364.679L170.738 365.927L170.523 363.3L172.512 364.679Z" fill="white" fill-opacity="0.25"/>
<path d="M176.805 351.273L177.047 354.171L174.845 352.645L176.805 351.273Z" fill="white" fill-opacity="0.25"/>
<path d="M170.867 340.451L168.384 342.219L168.061 338.506L170.867 340.451Z" fill="white" fill-opacity="0.25"/>
<path d="M155.878 313.325L156.305 318.476L152.398 315.767L155.878 313.325Z" fill="white" fill-opacity="0.25"/>
<path d="M150.602 303.671L146.562 306.484L146.019 300.494L150.602 303.671Z" fill="white" fill-opacity="0.25"/>
<path d="M135.028 275.186L135.67 282.963L129.738 278.851L135.028 275.186Z" fill="white" fill-opacity="0.25"/>
<path d="M130.52 266.866L124.603 270.957L123.876 262.261L130.52 266.866Z" fill="white" fill-opacity="0.25"/>
<path d="M114.207 236.858L115.131 247.663L106.889 241.95L114.207 236.858Z" fill="white" fill-opacity="0.25"/>
<path d="M110.531 230.075L102.655 235.538L101.65 223.919L110.531 230.075Z" fill="white" fill-opacity="0.25"/>
<path d="M93.4718 198.437L94.6845 212.476L83.9917 205.064L93.4718 198.437Z" fill="white" fill-opacity="0.25"/>
<path d="M90.8984 193.278L80.5392 200.509L79.2109 185.177L90.8984 193.278Z" fill="white" fill-opacity="0.25"/>
<path d="M72.771 159.941L74.2606 177.358L60.9744 168.148L72.771 159.941Z" fill="white" fill-opacity="0.25"/>
<path d="M70.7383 156.467L58.621 164.906L57.097 147.011L70.7383 156.467Z" fill="white" fill-opacity="0.25"/>
<path d="M51.3914 122.995L52.9043 140.58L39.5117 131.296L51.3914 122.995Z" fill="white" fill-opacity="0.25"/>
<path d="M48.8594 119.633L37.4507 127.552L35.9992 110.719L48.8594 119.633Z" fill="white" fill-opacity="0.25"/>
<path d="M31.9361 111.031L33.2978 127.297L20.9 118.702L31.9361 111.031Z" fill="white" fill-opacity="0.25"/>
<path d="M11.293 118.558L1.69431 125.254L0.493756 111.072L11.293 118.558Z" fill="white" fill-opacity="0.25"/>
<path d="M33.6876 577.849L33.7443 578.95L32.9276 578.384L33.6876 577.849Z" fill="white" fill-opacity="0.25"/>
<path d="M46.2109 578.764L45.2801 579.383L45.1448 578.025L46.2109 578.764Z" fill="white" fill-opacity="0.25"/>
<path d="M70.0985 578.53L70.2486 580.303L68.8987 579.367L70.0985 578.53Z" fill="white" fill-opacity="0.25"/>
<path d="M89.2681 591.307L89.3715 592.744L88.3061 592.006L89.2681 591.307Z" fill="white" fill-opacity="0.25"/>
<path d="M99.7695 568.14L98.5697 568.977L98.4196 567.204L99.7695 568.14Z" fill="white" fill-opacity="0.25"/>
<path d="M104.266 555.224L104.404 557.14L102.948 556.131L104.266 555.224Z" fill="white" fill-opacity="0.25"/>
<path d="M114.727 532.277L113.444 533.208L113.27 531.268L114.727 532.277Z" fill="white" fill-opacity="0.25"/>
<path d="M119.176 519.378L119.349 521.319L117.857 520.285L119.176 519.378Z" fill="white" fill-opacity="0.25"/>
<path d="M129.664 496.455L128.329 497.401L128.136 495.396L129.664 496.455Z" fill="white" fill-opacity="0.25"/>
<path d="M134.094 483.491L134.251 485.471L132.724 484.412L134.094 483.491Z" fill="white" fill-opacity="0.25"/>
<path d="M144.57 460.606L143.236 461.552L143.043 459.548L144.57 460.606Z" fill="white" fill-opacity="0.25"/>
<path d="M148.969 447.724L149.139 449.561L147.718 448.576L148.969 447.724Z" fill="white" fill-opacity="0.25"/>
<path d="M159.426 424.773L158.174 425.625L158.005 423.788L159.426 424.773Z" fill="white" fill-opacity="0.25"/>
<path d="M163.857 411.917L163.971 413.665L162.657 412.754L163.857 411.917Z" fill="white" fill-opacity="0.25"/>
<path d="M174.258 388.881L173.094 389.742L172.944 387.97L174.258 388.881Z" fill="white" fill-opacity="0.25"/>
<path d="M178.794 375.992L178.931 377.908L177.475 376.898L178.794 375.992Z" fill="white" fill-opacity="0.25"/>
<path d="M189.562 353.058L187.84 354.291L187.609 351.703L189.562 353.058Z" fill="white" fill-opacity="0.25"/>
<path d="M174.852 326.577L175.163 330.434L172.215 328.39L174.852 326.577Z" fill="white" fill-opacity="0.25"/>
<path d="M169.176 316.241L166.032 318.411L165.659 313.803L169.176 316.241Z" fill="white" fill-opacity="0.25"/>
<path d="M153.879 288.751L154.383 294.613L149.871 291.486L153.879 288.751Z" fill="white" fill-opacity="0.25"/>
<path d="M148.73 279.438L144.252 282.553L143.686 275.941L148.73 279.438Z" fill="white" fill-opacity="0.25"/>
<path d="M132.913 250.78L133.637 258.918L127.42 254.609L132.913 250.78Z" fill="white" fill-opacity="0.25"/>
<path d="M128.566 242.628L122.381 246.937L121.604 237.801L128.566 242.628Z" fill="white" fill-opacity="0.25"/>
<path d="M112.082 212.6L112.99 223.444L104.713 217.706L112.082 212.6Z" fill="white" fill-opacity="0.25"/>
<path d="M108.523 205.848L100.445 211.474L99.3934 199.519L108.523 205.848Z" fill="white" fill-opacity="0.25"/>
<path d="M91.4578 173.903L92.7088 188.525L81.554 180.793L91.4578 173.903Z" fill="white" fill-opacity="0.25"/>
<path d="M88.9805 169.061L78.2648 176.5L76.9019 160.688L88.9805 169.061Z" fill="white" fill-opacity="0.25"/>
<path d="M70.5569 135.774L72.0391 152.984L58.9307 143.897L70.5569 135.774Z" fill="white" fill-opacity="0.25"/>
<path d="M68.2773 132.23L56.5997 140.368L55.1334 123.119L68.2773 132.23Z" fill="white" fill-opacity="0.25"/>
<path d="M48.9406 99.5252L50.3108 115.544L38.0904 107.073L48.9406 99.5252Z" fill="white" fill-opacity="0.25"/>
<path d="M28.3828 106.957L18.7325 113.668L17.5123 99.4217L28.3828 106.957Z" fill="white" fill-opacity="0.25"/>
<path d="M12.0502 100.029L13.1549 112.982L3.24323 106.111L12.0502 100.029Z" fill="white" fill-opacity="0.25"/>
<path d="M52.901 590.405L53.0326 591.659L52.0732 590.995L52.901 590.405Z" fill="white" fill-opacity="0.25"/>
<path d="M65.4414 591.383L64.495 592.042L64.3757 590.644L65.4414 591.383Z" fill="white" fill-opacity="0.25"/>
<path d="M101.637 592.367L100.825 592.917L100.749 591.752L101.637 592.367Z" fill="white" fill-opacity="0.25"/>
<path d="M106.284 579.761L106.399 581.054L105.405 580.365L106.284 579.761Z" fill="white" fill-opacity="0.25"/>
<path d="M116.594 556.511L115.715 557.115L115.599 555.821L116.594 556.511Z" fill="white" fill-opacity="0.25"/>
<path d="M121.19 543.913L121.306 545.207L120.311 544.517L121.19 543.913Z" fill="white" fill-opacity="0.25"/>
<path d="M131.41 520.652L130.65 521.187L130.558 520.061L131.41 520.652Z" fill="white" fill-opacity="0.25"/>
<path d="M136.062 508.146L136.154 509.272L135.302 508.681L136.062 508.146Z" fill="white" fill-opacity="0.25"/>
<path d="M146.316 484.804L145.556 485.339L145.464 484.213L146.316 484.804Z" fill="white" fill-opacity="0.25"/>
<path d="M150.968 472.302L151.061 473.428L150.208 472.837L150.968 472.302Z" fill="white" fill-opacity="0.25"/>
<path d="M161.277 448.945L160.434 449.574L160.354 448.305L161.277 448.945Z" fill="white" fill-opacity="0.25"/>
<path d="M165.905 436.372L166.021 437.666L165.062 437.001L165.905 436.372Z" fill="white" fill-opacity="0.25"/>
<path d="M176.215 413.122L175.336 413.726L175.256 412.457L176.215 413.122Z" fill="white" fill-opacity="0.25"/>
<path d="M180.811 400.526L180.927 401.82L179.932 401.131L180.811 400.526Z" fill="white" fill-opacity="0.25"/>
<path d="M191.348 377.279L190.148 378.116L189.998 376.344L191.348 377.279Z" fill="white" fill-opacity="0.25"/>
<path d="M195.894 364.25L196.075 366.398L194.441 365.265L195.894 364.25Z" fill="white" fill-opacity="0.25"/>
<path d="M193.907 339.632L194.133 342.57L191.895 341.019L193.907 339.632Z" fill="white" fill-opacity="0.25"/>
<path d="M187.855 328.884L185.487 330.479L185.191 327.037L187.855 328.884Z" fill="white" fill-opacity="0.25"/>
<path d="M172.849 301.897L173.261 306.633L169.673 304.146L172.849 301.897Z" fill="white" fill-opacity="0.25"/>
<path d="M167.289 292.046L163.757 294.502L163.31 289.288L167.289 292.046Z" fill="white" fill-opacity="0.25"/>
<path d="M151.761 264.347L152.276 270.52L147.587 267.269L151.761 264.347Z" fill="white" fill-opacity="0.25"/>
<path d="M146.586 255.217L142.091 258.372L141.506 251.695L146.586 255.217Z" fill="white" fill-opacity="0.25"/>
<path d="M130.8 226.481L131.476 234.738L125.189 230.379L130.8 226.481Z" fill="white" fill-opacity="0.25"/>
<path d="M126.371 218.421L120.202 222.69L119.444 213.619L126.371 218.421Z" fill="white" fill-opacity="0.25"/>
<path d="M109.949 188.337L110.861 199.284L102.513 193.497L109.949 188.337Z" fill="white" fill-opacity="0.25"/>
<path d="M106.566 181.606L98.1676 187.465L97.1171 175.056L106.566 181.606Z" fill="white" fill-opacity="0.25"/>
<path d="M89.3543 149.46L90.6556 164.521L79.1454 156.543L89.3543 149.46Z" fill="white" fill-opacity="0.25"/>
<path d="M86.9766 144.836L76.0591 152.438L74.6852 136.316L86.9766 144.836Z" fill="white" fill-opacity="0.25"/>
<path d="M68.282 111.868L69.7064 128.43L57.0595 119.663L68.282 111.868Z" fill="white" fill-opacity="0.25"/>
<path d="M65.5977 107.993L54.6289 115.611L53.2708 99.4482L65.5977 107.993Z" fill="white" fill-opacity="0.25"/>
<path d="M45.4688 95.3564L35.8184 102.067L34.5982 87.8212L45.4688 95.3564Z" fill="white" fill-opacity="0.25"/>
<path d="M29.1165 88.364L30.2248 101.42L20.2781 94.5252L29.1165 88.364Z" fill="white" fill-opacity="0.25"/>
<path d="M7.33203 94.2422L0.251961 99.1948L-0.625095 88.7261L7.33203 94.2422Z" fill="white" fill-opacity="0.25"/>
<path d="M72.132 603.027L72.2439 604.217L71.3559 603.601L72.132 603.027Z" fill="white" fill-opacity="0.25"/>
<path d="M84.5508 603.969L83.7905 604.504L83.6983 603.378L84.5508 603.969Z" fill="white" fill-opacity="0.25"/>
<path d="M103.504 616.601L103.131 616.849L103.041 616.28L103.504 616.601Z" fill="white" fill-opacity="0.25"/>
<path d="M108.352 604.281L108.394 604.969L107.861 604.599L108.352 604.281Z" fill="white" fill-opacity="0.25"/>
<path d="M118.551 580.748L117.976 581.159L117.876 580.28L118.551 580.748Z" fill="white" fill-opacity="0.25"/>
<path d="M123.274 568.399L123.32 569.189L122.716 568.77L123.274 568.399Z" fill="white" fill-opacity="0.25"/>
<path d="M133.316 544.909L132.943 545.157L132.853 544.589L133.316 544.909Z" fill="white" fill-opacity="0.25"/>
<path d="M138.131 532.667L138.15 533.185L137.759 532.915L138.131 532.667Z" fill="white" fill-opacity="0.25"/>
<path d="M148.188 509.037L147.851 509.309L147.797 508.766L148.188 509.037Z" fill="white" fill-opacity="0.25"/>
<path d="M153.037 496.823L153.056 497.342L152.665 497.071L153.037 496.823Z" fill="white" fill-opacity="0.25"/>
<path d="M163.18 473.202L162.739 473.505L162.681 472.857L163.18 473.202Z" fill="white" fill-opacity="0.25"/>
<path d="M167.989 460.856L168.035 461.646L167.431 461.227L167.989 460.856Z" fill="white" fill-opacity="0.25"/>
<path d="M178.188 437.324L177.582 437.814L177.513 436.856L178.188 437.324Z" fill="white" fill-opacity="0.25"/>
<path d="M182.942 424.89L182.995 425.888L182.249 425.371L182.942 424.89Z" fill="white" fill-opacity="0.25"/>
<path d="M193.266 401.497L192.422 402.126L192.307 400.832L193.266 401.497Z" fill="white" fill-opacity="0.25"/>
<path d="M197.943 388.808L198.066 390.309L196.894 389.497L197.943 388.808Z" fill="white" fill-opacity="0.25"/>
<path d="M208.605 365.694L207.152 366.71L206.936 364.537L208.605 365.694Z" fill="white" fill-opacity="0.25"/>
<path d="M213.057 352.447L213.252 355.01L211.298 353.656L213.057 352.447Z" fill="white" fill-opacity="0.25"/>
<path d="M206.789 341.451L204.829 342.823L204.587 339.924L206.789 341.451Z" fill="white" fill-opacity="0.25"/>
<path d="M191.903 314.953L192.214 318.81L189.302 316.791L191.903 314.953Z" fill="white" fill-opacity="0.25"/>
<path d="M186.082 304.619L183.16 306.689L182.778 302.329L186.082 304.619Z" fill="white" fill-opacity="0.25"/>
<path d="M170.785 277.483L171.211 282.633L167.304 279.924L170.785 277.483Z" fill="white" fill-opacity="0.25"/>
<path d="M165.16 267.786L161.612 270.282L161.146 265.003L165.16 267.786Z" fill="white" fill-opacity="0.25"/>
<path d="M149.552 240.283L150.02 246.12L145.58 243.041L149.552 240.283Z" fill="white" fill-opacity="0.25"/>
<path d="M144.355 230.987L139.96 234.009L139.417 227.564L144.355 230.987Z" fill="white" fill-opacity="0.25"/>
<path d="M128.589 202.311L129.313 210.448L123.096 206.139L128.589 202.311Z" fill="white" fill-opacity="0.25"/>
<path d="M124.102 194.165L118.102 198.35L117.352 189.486L124.102 194.165Z" fill="white" fill-opacity="0.25"/>
<path d="M107.899 163.774L108.904 175.394L100.059 169.262L107.899 163.774Z" fill="white" fill-opacity="0.25"/>
<path d="M104.734 157.398L95.8957 163.56L94.7518 150.479L104.734 157.398Z" fill="white" fill-opacity="0.25"/>
<path d="M87.3056 125.003L88.6414 140.543L76.7761 132.318L87.3056 125.003Z" fill="white" fill-opacity="0.25"/>
<path d="M84.793 120.589L73.8759 128.191L72.5375 112.093L84.793 120.589Z" fill="white" fill-opacity="0.25"/>
<path d="M65.9261 88.0571L67.2852 103.765L55.3134 95.4663L65.9261 88.0571Z" fill="white" fill-opacity="0.25"/>
<path d="M62.793 83.7207L52.7547 90.7189L51.4964 75.8899L62.793 83.7207Z" fill="white" fill-opacity="0.25"/>
<path d="M46.302 76.527L47.4448 90.0622L37.1071 82.8963L46.302 76.527Z" fill="white" fill-opacity="0.25"/>
<path d="M24.4531 82.665L17.3369 87.5932L16.4243 77.0998L24.4531 82.665Z" fill="white" fill-opacity="0.25"/>
<path d="M9.10437 77.6766L9.89772 86.7725L2.9346 81.946L9.10437 77.6766Z" fill="white" fill-opacity="0.25"/>
<path d="M91.2662 615.884L91.3278 616.635L90.7585 616.241L91.2662 615.884Z" fill="white" fill-opacity="0.25"/>
<path d="M110.37 628.82L110.374 628.925L110.302 628.875L110.37 628.82Z" fill="white" fill-opacity="0.25"/>
<path d="M120.508 604.99L120.203 605.184L120.152 604.744L120.508 604.99Z" fill="white" fill-opacity="0.25"/>
<path d="M125.354 592.774L125.388 593.253L125.033 593.007L125.354 592.774Z" fill="white" fill-opacity="0.25"/>
<path d="M135.34 569.097L135.137 569.261L135.126 568.948L135.34 569.097Z" fill="white" fill-opacity="0.25"/>
<path d="M140.21 557.047L140.217 557.256L140.074 557.157L140.21 557.047Z" fill="white" fill-opacity="0.25"/>
<path d="M150.145 533.278L150.092 533.294L150.072 533.229L150.145 533.278Z" fill="white" fill-opacity="0.25"/>
<path d="M155.085 521.28L155.105 521.345L155.032 521.295L155.085 521.28Z" fill="white" fill-opacity="0.25"/>
<path d="M165.137 497.441L164.965 497.526L164.922 497.293L165.137 497.441Z" fill="white" fill-opacity="0.25"/>
<path d="M170.041 485.316L170.088 485.651L169.803 485.454L170.041 485.316Z" fill="white" fill-opacity="0.25"/>
<path d="M180.176 461.589L179.803 461.837L179.749 461.293L180.176 461.589Z" fill="white" fill-opacity="0.25"/>
<path d="M185.044 449.232L185.089 450.024L184.52 449.629L185.044 449.232Z" fill="white" fill-opacity="0.25"/>
<path d="M195.309 425.745L194.616 426.226L194.527 425.203L195.309 425.745Z" fill="white" fill-opacity="0.25"/>
<path d="M200.026 413.188L200.138 414.378L199.214 413.738L200.026 413.188Z" fill="white" fill-opacity="0.25"/>
<path d="M210.523 389.913L209.391 390.696L209.244 389.027L210.523 389.913Z" fill="white" fill-opacity="0.25"/>
<path d="M215.093 376.948L215.286 378.952L213.723 377.869L215.093 376.948Z" fill="white" fill-opacity="0.25"/>
<path d="M225.879 354.074L224.105 355.322L223.89 352.695L225.879 354.074Z" fill="white" fill-opacity="0.25"/>
<path d="M211.007 327.888L211.296 331.123L208.845 329.423L211.007 327.888Z" fill="white" fill-opacity="0.25"/>
<path d="M204.953 317.241L202.538 318.955L202.218 315.345L204.953 317.241Z" fill="white" fill-opacity="0.25"/>
<path d="M189.869 290.456L190.27 294.88L186.859 292.516L189.869 290.456Z" fill="white" fill-opacity="0.25"/>
<path d="M184.117 280.418L180.921 282.602L180.529 277.931L184.117 280.418Z" fill="white" fill-opacity="0.25"/>
<path d="M168.541 253.494L168.913 258.101L165.397 255.663L168.541 253.494Z" fill="white" fill-opacity="0.25"/>
<path d="M162.738 243.576L159.527 245.8L159.115 241.064L162.738 243.576Z" fill="white" fill-opacity="0.25"/>
<path d="M147.291 216.234L147.764 221.72L143.572 218.814L147.291 216.234Z" fill="white" fill-opacity="0.25"/>
<path d="M142.035 206.747L137.861 209.669L137.31 203.472L142.035 206.747Z" fill="white" fill-opacity="0.25"/>
<path d="M126.394 178.211L127.076 186.116L121.037 181.93L126.394 178.211Z" fill="white" fill-opacity="0.25"/>
<path d="M122.043 169.952L115.909 174.246L115.116 165.15L122.043 169.952Z" fill="white" fill-opacity="0.25"/>
<path d="M105.927 139.12L106.997 151.594L97.4407 144.97L105.927 139.12Z" fill="white" fill-opacity="0.25"/>
<path d="M102.984 133.198L93.5358 139.746L92.3266 125.811L102.984 133.198Z" fill="white" fill-opacity="0.25"/>
<path d="M85.1563 100.675L86.5155 116.383L74.5079 108.06L85.1563 100.675Z" fill="white" fill-opacity="0.25"/>
<path d="M82.4766 96.3467L71.797 103.81L70.4697 88.0233L82.4766 96.3467Z" fill="white" fill-opacity="0.25"/>
<path d="M63.5746 64.3465L64.8452 79.0323L53.655 71.2754L63.5746 64.3465Z" fill="white" fill-opacity="0.25"/>
<path d="M41.957 71.0469L34.2154 76.4009L33.2534 65.0137L41.957 71.0469Z" fill="white" fill-opacity="0.25"/>
<path d="M26.2862 65.8367L27.114 75.4115L19.7958 70.3388L26.2862 65.8367Z" fill="white" fill-opacity="0.25"/>
<path d="M3.30078 69.9785L-1.11065 73.0394L-1.67277 66.531L3.30078 69.9785Z" fill="white" fill-opacity="0.25"/>
<path d="M137.383 593.346L137.33 593.361L137.31 593.296L137.383 593.346Z" fill="white" fill-opacity="0.25"/>
<path d="M182.188 485.815L182.016 485.9L182.008 485.691L182.188 485.815Z" fill="white" fill-opacity="0.25"/>
<path d="M187.107 473.648L187.174 474.048L186.854 473.827L187.107 473.648Z" fill="white" fill-opacity="0.25"/>
<path d="M197.367 449.957L196.809 450.329L196.763 449.538L197.367 449.957Z" fill="white" fill-opacity="0.25"/>
<path d="M202.121 437.528L202.19 438.486L201.48 437.994L202.121 437.528Z" fill="white" fill-opacity="0.25"/>
<path d="M212.5 414.118L211.621 414.722L211.541 413.453L212.5 414.118Z" fill="white" fill-opacity="0.25"/>
<path d="M217.142 401.405L217.301 402.93L216.128 402.118L217.142 401.405Z" fill="white" fill-opacity="0.25"/>
<path d="M227.801 378.291L226.363 379.267L226.202 377.183L227.801 378.291Z" fill="white" fill-opacity="0.25"/>
<path d="M232.206 365.166L232.41 367.482L230.669 366.275L232.206 365.166Z" fill="white" fill-opacity="0.25"/>
<path d="M230.191 340.627L230.453 343.59L228.179 342.014L230.191 340.627Z" fill="white" fill-opacity="0.25"/>
<path d="M224.012 329.845L221.85 331.38L221.561 328.146L224.012 329.845Z" fill="white" fill-opacity="0.25"/>
<path d="M208.989 303.353L209.3 307.209L206.352 305.165L208.989 303.353Z" fill="white" fill-opacity="0.25"/>
<path d="M203.086 293.012L200.247 294.988L199.925 290.82L203.086 293.012Z" fill="white" fill-opacity="0.25"/>
<path d="M187.643 266.328L188.037 270.545L184.803 268.304L187.643 266.328Z" fill="white" fill-opacity="0.25"/>
<path d="M181.656 256.183L178.9 258.065L178.53 254.016L181.656 256.183Z" fill="white" fill-opacity="0.25"/>
<path d="M166.2 229.643L166.527 233.46L163.614 231.441L166.2 229.643Z" fill="white" fill-opacity="0.25"/>
<path d="M160.195 219.333L157.542 221.185L157.175 217.24L160.195 219.333Z" fill="white" fill-opacity="0.25"/>
<path d="M145.081 192.173L145.508 197.323L141.601 194.615L145.081 192.173Z" fill="white" fill-opacity="0.25"/>
<path d="M139.805 182.515L135.714 185.343L135.222 179.338L139.805 182.515Z" fill="white" fill-opacity="0.25"/>
<path d="M124.326 153.79L125.039 162.071L118.679 157.663L124.326 153.79Z" fill="white" fill-opacity="0.25"/>
<path d="M120.398 145.724L113.52 150.513L112.654 140.355L120.398 145.724Z" fill="white" fill-opacity="0.25"/>
<path d="M103.974 114.323L105.136 127.922L94.7628 120.732L103.974 114.323Z" fill="white" fill-opacity="0.25"/>
<path d="M101.203 108.977L91.2318 115.92L89.9416 101.17L101.203 108.977Z" fill="white" fill-opacity="0.25"/>
<path d="M83.0124 76.4577L84.336 92.141L72.3642 83.8423L83.0124 76.4577Z" fill="white" fill-opacity="0.25"/>
<path d="M80.1914 72.1318L69.6619 79.4471L68.3261 63.9071L80.1914 72.1318Z" fill="white" fill-opacity="0.25"/>
<path d="M59.75 59.4834L50.9788 65.5901L49.8742 52.6376L59.75 59.4834Z" fill="white" fill-opacity="0.25"/>
<path d="M43.6051 53.5405L44.5521 64.5128L36.204 58.7259L43.6051 53.5405Z" fill="white" fill-opacity="0.25"/>
<path d="M20.75 58.3779L15.7803 61.8103L15.1726 54.5118L20.75 58.3779Z" fill="white" fill-opacity="0.25"/>
<path d="M6.28618 55.1102L6.76715 60.8037L2.43327 57.7995L6.28618 55.1102Z" fill="white" fill-opacity="0.25"/>
<path d="M189.222 498.053L189.242 498.118L189.169 498.069L189.222 498.053Z" fill="white" fill-opacity="0.25"/>
<path d="M199.32 474.201L199.067 474.38L199 473.98L199.32 474.201Z" fill="white" fill-opacity="0.25"/>
<path d="M204.224 461.968L204.278 462.512L203.851 462.216L204.224 461.968Z" fill="white" fill-opacity="0.25"/>
<path d="M214.504 438.342L213.863 438.807L213.794 437.849L214.504 438.342Z" fill="white" fill-opacity="0.25"/>
<path d="M219.242 425.849L219.315 426.911L218.498 426.345L219.242 425.849Z" fill="white" fill-opacity="0.25"/>
<path d="M229.672 402.524L228.658 403.238L228.499 401.712L229.672 402.524Z" fill="white" fill-opacity="0.25"/>
<path d="M234.29 389.646L234.424 391.459L233.039 390.498L234.29 389.646Z" fill="white" fill-opacity="0.25"/>
<path d="M244.938 366.677L243.417 367.747L243.197 365.47L244.938 366.677Z" fill="white" fill-opacity="0.25"/>
<path d="M249.323 353.483L249.515 355.942L247.668 354.661L249.323 353.483Z" fill="white" fill-opacity="0.25"/>
<path d="M243.055 342.483L241.126 343.776L240.887 340.981L243.055 342.483Z" fill="white" fill-opacity="0.25"/>
<path d="M228.142 316.171L228.439 319.613L225.774 317.766L228.142 316.171Z" fill="white" fill-opacity="0.25"/>
<path d="M222.094 305.628L219.575 307.371L219.252 303.658L222.094 305.628Z" fill="white" fill-opacity="0.25"/>
<path d="M206.824 279.067L207.155 282.988L204.171 280.92L206.824 279.067Z" fill="white" fill-opacity="0.25"/>
<path d="M200.715 268.785L198.18 270.568L197.837 266.791L200.715 268.785Z" fill="white" fill-opacity="0.25"/>
<path d="M185.319 242.54L185.592 245.814L183.106 244.091L185.319 242.54Z" fill="white" fill-opacity="0.25"/>
<path d="M178.941 231.921L176.965 233.332L176.704 230.369L178.941 231.921Z" fill="white" fill-opacity="0.25"/>
<path d="M163.894 205.817L164.14 208.82L161.831 207.219L163.894 205.817Z" fill="white" fill-opacity="0.25"/>
<path d="M157.789 195.081L155.472 196.661L155.196 193.283L157.789 195.081Z" fill="white" fill-opacity="0.25"/>
<path d="M142.886 167.966L143.345 173.037L139.472 170.353L142.886 167.966Z" fill="white" fill-opacity="0.25"/>
<path d="M137.711 158.28L133.553 161.163L133.022 155.03L137.711 158.28Z" fill="white" fill-opacity="0.25"/>
<path d="M122.419 128.876L123.25 138.555L115.861 133.433L122.419 128.876Z" fill="white" fill-opacity="0.25"/>
<path d="M118.965 121.537L111.073 127.04L110.048 115.356L118.965 121.537Z" fill="white" fill-opacity="0.25"/>
<path d="M102.036 89.587L103.287 104.209L92.1322 96.4763L102.036 89.587Z" fill="white" fill-opacity="0.25"/>
<path d="M99.457 84.7764L88.8917 92.0671L87.5558 76.527L99.457 84.7764Z" fill="white" fill-opacity="0.25"/>
<path d="M80.8786 52.0928L82.2451 68.0081L70.1314 59.6109L80.8786 52.0928Z" fill="white" fill-opacity="0.25"/>
<path d="M77.8711 47.8926L67.595 55.0296L66.2899 39.8648L77.8711 47.8926Z" fill="white" fill-opacity="0.25"/>
<path d="M61.1394 40.8365L62.2515 53.9964L52.198 47.0275L61.1394 40.8365Z" fill="white" fill-opacity="0.25"/>
<path d="M38.4766 46.7617L32.596 50.8774L31.8335 42.1568L38.4766 46.7617Z" fill="white" fill-opacity="0.25"/>
<path d="M23.5592 42.9328L24.1324 49.7523L18.946 46.157L23.5592 42.9328Z" fill="white" fill-opacity="0.25"/>
<path d="M201.379 498.412L201.259 498.482L201.272 498.338L201.379 498.412Z" fill="white" fill-opacity="0.25"/>
<path d="M206.303 486.348L206.346 486.582L206.167 486.458L206.303 486.348Z" fill="white" fill-opacity="0.25"/>
<path d="M216.461 462.585L216.088 462.833L216.034 462.289L216.461 462.585Z" fill="white" fill-opacity="0.25"/>
<path d="M221.321 450.226L221.402 451.04L220.798 450.622L221.321 450.226Z" fill="white" fill-opacity="0.25"/>
<path d="M231.676 426.751L230.864 427.301L230.788 426.135L231.676 426.751Z" fill="white" fill-opacity="0.25"/>
<path d="M236.354 414.063L236.473 415.461L235.407 414.722L236.354 414.063Z" fill="white" fill-opacity="0.25"/>
<path d="M246.859 390.894L245.66 391.731L245.509 389.958L246.859 390.894Z" fill="white" fill-opacity="0.25"/>
<path d="M251.371 377.941L251.564 379.945L250.036 378.887L251.371 377.941Z" fill="white" fill-opacity="0.25"/>
<path d="M262.074 355.059L260.435 356.198L260.263 353.803L262.074 355.059Z" fill="white" fill-opacity="0.25"/>
<path d="M247.258 328.962L247.523 332.028L245.214 330.428L247.258 328.962Z" fill="white" fill-opacity="0.25"/>
<path d="M241.148 318.23L238.883 319.796L238.591 316.457L241.148 318.23Z" fill="white" fill-opacity="0.25"/>
<path d="M225.99 291.843L226.309 295.453L223.574 293.557L225.99 291.843Z" fill="white" fill-opacity="0.25"/>
<path d="M219.824 281.372L217.46 283.071L217.16 279.525L219.824 281.372Z" fill="white" fill-opacity="0.25"/>
<path d="M204.522 255.24L204.808 258.371L202.392 256.696L204.522 255.24Z" fill="white" fill-opacity="0.25"/>
<path d="M198.121 244.557L196.192 245.85L195.954 243.055L198.121 244.557Z" fill="white" fill-opacity="0.25"/>
<path d="M182.949 218.87L183.094 220.994L181.496 219.886L182.949 218.87Z" fill="white" fill-opacity="0.25"/>
<path d="M176.348 207.692L174.978 208.614L174.82 206.634L176.348 207.692Z" fill="white" fill-opacity="0.25"/>
<path d="M161.603 181.849L161.831 184.333L159.912 183.003L161.603 181.849Z" fill="white" fill-opacity="0.25"/>
<path d="M155.523 170.827L153.361 172.362L153.072 169.128L155.523 170.827Z" fill="white" fill-opacity="0.25"/>
<path d="M140.819 143.546L141.272 148.968L137.152 146.112L140.819 143.546Z" fill="white" fill-opacity="0.25"/>
<path d="M135.98 134.042L131.233 137.375L130.616 130.324L135.98 134.042Z" fill="white" fill-opacity="0.25"/>
<path d="M120.627 103.788L121.589 115.175L112.885 109.142L120.627 103.788Z" fill="white" fill-opacity="0.25"/>
<path d="M117.547 97.3135L108.59 103.544L107.458 90.3199L117.547 97.3135Z" fill="white" fill-opacity="0.25"/>
<path d="M100.112 64.7137L101.514 80.6537L89.329 72.2074L100.112 64.7137Z" fill="white" fill-opacity="0.25"/>
<path d="M97.6914 60.5137L86.5878 68.24L85.1868 51.8456L97.6914 60.5137Z" fill="white" fill-opacity="0.25"/>
<path d="M78.6844 27.9879L80.008 43.6712L68.0721 35.3971L78.6844 27.9879Z" fill="white" fill-opacity="0.25"/>
<path d="M56.7227 35.2061L49.1669 40.4363L48.1964 29.2961L56.7227 35.2061Z" fill="white" fill-opacity="0.25"/>
<path d="M41.0126 30.4267L41.7397 39.1226L35.0966 34.5177L41.0126 30.4267Z" fill="white" fill-opacity="0.25"/>
<path d="M17.3242 34.0762L14.1643 36.285L13.7719 31.6136L17.3242 34.0762Z" fill="white" fill-opacity="0.25"/>
<path d="M3.62334 32.0481L3.93201 35.3467L1.40955 33.5983L3.62334 32.0481Z" fill="white" fill-opacity="0.25"/>
<path d="M218.516 486.798L218.314 486.961L218.267 486.625L218.516 486.798Z" fill="white" fill-opacity="0.25"/>
<path d="M223.44 474.63L223.474 475.109L223.119 474.863L223.44 474.63Z" fill="white" fill-opacity="0.25"/>
<path d="M233.648 450.954L233.126 451.35L233.045 450.535L233.648 450.954Z" fill="white" fill-opacity="0.25"/>
<path d="M238.457 438.507L238.545 439.53L237.728 438.963L238.457 438.507Z" fill="white" fill-opacity="0.25"/>
<path d="M248.863 415.12L247.901 415.818L247.798 414.381L248.863 415.12Z" fill="white" fill-opacity="0.25"/>
<path d="M253.49 402.345L253.601 403.989L252.358 403.128L253.49 402.345Z" fill="white" fill-opacity="0.25"/>
<path d="M264.031 379.303L262.697 380.249L262.504 378.244L264.031 379.303Z" fill="white" fill-opacity="0.25"/>
<path d="M268.492 366.262L268.672 368.41L267.038 367.277L268.492 366.262Z" fill="white" fill-opacity="0.25"/>
<path d="M266.377 341.858L266.604 344.341L264.686 343.012L266.377 341.858Z" fill="white" fill-opacity="0.25"/>
<path d="M260.105 330.857L258.213 332.175L257.974 329.38L260.105 330.857Z" fill="white" fill-opacity="0.25"/>
<path d="M245.158 304.622L245.467 307.921L242.909 306.148L245.158 304.622Z" fill="white" fill-opacity="0.25"/>
<path d="M238.969 293.981L236.739 295.571L236.447 292.233L238.969 293.981Z" fill="white" fill-opacity="0.25"/>
<path d="M223.75 267.859L223.999 270.965L221.619 269.315L223.75 267.859Z" fill="white" fill-opacity="0.25"/>
<path d="M217.367 257.138L215.407 258.51L215.165 255.611L217.367 257.138Z" fill="white" fill-opacity="0.25"/>
<path d="M202.147 231.467L202.364 233.639L200.694 232.482L202.147 231.467Z" fill="white" fill-opacity="0.25"/>
<path d="M195.457 220.279L194.257 221.116L194.107 219.344L195.457 220.279Z" fill="white" fill-opacity="0.25"/>
<path d="M180.581 195.1L180.693 196.29L179.805 195.674L180.581 195.1Z" fill="white" fill-opacity="0.25"/>
<path d="M173.852 183.431L172.957 184.074L172.821 182.717L173.852 183.431Z" fill="white" fill-opacity="0.25"/>
<path d="M159.474 157.585L159.686 160.108L157.768 158.779L159.474 157.585Z" fill="white" fill-opacity="0.25"/>
<path d="M153.551 146.626L151.099 148.315L150.78 144.705L153.551 146.626Z" fill="white" fill-opacity="0.25"/>
<path d="M138.915 118.734L139.465 125.386L134.385 121.864L138.915 118.734Z" fill="white" fill-opacity="0.25"/>
<path d="M134.77 109.861L128.651 114.116L127.878 105.084L134.77 109.861Z" fill="white" fill-opacity="0.25"/>
<path d="M118.846 78.5555L119.985 91.987L109.754 84.895L118.846 78.5555Z" fill="white" fill-opacity="0.25"/>
<path d="M116.297 73.1084L106.057 80.2699L104.752 65.1052L116.297 73.1084Z" fill="white" fill-opacity="0.25"/>
<path d="M98.1598 40.0185L99.5953 56.8918L86.6997 47.9529L98.1598 40.0185Z" fill="white" fill-opacity="0.25"/>
<path d="M95.7695 36.2969L84.2939 44.2708L82.8743 27.3579L95.7695 36.2969Z" fill="white" fill-opacity="0.25"/>
<path d="M75.2422 23.6406L65.6432 30.3367L64.4071 16.13L75.2422 23.6406Z" fill="white" fill-opacity="0.25"/>
<path d="M58.638 17.3791L59.6232 28.9341L50.8132 22.8271L58.638 17.3791Z" fill="white" fill-opacity="0.25"/>
<path d="M35.2539 22.5068L30.8425 25.5677L30.2804 19.0593L35.2539 22.5068Z" fill="white" fill-opacity="0.25"/>
<path d="M20.9505 19.8539L21.3552 24.3821L17.8734 21.9689L20.9505 19.8539Z" fill="white" fill-opacity="0.25"/>
<path d="M220.574 511.01L220.491 511.104L220.503 510.96L220.574 511.01Z" fill="white" fill-opacity="0.25"/>
<path d="M225.533 498.969L225.576 499.203L225.397 499.079L225.533 498.969Z" fill="white" fill-opacity="0.25"/>
<path d="M235.691 475.206L235.318 475.454L235.264 474.91L235.691 475.206Z" fill="white" fill-opacity="0.25"/>
<path d="M240.54 462.886L240.617 463.598L240.083 463.228L240.54 462.886Z" fill="white" fill-opacity="0.25"/>
<path d="M250.82 439.364L250.127 439.845L250.039 438.823L250.82 439.364Z" fill="white" fill-opacity="0.25"/>
<path d="M255.557 426.766L255.673 428.059L254.678 427.37L255.557 426.766Z" fill="white" fill-opacity="0.25"/>
<path d="M266.039 403.53L264.906 404.313L264.76 402.644L266.039 403.53Z" fill="white" fill-opacity="0.25"/>
<path d="M270.556 390.68L270.706 392.452L269.356 391.517L270.556 390.68Z" fill="white" fill-opacity="0.25"/>
<path d="M281.133 367.662L279.731 368.662L279.57 366.579L281.133 367.662Z" fill="white" fill-opacity="0.25"/>
<path d="M285.542 354.637L285.758 356.809L284.088 355.652L285.542 354.637Z" fill="white" fill-opacity="0.25"/>
<path d="M279.16 343.459L277.521 344.598L277.313 342.178L279.16 343.459Z" fill="white" fill-opacity="0.25"/>
<path d="M264.294 317.482L264.532 320.277L262.401 318.799L264.294 317.482Z" fill="white" fill-opacity="0.25"/>
<path d="M258.062 306.609L255.983 308.051L255.718 304.984L258.062 306.609Z" fill="white" fill-opacity="0.25"/>
<path d="M242.968 280.52L243.234 283.587L240.889 281.962L242.968 280.52Z" fill="white" fill-opacity="0.25"/>
<path d="M236.633 269.782L234.621 271.169L234.359 268.206L236.633 269.782Z" fill="white" fill-opacity="0.25"/>
<path d="M221.409 244.008L221.613 246.324L219.837 245.093L221.409 244.008Z" fill="white" fill-opacity="0.25"/>
<path d="M214.773 232.907L213.439 233.853L213.246 231.848L214.773 232.907Z" fill="white" fill-opacity="0.25"/>
<path d="M199.792 207.757L199.901 208.844L199.048 208.253L199.792 207.757Z" fill="white" fill-opacity="0.25"/>
<path d="M192.773 196.041L192.333 196.344L192.239 195.671L192.773 196.041Z" fill="white" fill-opacity="0.25"/>
<path d="M178.337 171.116L178.379 171.804L177.845 171.434L178.337 171.116Z" fill="white" fill-opacity="0.25"/>
<path d="M171.59 159.177L170.83 159.712L170.737 158.586L171.59 159.177Z" fill="white" fill-opacity="0.25"/>
<path d="M157.405 133.064L157.691 136.195L155.311 134.545L157.405 133.064Z" fill="white" fill-opacity="0.25"/>
<path d="M151.82 122.389L148.779 124.528L148.374 120L151.82 122.389Z" fill="white" fill-opacity="0.25"/>
<path d="M137.179 93.384L137.949 102.312L131.129 97.584L137.179 93.384Z" fill="white" fill-opacity="0.25"/>
<path d="M133.746 85.6582L126.024 91.0763L125.043 79.625L133.746 85.6582Z" fill="white" fill-opacity="0.25"/>
<path d="M117.103 53.3468L118.419 68.8227L106.625 60.6471L117.103 53.3468Z" fill="white" fill-opacity="0.25"/>
<path d="M114.953 48.9336L103.544 56.8531L102.093 40.0193L114.953 48.9336Z" fill="white" fill-opacity="0.25"/>
<path d="M53.6914 10.9287L47.3716 15.3465L46.5868 6.00365L53.6914 10.9287Z" fill="white" fill-opacity="0.25"/>
<path d="M38.4654 7.08517L39.0386 13.9046L33.8523 10.3093L38.4654 7.08517Z" fill="white" fill-opacity="0.25"/>
<path d="M14.3281 9.82422L12.3167 11.211L12.0903 8.27282L14.3281 9.82422Z" fill="white" fill-opacity="0.25"/>
<path d="M1.1574 8.6134L1.30377 10.2825L0.0248139 9.39596L1.1574 8.6134Z" fill="white" fill-opacity="0.25"/>
<path d="M227.699 523.253L227.686 523.398L227.579 523.323L227.699 523.253Z" fill="white" fill-opacity="0.25"/>
<path d="M237.75 499.418L237.532 499.622L237.501 499.245L237.75 499.418Z" fill="white" fill-opacity="0.25"/>
<path d="M242.685 487.211L242.739 487.755L242.276 487.435L242.685 487.211Z" fill="white" fill-opacity="0.25"/>
<path d="M252.879 463.575L252.356 463.971L252.275 463.157L252.879 463.575Z" fill="white" fill-opacity="0.25"/>
<path d="M257.687 451.13L257.776 452.152L256.958 451.585L257.687 451.13Z" fill="white" fill-opacity="0.25"/>
<path d="M268.047 427.758L267.152 428.402L267.017 427.044L268.047 427.758Z" fill="white" fill-opacity="0.25"/>
<path d="M272.689 415.044L272.812 416.545L271.64 415.732L272.689 415.044Z" fill="white" fill-opacity="0.25"/>
<path d="M283.176 391.915L281.96 392.792L281.79 390.955L283.176 391.915Z" fill="white" fill-opacity="0.25"/>
<path d="M287.676 379.001L287.814 380.917L286.358 379.907L287.676 379.001Z" fill="white" fill-opacity="0.25"/>
<path d="M298.27 356.046L296.8 357.101L296.6 354.888L298.27 356.046Z" fill="white" fill-opacity="0.25"/>
<path d="M283.459 330.257L283.651 332.716L281.768 331.411L283.459 330.257Z" fill="white" fill-opacity="0.25"/>
<path d="M277.102 319.247L275.292 320.471L275.077 317.843L277.102 319.247Z" fill="white" fill-opacity="0.25"/>
<path d="M262.145 293.154L262.406 296.117L260.169 294.566L262.145 293.154Z" fill="white" fill-opacity="0.25"/>
<path d="M255.867 282.402L253.855 283.789L253.593 280.826L255.867 282.402Z" fill="white" fill-opacity="0.25"/>
<path d="M240.689 256.514L240.92 259.101L238.93 257.722L240.689 256.514Z" fill="white" fill-opacity="0.25"/>
<path d="M234.176 245.545L232.603 246.63L232.364 244.289L234.176 245.545Z" fill="white" fill-opacity="0.25"/>
<path d="M219.107 220.181L219.23 221.682L218.094 220.894L219.107 220.181Z" fill="white" fill-opacity="0.25"/>
<path d="M212.145 208.654L211.452 209.135L211.363 208.113L212.145 208.654Z" fill="white" fill-opacity="0.25"/>
<path d="M197.472 183.971L197.444 184.155L197.337 184.081L197.472 183.971Z" fill="white" fill-opacity="0.25"/>
<path d="M190.332 171.766L190.249 171.86L190.261 171.716L190.332 171.766Z" fill="white" fill-opacity="0.25"/>
<path d="M176.157 146.87L176.234 147.582L175.701 147.212L176.157 146.87Z" fill="white" fill-opacity="0.25"/>
<path d="M169.668 134.96L168.603 135.688L168.46 134.123L169.668 134.96Z" fill="white" fill-opacity="0.25"/>
<path d="M155.499 108.251L155.86 112.547L152.592 110.282L155.499 108.251Z" fill="white" fill-opacity="0.25"/>
<path d="M150.52 98.1963L146.278 101.173L145.724 94.8719L150.52 98.1963Z" fill="white" fill-opacity="0.25"/>
<path d="M135.583 67.8232L136.572 79.482L127.691 73.3257L135.583 67.8232Z" fill="white" fill-opacity="0.25"/>
<path d="M132.848 61.4912L123.332 68.0933L122.119 54.0545L132.848 61.4912Z" fill="white" fill-opacity="0.25"/>
<path d="M32.2812 -1.78223L29.0538 0.481139L28.6221 -4.3186L32.2812 -1.78223Z" fill="white" fill-opacity="0.25"/>
<path d="M239.84 523.652L239.704 523.762L239.697 523.553L239.84 523.652Z" fill="white" fill-opacity="0.25"/>
<path d="M244.783 511.551L244.83 511.887L244.546 511.69L244.783 511.551Z" fill="white" fill-opacity="0.25"/>
<path d="M254.922 487.824L254.549 488.072L254.495 487.528L254.922 487.824Z" fill="white" fill-opacity="0.25"/>
<path d="M259.786 475.469L259.867 476.284L259.227 475.84L259.786 475.469Z" fill="white" fill-opacity="0.25"/>
<path d="M270.105 451.97L269.345 452.505L269.253 451.379L270.105 451.97Z" fill="white" fill-opacity="0.25"/>
<path d="M274.784 439.383L274.899 440.677L273.905 439.987L274.784 439.383Z" fill="white" fill-opacity="0.25"/>
<path d="M285.184 416.142L284.17 416.855L284.047 415.354L285.184 416.142Z" fill="white" fill-opacity="0.25"/>
<path d="M289.771 403.34L289.917 405.009L288.638 404.123L289.771 403.34Z" fill="white" fill-opacity="0.25"/>
<path d="M300.348 380.324L298.977 381.246L298.784 379.241L300.348 380.324Z" fill="white" fill-opacity="0.25"/>
<path d="M304.773 367.258L304.954 369.406L303.32 368.273L304.773 367.258Z" fill="white" fill-opacity="0.25"/>
<path d="M302.659 342.956L302.828 345.247L301.087 344.04L302.659 342.956Z" fill="white" fill-opacity="0.25"/>
<path d="M296.211 331.835L294.572 332.974L294.364 330.554L296.211 331.835Z" fill="white" fill-opacity="0.25"/>
<path d="M281.313 305.933L281.564 308.585L279.539 307.181L281.313 305.933Z" fill="white" fill-opacity="0.25"/>
<path d="M275.012 295.013L273.134 296.291L272.88 293.535L275.012 295.013Z" fill="white" fill-opacity="0.25"/>
<path d="M259.969 269.013L260.208 271.808L258.077 270.331L259.969 269.013Z" fill="white" fill-opacity="0.25"/>
<path d="M253.512 258.136L251.789 259.369L251.558 256.781L253.512 258.136Z" fill="white" fill-opacity="0.25"/>
<path d="M238.43 232.566L238.587 234.546L237.096 233.512L238.43 232.566Z" fill="white" fill-opacity="0.25"/>
<path d="M231.598 221.278L230.584 221.991L230.461 220.49L231.598 221.278Z" fill="white" fill-opacity="0.25"/>
<path d="M216.732 196.408L216.786 196.952L216.359 196.656L216.732 196.408Z" fill="white" fill-opacity="0.25"/>
<path d="M209.598 184.408L209.462 184.518L209.455 184.309L209.598 184.408Z" fill="white" fill-opacity="0.25"/>
<path d="M174.139 122.332L174.274 123.69L173.208 122.951L174.139 122.332Z" fill="white" fill-opacity="0.25"/>
<path d="M167.973 110.746L166.23 111.915L166.019 109.392L167.973 110.746Z" fill="white" fill-opacity="0.25"/>
<path d="M153.757 83.0474L154.26 89.3632L149.465 86.0387L153.757 83.0474Z" fill="white" fill-opacity="0.25"/>
<path d="M149.711 74.0381L143.541 78.3074L142.784 69.2362L149.711 74.0381Z" fill="white" fill-opacity="0.25"/>
<path d="M246.897 535.85L246.921 536.019L246.813 535.944L246.897 535.85Z" fill="white" fill-opacity="0.25"/>
<path d="M257.031 512.021L256.711 512.254L256.712 511.8L257.031 512.021Z" fill="white" fill-opacity="0.25"/>
<path d="M261.883 499.807L261.973 500.376L261.51 500.055L261.883 499.807Z" fill="white" fill-opacity="0.25"/>
<path d="M272.164 476.182L271.523 476.647L271.454 475.689L272.164 476.182Z" fill="white" fill-opacity="0.25"/>
<path d="M276.886 463.726L277.01 464.773L276.193 464.206L276.886 463.726Z" fill="white" fill-opacity="0.25"/>
<path d="M287.242 440.354L286.363 440.958L286.283 439.689L287.242 440.354Z" fill="white" fill-opacity="0.25"/>
<path d="M291.884 427.64L292.043 429.166L290.87 428.353L291.884 427.64Z" fill="white" fill-opacity="0.25"/>
<path d="M302.406 404.535L301.171 405.348L301.02 403.575L302.406 404.535Z" fill="white" fill-opacity="0.25"/>
<path d="M306.867 391.594L307.041 393.535L305.584 392.525L306.867 391.594Z" fill="white" fill-opacity="0.25"/>
<path d="M317.484 368.708L315.995 369.699L315.814 367.551L317.484 368.708Z" fill="white" fill-opacity="0.25"/>
<path d="M321.854 355.552L322.058 357.868L320.318 356.662L321.854 355.552Z" fill="white" fill-opacity="0.25"/>
<path d="M315.445 344.454L313.806 345.593L313.598 343.174L315.445 344.454Z" fill="white" fill-opacity="0.25"/>
<path d="M300.529 318.595L300.741 321.118L298.823 319.788L300.529 318.595Z" fill="white" fill-opacity="0.25"/>
<path d="M294.117 307.598L292.395 308.831L292.163 306.243L294.117 307.598Z" fill="white" fill-opacity="0.25"/>
<path d="M279.185 281.675L279.42 284.366L277.359 282.938L279.185 281.675Z" fill="white" fill-opacity="0.25"/>
<path d="M272.828 270.767L270.951 272.044L270.732 269.314L272.828 270.767Z" fill="white" fill-opacity="0.25"/>
<path d="M257.745 244.988L257.917 247.383L256.106 246.127L257.745 244.988Z" fill="white" fill-opacity="0.25"/>
<path d="M251.105 233.888L249.704 234.888L249.543 232.804L251.105 233.888Z" fill="white" fill-opacity="0.25"/>
<path d="M236.093 208.714L236.205 209.904L235.281 209.264L236.093 208.714Z" fill="white" fill-opacity="0.25"/>
<path d="M229.105 197.017L228.598 197.374L228.536 196.622L229.105 197.017Z" fill="white" fill-opacity="0.25"/>
<path d="M186.078 123.346L185.906 123.431L185.899 123.222L186.078 123.346Z" fill="white" fill-opacity="0.25"/>
<path d="M172.185 97.5343L172.413 100.018L170.53 98.713L172.185 97.5343Z" fill="white" fill-opacity="0.25"/>
<path d="M166.551 86.5244L163.763 88.4856L163.425 84.3574L166.551 86.5244Z" fill="white" fill-opacity="0.25"/>
<path d="M319.76 331.213L319.971 333.736L318.053 332.407L319.76 331.213Z" fill="white" fill-opacity="0.25"/>
<path d="M313.352 320.217L311.645 321.41L311.397 318.862L313.352 320.217Z" fill="white" fill-opacity="0.25"/>
<path d="M298.4 294.333L298.615 296.96L296.59 295.556L298.4 294.333Z" fill="white" fill-opacity="0.25"/>
<path d="M292.023 283.362L290.198 284.625L289.963 281.934L292.023 283.362Z" fill="white" fill-opacity="0.25"/>
<path d="M277.001 257.428L277.236 260.12L275.175 258.691L277.001 257.428Z" fill="white" fill-opacity="0.25"/>
<path d="M270.562 246.509L268.856 247.702L268.644 245.179L270.562 246.509Z" fill="white" fill-opacity="0.25"/>
<path d="M255.45 221.02L255.619 222.857L254.198 221.872L255.45 221.02Z" fill="white" fill-opacity="0.25"/>
<path d="M248.648 209.65L247.686 210.349L247.547 208.887L248.648 209.65Z" fill="white" fill-opacity="0.25"/>
<path d="M233.833 184.771L233.891 185.419L233.393 185.073L233.833 184.771Z" fill="white" fill-opacity="0.25"/>
<path d="M226.699 172.771L226.497 172.935L226.486 172.623L226.699 172.771Z" fill="white" fill-opacity="0.25"/>
<path d="M190.948 111.296L190.972 111.465L190.864 111.391L190.948 111.296Z" fill="white" fill-opacity="0.25"/>
<path d="M184.344 99.1084L183.584 99.6433L183.491 98.5174L184.344 99.1084Z" fill="white" fill-opacity="0.25"/>
<path d="M332.582 332.839L330.824 334.047L330.628 331.484L332.582 332.839Z" fill="white" fill-opacity="0.25"/>
<path d="M317.63 306.954L317.846 309.581L315.82 308.178L317.63 306.954Z" fill="white" fill-opacity="0.25"/>
<path d="M311.238 296.021L309.429 297.244L309.213 294.617L311.238 296.021Z" fill="white" fill-opacity="0.25"/>
<path d="M296.251 270.008L296.489 272.803L294.394 271.35L296.251 270.008Z" fill="white" fill-opacity="0.25"/>
<path d="M289.879 259.141L288.053 260.404L287.818 257.712L289.879 259.141Z" fill="white" fill-opacity="0.25"/>
<path d="M274.795 233.363L275.003 235.782L273.156 234.502L274.795 233.363Z" fill="white" fill-opacity="0.25"/>
<path d="M268.191 222.287L266.79 223.287L266.593 221.179L268.191 222.287Z" fill="white" fill-opacity="0.25"/>
<path d="M253.225 196.996L253.328 198.433L252.227 197.669L253.225 196.996Z" fill="white" fill-opacity="0.25"/>
<path d="M246.328 185.412L245.584 185.907L245.511 184.846L246.328 185.412Z" fill="white" fill-opacity="0.25"/>
<path d="M231.592 160.68L231.619 160.952L231.405 160.804L231.592 160.68Z" fill="white" fill-opacity="0.25"/>
<path d="M336.841 319.51L337.076 322.202L335.015 320.773L336.841 319.51Z" fill="white" fill-opacity="0.25"/>
<path d="M330.523 308.627L328.646 309.905L328.392 307.15L330.523 308.627Z" fill="white" fill-opacity="0.25"/>
<path d="M315.481 282.626L315.72 285.42L313.588 283.943L315.481 282.626Z" fill="white" fill-opacity="0.25"/>
<path d="M309.148 271.787L307.256 273.105L307.017 270.31L309.148 271.787Z" fill="white" fill-opacity="0.25"/>
<path d="M294.091 245.826L294.326 248.517L292.265 247.089L294.091 245.826Z" fill="white" fill-opacity="0.25"/>
<path d="M287.648 234.912L285.89 236.121L285.695 233.558L287.648 234.912Z" fill="white" fill-opacity="0.25"/>
<path d="M272.585 209.302L272.763 211.346L271.164 210.238L272.585 209.302Z" fill="white" fill-opacity="0.25"/>
<path d="M265.91 198.069L264.674 198.882L264.524 197.109L265.91 198.069Z" fill="white" fill-opacity="0.25"/>
<path d="M250.98 172.907L251.088 173.993L250.271 173.427L250.98 172.907Z" fill="white" fill-opacity="0.25"/>
<path d="M243.957 161.188L243.501 161.53L243.423 160.818L243.957 161.188Z" fill="white" fill-opacity="0.25"/>
<path d="M334.727 295.208L334.969 298.107L332.767 296.58L334.727 295.208Z" fill="white" fill-opacity="0.25"/>
<path d="M328.426 284.391L326.465 285.763L326.188 282.839L328.426 284.391Z" fill="white" fill-opacity="0.25"/>
<path d="M313.352 258.368L313.594 261.267L311.356 259.716L313.352 258.368Z" fill="white" fill-opacity="0.25"/>
<path d="M307 247.565L305.071 248.858L304.833 246.063L307 247.565Z" fill="white" fill-opacity="0.25"/>
<path d="M291.892 221.62L292.142 224.272L290.117 222.868L291.892 221.62Z" fill="white" fill-opacity="0.25"/>
<path d="M285.418 210.681L283.779 211.82L283.571 209.4L285.418 210.681Z" fill="white" fill-opacity="0.25"/>
<path d="M270.372 185.132L270.525 187.008L269.105 186.023L270.372 185.132Z" fill="white" fill-opacity="0.25"/>
<path d="M263.605 173.793L262.576 174.546L262.433 172.98L263.605 173.793Z" fill="white" fill-opacity="0.25"/>
<path d="M248.755 148.883L248.797 149.57L248.263 149.2L248.755 148.883Z" fill="white" fill-opacity="0.25"/>
<path d="M241.645 136.948L241.391 137.127L241.36 136.751L241.645 136.948Z" fill="white" fill-opacity="0.25"/>
<path d="M347.66 297.013L345.649 298.399L345.422 295.461L347.66 297.013Z" fill="white" fill-opacity="0.25"/>
<path d="M332.613 270.909L332.843 273.951L330.535 272.35L332.613 270.909Z" fill="white" fill-opacity="0.25"/>
<path d="M326.336 260.156L324.257 261.597L324.027 258.556L326.336 260.156Z" fill="white" fill-opacity="0.25"/>
<path d="M311.172 234.121L311.45 237.044L309.211 235.493L311.172 234.121Z" fill="white" fill-opacity="0.25"/>
<path d="M304.836 223.282L302.927 224.639L302.669 221.78L304.836 223.282Z" fill="white" fill-opacity="0.25"/>
<path d="M289.732 197.438L289.944 199.961L288.026 198.631L289.732 197.438Z" fill="white" fill-opacity="0.25"/>
<path d="M283.184 186.449L281.663 187.519L281.443 185.243L283.184 186.449Z" fill="white" fill-opacity="0.25"/>
<path d="M268.181 161.03L268.327 162.699L267.048 161.813L268.181 161.03Z" fill="white" fill-opacity="0.25"/>
<path d="M261.285 149.55L260.458 150.139L260.362 148.91L261.285 149.55Z" fill="white" fill-opacity="0.25"/>
<path d="M351.808 283.506L352.074 286.572L349.765 284.972L351.808 283.506Z" fill="white" fill-opacity="0.25"/>
<path d="M345.617 272.764L343.471 274.259L343.202 271.089L345.617 272.764Z" fill="white" fill-opacity="0.25"/>
<path d="M330.468 246.585L330.737 249.755L328.322 248.08L330.468 246.585Z" fill="white" fill-opacity="0.25"/>
<path d="M324.152 235.911L322.109 237.377L321.844 234.31L324.152 235.911Z" fill="white" fill-opacity="0.25"/>
<path d="M309.028 209.904L309.27 212.802L307.068 211.275L309.028 209.904Z" fill="white" fill-opacity="0.25"/>
<path d="M302.637 199.072L300.744 200.39L300.505 197.595L302.637 199.072Z" fill="white" fill-opacity="0.25"/>
<path d="M287.538 173.338L287.707 175.629L285.966 174.422L287.538 173.338Z" fill="white" fill-opacity="0.25"/>
<path d="M280.918 162.195L279.532 163.156L279.355 161.112L280.918 162.195Z" fill="white" fill-opacity="0.25"/>
<path d="M349.714 259.166L349.987 262.44L347.5 260.717L349.714 259.166Z" fill="white" fill-opacity="0.25"/>
<path d="M343.508 248.562L341.294 250.112L340.985 246.813L343.508 248.562Z" fill="white" fill-opacity="0.25"/>
<path d="M328.323 222.365L328.593 225.535L326.177 223.861L328.323 222.365Z" fill="white" fill-opacity="0.25"/>
<path d="M322.059 211.673L319.912 213.169L319.643 209.998L322.059 211.673Z" fill="white" fill-opacity="0.25"/>
<path d="M306.847 185.655L307.125 188.579L304.887 187.027L306.847 185.655Z" fill="white" fill-opacity="0.25"/>
<path d="M300.457 174.828L298.631 176.091L298.397 173.4L300.457 174.828Z" fill="white" fill-opacity="0.25"/>
<path d="M362.738 261.184L360.489 262.709L360.216 259.435L362.738 261.184Z" fill="white" fill-opacity="0.25"/>
<path d="M347.6 234.866L347.861 238.284L345.268 236.486L347.6 234.866Z" fill="white" fill-opacity="0.25"/>
<path d="M341.379 224.304L339.114 225.869L338.821 222.531L341.379 224.304Z" fill="white" fill-opacity="0.25"/>
<path d="M326.14 198.12L326.409 201.29L323.994 199.615L326.14 198.12Z" fill="white" fill-opacity="0.25"/>
<path d="M319.914 187.454L317.768 188.95L317.498 185.78L319.914 187.454Z" fill="white" fill-opacity="0.25"/>
<path d="M366.795 247.46L367.092 250.902L364.499 249.104L366.795 247.46Z" fill="white" fill-opacity="0.25"/>
<path d="M360.695 236.931L358.296 238.605L357.996 235.059L360.695 236.931Z" fill="white" fill-opacity="0.25"/>
<path d="M345.42 210.62L345.716 214.062L343.088 212.24L345.42 210.62Z" fill="white" fill-opacity="0.25"/>
<path d="M339.234 200.081L336.953 201.686L336.641 198.283L339.234 200.081Z" fill="white" fill-opacity="0.25"/>
<path d="M364.67 223.201L364.97 226.746L362.27 224.875L364.67 223.201Z" fill="white" fill-opacity="0.25"/>
<path d="M358.551 212.714L356.151 214.388L355.815 210.818L358.551 212.714Z" fill="white" fill-opacity="0.25"/>
<path d="M377.832 225.316L375.314 227.06L375.026 223.371L377.832 225.316Z" fill="white" fill-opacity="0.25"/>
</svg>
