<svg width="24" height="25" viewBox="0 0 24 25" fill="none" xmlns="http://www.w3.org/2000/svg">
<path d="M16.8359 0.946248C19.0235 0.638307 21.0465 2.16205 21.3545 4.34962L23.1666 17.2227C23.4745 19.4103 21.9508 21.4333 19.7632 21.7412L6.89012 23.5533C4.70255 23.8613 2.67954 22.3375 2.3716 20.15L0.559476 7.2769C0.251535 5.08933 1.77528 3.06631 3.96285 2.75837L16.8359 0.946248Z" fill="#044AB4"/>
<path fill-rule="evenodd" clip-rule="evenodd" d="M17.6798 8.93547C18.0703 9.326 18.0703 9.95916 17.6798 10.3497L11.1798 16.8497C10.7892 17.2402 10.1561 17.2402 9.76555 16.8497L6.9218 14.0059C6.53128 13.6154 6.53128 12.9822 6.9218 12.5917C7.31232 12.2012 7.94549 12.2012 8.33601 12.5917L10.4727 14.7284L16.2655 8.93547C16.6561 8.54495 17.2892 8.54495 17.6798 8.93547Z" fill="white"/>
</svg>
