<svg width="141" height="50" viewBox="0 0 141 50" fill="none" xmlns="http://www.w3.org/2000/svg">
<g clip-path="url(#clip0_6635_7472)">
<path d="M19.9807 26.2036C19.9807 20.8489 16.1883 16.1289 10.2232 16.1289C4.37665 16.1289 0.03125 20.7299 0.03125 27.0761C0.03125 33.4224 4.49517 38.1027 10.4998 38.1027C14.8056 38.1027 18.203 35.7625 19.5066 32.8671L16.5438 31.2805C15.4377 33.4224 13.502 35.009 10.5393 35.009C6.86539 35.009 3.7446 32.3117 3.58658 28.147H19.8226C19.9412 27.4729 19.9807 26.7985 19.9807 26.2036ZM3.6656 25.2119C4.13964 21.4043 6.94441 19.1434 10.2232 19.1434C13.3045 19.1434 16.1883 21.7216 16.2278 25.2119H3.6656Z" fill="#0DA861"/>
<path d="M37.3831 16.6055L31.2205 32.9469L25.0581 16.6055H21.2656L29.6405 37.6272H32.7613L41.1755 16.6055H37.3831Z" fill="#0DA861"/>
<path d="M44.4276 12.7188H47.8251V8.07812H44.4276V12.7188ZM40.9514 46.3537C44.7832 46.3537 47.8251 43.9342 47.8251 39.4522V16.6058H44.4276V39.4522C44.4276 41.9907 42.8474 43.2995 40.7143 43.2995C40.2402 43.2995 39.5292 43.26 39.0156 43.1805V46.1951C39.5292 46.314 40.4379 46.3537 40.9514 46.3537Z" fill="#0DA861"/>
<path d="M79.1094 12.7188H82.5068V8.07812H79.1094V12.7188ZM79.1094 37.6276H82.5068V16.6058H79.1094V37.6276Z" fill="#0DA861"/>
<path d="M96.7764 16.1289C94.2088 16.1289 91.9571 17.1998 90.7324 19.0244V16.6049H87.4141V37.6266H90.8115V24.8946C90.8115 21.6026 92.905 19.421 96.0258 19.421C99.1862 19.421 101.201 21.5628 101.201 24.8946V37.6266H104.598V23.784C104.598 19.3813 101.319 16.1289 96.7764 16.1289Z" fill="#0DA861"/>
<path d="M118.174 37.8632C118.766 37.8632 119.596 37.8237 120.268 37.6649V34.8885C119.833 34.9678 119.24 35.0075 118.806 35.0075C115.211 35.0075 114.974 32.5483 114.974 31.1997V19.8558H120.031V16.6034H114.974V9.78125H111.577V13.5096C111.577 15.3738 110.392 16.6034 108.574 16.6034H107.508V19.8558H111.577V31.1997C111.577 35.4437 113.947 37.8632 118.174 37.8632Z" fill="#0DA861"/>
<path d="M131.598 38.1027C136.102 38.1027 139.223 35.6039 139.223 31.9548C139.223 29.1387 137.327 27.076 133.811 26.0448L130.255 24.9738C128.438 24.4187 127.253 23.4667 127.253 22.0389C127.253 20.3728 128.754 19.2623 131.006 19.2623C133.495 19.2623 135.47 20.5713 136.339 22.8321L139.183 21.4438C137.959 18.1518 134.877 16.1289 131.006 16.1289C126.66 16.1289 123.737 18.588 123.737 22.2372C123.737 25.0929 125.554 27.1158 129.07 28.1075L132.507 29.0592C134.443 29.6146 135.707 30.4475 135.707 31.9548C135.707 33.7 134.048 34.9692 131.598 34.9692C128.991 34.9692 126.739 33.581 125.673 30.9236L122.789 32.3514C124.132 35.9212 127.49 38.1027 131.598 38.1027Z" fill="#0DA861"/>
<path fill-rule="evenodd" clip-rule="evenodd" d="M62.0197 3.40515C54.454 4.68754 56.4826 15.9047 63.8453 14.6977C66.9482 14.1923 69.0595 11.2277 68.5334 8.09719C68.015 4.98928 65.1375 2.87711 62.0197 3.40515ZM67.8422 10.0585C66.3546 16.6817 56.5576 14.4563 58.0077 7.90106C58.5937 5.23821 61.2984 3.53339 63.9656 4.1067C66.6027 4.68001 68.4507 7.34284 67.8422 10.0585Z" fill="#0DA861"/>
<path fill-rule="evenodd" clip-rule="evenodd" d="M61.9627 0.987838C55.9674 1.69693 52.872 8.36537 56.0501 13.4949C58.304 17.1384 60.1746 20.1634 60.5879 24.6366C60.648 25.3307 60.6555 29.1703 61.3617 29.1928C62.6915 29.2382 61.0837 21.476 60.7382 20.4273C59.9118 17.9154 58.6346 15.5996 57.1996 13.3969C53.5707 7.80715 57.7404 1.02556 64.0514 2.02884C66.666 2.44373 68.8523 4.3145 69.6712 6.83403C71.5043 12.4765 66.5833 13.7891 64.5924 22.0568C64.4121 22.8187 63.5631 28.5065 64.074 29.0571C65.4938 30.5959 64.3368 24.5159 66.6809 18.9866C67.1769 17.8173 67.823 16.5878 68.4765 15.5015C69.1377 14.4001 69.9641 13.3818 70.4524 12.1974C72.8116 6.43423 68.0934 0.263664 61.9627 0.987838Z" fill="#0DA861"/>
<path fill-rule="evenodd" clip-rule="evenodd" d="M61.8408 9.40853C62.3368 9.48397 62.8927 9.40101 63.4186 9.40101C63.2082 10.1026 62.3293 11.2718 62.194 12.1167C62.0812 12.7956 62.4945 12.9313 62.8852 12.4335C63.2007 12.0261 64.4178 9.52923 64.5005 9.08417C64.5756 8.69191 64.2901 8.56368 64.0348 8.56368L62.5395 8.55612C62.7049 7.86966 63.5013 6.92673 63.7943 6.1045C64.2151 4.91262 63.351 5.02579 63.0055 5.68207L62.3368 6.97954C62.0512 7.53021 61.6982 8.10354 61.4202 8.71456C61.2774 9.03139 61.3301 9.32555 61.8408 9.40853Z" fill="#0DA861"/>
<path fill-rule="evenodd" clip-rule="evenodd" d="M52.375 27.3156C52.375 23.2373 54.3352 19.9196 57.3522 18.108C57.8206 19.1569 58.2326 20.2321 58.5748 21.3595C56.9255 22.7093 55.8913 24.8479 55.8913 27.3544C55.8913 31.6609 58.944 34.8812 62.924 34.8812C66.9041 34.8812 69.9567 31.6609 69.9567 27.3544C69.9567 24.8434 68.9188 22.7017 67.2646 21.3522C67.5485 20.3384 67.8961 19.3133 68.3252 18.3009C68.3583 18.2229 68.3919 18.1447 68.4258 18.0664C71.4826 19.8687 73.4731 23.2058 73.4731 27.3156C73.4731 33.562 68.8361 38.1014 62.924 38.1014C57.0119 38.1014 52.375 33.562 52.375 27.3156Z" fill="#0DA861"/>
</g>
<rect x="132.294" y="7.96997" width="6.75537" height="6.7845" rx="3.37768" stroke="#1E1E1E" stroke-width="0.432122"/>
<path d="M134.703 12.7442V9.97656H135.616C135.828 9.97656 136.001 10.0135 136.136 10.0874C136.272 10.1604 136.372 10.2608 136.437 10.3887C136.502 10.5167 136.535 10.6622 136.535 10.8252C136.535 10.9883 136.502 11.1329 136.437 11.259C136.372 11.3852 136.272 11.4843 136.138 11.5563C136.003 11.6275 135.831 11.6631 135.622 11.6631H134.883V11.3604H135.611C135.755 11.3604 135.872 11.3388 135.96 11.2955C136.048 11.2523 136.113 11.191 136.152 11.1117C136.193 11.0316 136.213 10.9361 136.213 10.8252C136.213 10.7144 136.193 10.6176 136.152 10.5347C136.112 10.4518 136.047 10.3878 135.958 10.3428C135.869 10.2968 135.752 10.2739 135.606 10.2739H135.03V12.7442H134.703ZM135.975 11.5009L136.64 12.7442H136.26L135.606 11.5009H135.975Z" fill="#1E1E1E"/>
<path d="M54.8525 41.4834H55.7213V45.2582C55.7213 45.6599 55.6269 46.0158 55.4382 46.3259C55.2495 46.6342 54.9842 46.877 54.6423 47.0545C54.3004 47.2301 53.8997 47.3179 53.4401 47.3179C52.9824 47.3179 52.5826 47.2301 52.2407 47.0545C51.8988 46.877 51.6335 46.6342 51.4448 46.3259C51.2561 46.0158 51.1618 45.6599 51.1618 45.2582V41.4834H52.0277V45.1881C52.0277 45.4478 52.0847 45.6785 52.1987 45.8803C52.3145 46.0821 52.478 46.2409 52.6891 46.3567C52.9002 46.4707 53.1505 46.5277 53.4401 46.5277C53.7316 46.5277 53.9828 46.4707 54.194 46.3567C54.4069 46.2409 54.5695 46.0821 54.6816 45.8803C54.7955 45.6785 54.8525 45.4478 54.8525 45.1881V41.4834ZM57.672 44.6669V47.2227H56.834V42.9182H57.6383V43.6188H57.6916C57.7906 43.3909 57.9457 43.2078 58.1568 43.0695C58.3697 42.9313 58.6378 42.8622 58.961 42.8622C59.2544 42.8622 59.5112 42.9238 59.7317 43.0471C59.9522 43.1686 60.1231 43.3498 60.2445 43.5908C60.366 43.8318 60.4267 44.1298 60.4267 44.4847V47.2227H59.5888V44.5856C59.5888 44.2736 59.5075 44.0298 59.345 43.8542C59.1824 43.6767 58.9592 43.588 58.6752 43.588C58.4809 43.588 58.3081 43.63 58.1568 43.7141C58.0073 43.7982 57.8887 43.9215 57.8009 44.084C57.7149 44.2447 57.672 44.439 57.672 44.6669ZM61.4715 47.2227V42.9182H62.3094V47.2227H61.4715ZM61.8947 42.254C61.749 42.254 61.6238 42.2055 61.5192 42.1083C61.4164 42.0093 61.365 41.8916 61.365 41.7552C61.365 41.617 61.4164 41.4993 61.5192 41.4021C61.6238 41.3031 61.749 41.2536 61.8947 41.2536C62.0404 41.2536 62.1647 41.3031 62.2674 41.4021C62.372 41.4993 62.4243 41.617 62.4243 41.7552C62.4243 41.8916 62.372 42.0093 62.2674 42.1083C62.1647 42.2055 62.0404 42.254 61.8947 42.254ZM65.4063 42.9182V43.5908H62.9739V42.9182H65.4063ZM63.6408 47.2227V42.4194C63.6408 42.1504 63.6997 41.9271 63.8174 41.7496C63.9351 41.5703 64.0911 41.4367 64.2854 41.3489C64.4797 41.2592 64.6908 41.2144 64.9187 41.2144C65.0868 41.2144 65.2307 41.2284 65.3503 41.2564C65.4698 41.2826 65.5586 41.3068 65.6165 41.3293L65.4203 42.0074C65.3811 41.9962 65.3307 41.9831 65.269 41.9682C65.2074 41.9514 65.1326 41.943 65.0448 41.943C64.8412 41.943 64.6955 41.9934 64.6076 42.0943C64.5217 42.1952 64.4787 42.3409 64.4787 42.5315V47.2227H63.6408ZM66.1919 47.2227V42.9182H67.0298V47.2227H66.1919ZM66.6151 42.254C66.4694 42.254 66.3442 42.2055 66.2396 42.1083C66.1368 42.0093 66.0854 41.8916 66.0854 41.7552C66.0854 41.617 66.1368 41.4993 66.2396 41.4021C66.3442 41.3031 66.4694 41.2536 66.6151 41.2536C66.7608 41.2536 66.8851 41.3031 66.9878 41.4021C67.0924 41.4993 67.1447 41.617 67.1447 41.7552C67.1447 41.8916 67.0924 42.0093 66.9878 42.1083C66.8851 42.2055 66.7608 42.254 66.6151 42.254ZM69.9334 47.3095C69.5093 47.3095 69.144 47.2189 68.8376 47.0377C68.5331 46.8546 68.2977 46.5977 68.1314 46.267C67.967 45.9345 67.8848 45.545 67.8848 45.0985C67.8848 44.6575 67.967 44.269 68.1314 43.9327C68.2977 43.5964 68.5294 43.3339 68.8264 43.1452C69.1253 42.9565 69.4747 42.8622 69.8745 42.8622C70.1174 42.8622 70.3528 42.9023 70.5807 42.9827C70.8086 43.063 71.0132 43.1891 71.1944 43.361C71.3757 43.5329 71.5186 43.7561 71.6232 44.0307C71.7278 44.3035 71.7801 44.6351 71.7801 45.0256V45.3226H68.3584V44.6949H70.959C70.959 44.4745 70.9142 44.2792 70.8245 44.1092C70.7348 43.9373 70.6087 43.8019 70.4462 43.7029C70.2855 43.6039 70.0968 43.5543 69.8801 43.5543C69.6447 43.5543 69.4392 43.6123 69.2636 43.7281C69.0898 43.8421 68.9553 43.9915 68.8601 44.1765C68.7666 44.3596 68.7199 44.5585 68.7199 44.7734V45.2638C68.7199 45.5515 68.7704 45.7962 68.8713 45.998C68.974 46.1998 69.1169 46.3539 69.3 46.4604C69.4831 46.565 69.697 46.6173 69.9418 46.6173C70.1006 46.6173 70.2454 46.5949 70.3761 46.5501C70.5069 46.5034 70.6199 46.4343 70.7152 46.3427C70.8105 46.2512 70.8834 46.1381 70.9338 46.0036L71.7269 46.1465C71.6634 46.3801 71.5494 46.5846 71.385 46.7603C71.2225 46.934 71.0179 47.0695 70.7713 47.1666C70.5265 47.2619 70.2472 47.3095 69.9334 47.3095ZM74.2423 47.3067C73.8948 47.3067 73.5846 47.218 73.3119 47.0405C73.041 46.8611 72.828 46.6061 72.6729 46.2755C72.5197 45.9429 72.4431 45.544 72.4431 45.0788C72.4431 44.6136 72.5207 44.2157 72.6757 43.885C72.8327 43.5543 73.0475 43.3012 73.3203 43.1256C73.5931 42.95 73.9022 42.8622 74.2479 42.8622C74.515 42.8622 74.7299 42.907 74.8924 42.9967C75.0568 43.0845 75.1839 43.1872 75.2735 43.3049C75.3651 43.4226 75.4361 43.5263 75.4865 43.616H75.537V41.4834H76.3749V47.2227H75.5566V46.5529H75.4865C75.4361 46.6444 75.3632 46.7491 75.2679 46.8668C75.1745 46.9845 75.0456 47.0872 74.8812 47.175C74.7168 47.2628 74.5038 47.3067 74.2423 47.3067ZM74.4272 46.5921C74.6682 46.5921 74.8719 46.5286 75.0381 46.4016C75.2063 46.2727 75.3333 46.0942 75.4193 45.8663C75.5071 45.6384 75.551 45.3731 75.551 45.0704C75.551 44.7715 75.508 44.51 75.4221 44.2858C75.3361 44.0616 75.21 43.8869 75.0437 43.7617C74.8775 43.6365 74.672 43.574 74.4272 43.574C74.175 43.574 73.9648 43.6394 73.7967 43.7701C73.6285 43.9009 73.5015 44.0793 73.4156 44.3054C73.3315 44.5314 73.2895 44.7865 73.2895 45.0704C73.2895 45.3581 73.3324 45.6169 73.4184 45.8467C73.5043 46.0765 73.6314 46.2586 73.7995 46.3932C73.9695 46.5258 74.1787 46.5921 74.4272 46.5921ZM79.5687 47.2227V41.4834H83.1669V42.2288H80.4346V43.9775H82.9792V44.7201H80.4346V46.4772H83.2006V47.2227H79.5687ZM84.7463 41.4834L86.3437 46.1578H86.4081L88.0055 41.4834H88.9415L86.8761 47.2227H85.8757L83.8103 41.4834H84.7463ZM93.4468 47.3095C93.0302 47.3095 92.6715 47.2152 92.3707 47.0265C92.0718 46.8359 91.842 46.5734 91.6813 46.239C91.5206 45.9046 91.4403 45.5216 91.4403 45.09C91.4403 44.6529 91.5225 44.2671 91.6869 43.9327C91.8513 43.5964 92.083 43.3339 92.3819 43.1452C92.6808 42.9565 93.033 42.8622 93.4384 42.8622C93.7654 42.8622 94.0568 42.9229 94.3127 43.0443C94.5687 43.1639 94.7751 43.332 94.9321 43.5487C95.0909 43.7655 95.1852 44.0186 95.2151 44.3082H94.3996C94.3548 44.1064 94.252 43.9327 94.0914 43.7869C93.9326 43.6412 93.7196 43.5684 93.4524 43.5684C93.2189 43.5684 93.0143 43.63 92.8387 43.7533C92.665 43.8748 92.5295 44.0485 92.4324 44.2746C92.3352 44.4987 92.2866 44.764 92.2866 45.0704C92.2866 45.3843 92.3343 45.6552 92.4296 45.8831C92.5248 46.111 92.6593 46.2876 92.8331 46.4128C93.0087 46.5379 93.2152 46.6005 93.4524 46.6005C93.6112 46.6005 93.7551 46.5716 93.884 46.5137C94.0148 46.4539 94.1241 46.3689 94.2119 46.2586C94.3015 46.1484 94.3641 46.0158 94.3996 45.8607H95.2151C95.1852 46.1391 95.0946 46.3875 94.9433 46.6061C94.792 46.8247 94.5893 46.9966 94.3352 47.1218C94.083 47.2469 93.7868 47.3095 93.4468 47.3095ZM96.8702 44.6669V47.2227H96.0323V41.4834H96.859V43.6188H96.9122C97.0131 43.3871 97.1672 43.2031 97.3746 43.0667C97.582 42.9303 97.8529 42.8622 98.1873 42.8622C98.4825 42.8622 98.7403 42.9229 98.9607 43.0443C99.1831 43.1657 99.3549 43.347 99.4764 43.588C99.5997 43.8271 99.6613 44.126 99.6613 44.4847V47.2227H98.8234V44.5856C98.8234 44.2699 98.7422 44.0251 98.5796 43.8514C98.4171 43.6758 98.191 43.588 97.9014 43.588C97.7034 43.588 97.5259 43.63 97.369 43.7141C97.2139 43.7982 97.0916 43.9215 97.0019 44.084C96.9141 44.2447 96.8702 44.439 96.8702 44.6669ZM101.953 47.3179C101.68 47.3179 101.434 47.2675 101.213 47.1666C100.993 47.0639 100.818 46.9153 100.689 46.721C100.562 46.5267 100.499 46.2885 100.499 46.0064C100.499 45.7636 100.546 45.5636 100.639 45.4067C100.732 45.2498 100.858 45.1255 101.017 45.034C101.176 44.9425 101.354 44.8733 101.55 44.8266C101.746 44.7799 101.946 44.7444 102.149 44.7201C102.407 44.6902 102.616 44.666 102.777 44.6473C102.938 44.6267 103.055 44.594 103.127 44.5492C103.2 44.5044 103.237 44.4315 103.237 44.3306V44.311C103.237 44.0662 103.168 43.8766 103.029 43.7421C102.893 43.6076 102.689 43.5403 102.418 43.5403C102.136 43.5403 101.914 43.6029 101.751 43.7281C101.591 43.8514 101.48 43.9887 101.418 44.14L100.631 43.9607C100.724 43.6991 100.86 43.488 101.04 43.3274C101.221 43.1648 101.429 43.0471 101.665 42.9743C101.9 42.8995 102.148 42.8622 102.407 42.8622C102.579 42.8622 102.761 42.8827 102.954 42.9238C103.148 42.963 103.329 43.0359 103.497 43.1424C103.667 43.2489 103.807 43.4011 103.915 43.5992C104.023 43.7953 104.077 44.0504 104.077 44.3642V47.2227H103.259V46.6342H103.226C103.171 46.7425 103.09 46.849 102.982 46.9536C102.873 47.0583 102.734 47.1451 102.564 47.2142C102.394 47.2834 102.19 47.3179 101.953 47.3179ZM102.135 46.6454C102.367 46.6454 102.565 46.5996 102.729 46.5081C102.896 46.4165 103.022 46.2969 103.108 46.1493C103.196 45.9999 103.24 45.8402 103.24 45.6701V45.1153C103.21 45.1452 103.152 45.1732 103.066 45.1993C102.982 45.2236 102.885 45.2451 102.777 45.2638C102.669 45.2806 102.563 45.2965 102.46 45.3114C102.358 45.3245 102.272 45.3357 102.203 45.3451C102.04 45.3656 101.892 45.4002 101.757 45.4488C101.624 45.4973 101.518 45.5674 101.438 45.6589C101.359 45.7486 101.32 45.8682 101.32 46.0176C101.32 46.225 101.396 46.3819 101.55 46.4884C101.703 46.5931 101.898 46.6454 102.135 46.6454ZM105.115 47.2227V42.9182H105.924V43.602H105.969C106.048 43.3703 106.186 43.1882 106.384 43.0555C106.584 42.921 106.81 42.8538 107.062 42.8538C107.115 42.8538 107.176 42.8556 107.247 42.8594C107.32 42.8631 107.377 42.8678 107.418 42.8734V43.6748C107.384 43.6655 107.325 43.6552 107.239 43.644C107.153 43.6309 107.067 43.6244 106.981 43.6244C106.783 43.6244 106.606 43.6664 106.451 43.7505C106.298 43.8327 106.177 43.9476 106.087 44.0952C105.997 44.2409 105.952 44.4072 105.952 44.594V47.2227H105.115ZM109.715 48.9265C109.373 48.9265 109.079 48.8817 108.832 48.792C108.587 48.7023 108.388 48.5837 108.232 48.4361C108.077 48.2885 107.962 48.1269 107.885 47.9513L108.605 47.6542C108.656 47.7364 108.723 47.8233 108.807 47.9148C108.893 48.0083 109.009 48.0877 109.154 48.153C109.302 48.2184 109.492 48.2511 109.723 48.2511C110.041 48.2511 110.303 48.1736 110.511 48.0185C110.718 47.8653 110.822 47.6206 110.822 47.2843V46.438H110.769C110.718 46.5295 110.645 46.6314 110.55 46.7434C110.457 46.8555 110.328 46.9527 110.163 47.0349C109.999 47.1171 109.785 47.1582 109.522 47.1582C109.182 47.1582 108.875 47.0788 108.602 46.92C108.331 46.7593 108.117 46.523 107.958 46.211C107.801 45.8971 107.722 45.5113 107.722 45.0536C107.722 44.5959 107.8 44.2036 107.955 43.8766C108.112 43.5497 108.327 43.2993 108.6 43.1256C108.872 42.95 109.182 42.8622 109.527 42.8622C109.794 42.8622 110.01 42.907 110.175 42.9967C110.339 43.0845 110.467 43.1872 110.558 43.3049C110.652 43.4226 110.724 43.5263 110.774 43.616H110.836V42.9182H111.657V47.3179C111.657 47.6879 111.571 47.9914 111.399 48.2287C111.227 48.466 110.995 48.6416 110.701 48.7556C110.41 48.8695 110.081 48.9265 109.715 48.9265ZM109.707 46.4632C109.948 46.4632 110.151 46.4072 110.317 46.2951C110.486 46.1811 110.613 46.0186 110.699 45.8075C110.786 45.5945 110.83 45.3395 110.83 45.0424C110.83 44.7528 110.787 44.4978 110.701 44.2774C110.615 44.0569 110.489 43.885 110.323 43.7617C110.157 43.6365 109.951 43.574 109.707 43.574C109.454 43.574 109.244 43.6394 109.076 43.7701C108.908 43.899 108.781 44.0747 108.695 44.297C108.611 44.5193 108.569 44.7678 108.569 45.0424C108.569 45.3245 108.612 45.5721 108.698 45.785C108.784 45.998 108.911 46.1643 109.079 46.2839C109.249 46.4034 109.458 46.4632 109.707 46.4632ZM112.702 47.2227V42.9182H113.54V47.2227H112.702ZM113.125 42.254C112.979 42.254 112.854 42.2055 112.749 42.1083C112.647 42.0093 112.595 41.8916 112.595 41.7552C112.595 41.617 112.647 41.4993 112.749 41.4021C112.854 41.3031 112.979 41.2536 113.125 41.2536C113.271 41.2536 113.395 41.3031 113.498 41.4021C113.602 41.4993 113.655 41.617 113.655 41.7552C113.655 41.8916 113.602 42.0093 113.498 42.1083C113.395 42.2055 113.271 42.254 113.125 42.254ZM115.426 44.6669V47.2227H114.588V42.9182H115.392V43.6188H115.446C115.545 43.3909 115.7 43.2078 115.911 43.0695C116.124 42.9313 116.392 42.8622 116.715 42.8622C117.008 42.8622 117.265 42.9238 117.486 43.0471C117.706 43.1686 117.877 43.3498 117.999 43.5908C118.12 43.8318 118.181 44.1298 118.181 44.4847V47.2227H117.343V44.5856C117.343 44.2736 117.262 44.0298 117.099 43.8542C116.936 43.6767 116.713 43.588 116.429 43.588C116.235 43.588 116.062 43.63 115.911 43.7141C115.761 43.7982 115.643 43.9215 115.555 44.084C115.469 44.2447 115.426 44.439 115.426 44.6669ZM121.03 48.9265C120.688 48.9265 120.394 48.8817 120.148 48.792C119.903 48.7023 119.703 48.5837 119.548 48.4361C119.393 48.2885 119.277 48.1269 119.2 47.9513L119.921 47.6542C119.971 47.7364 120.038 47.8233 120.122 47.9148C120.208 48.0083 120.324 48.0877 120.47 48.153C120.617 48.2184 120.807 48.2511 121.039 48.2511C121.356 48.2511 121.619 48.1736 121.826 48.0185C122.034 47.8653 122.137 47.6206 122.137 47.2843V46.438H122.084C122.034 46.5295 121.961 46.6314 121.865 46.7434C121.772 46.8555 121.643 46.9527 121.479 47.0349C121.314 47.1171 121.1 47.1582 120.837 47.1582C120.497 47.1582 120.19 47.0788 119.918 46.92C119.647 46.7593 119.432 46.523 119.273 46.211C119.116 45.8971 119.038 45.5113 119.038 45.0536C119.038 44.5959 119.115 44.2036 119.27 43.8766C119.427 43.5497 119.642 43.2993 119.915 43.1256C120.188 42.95 120.497 42.8622 120.843 42.8622C121.11 42.8622 121.325 42.907 121.49 42.9967C121.654 43.0845 121.782 43.1872 121.874 43.3049C121.967 43.4226 122.039 43.5263 122.09 43.616H122.151V42.9182H122.972V47.3179C122.972 47.6879 122.886 47.9914 122.714 48.2287C122.543 48.466 122.31 48.6416 122.017 48.7556C121.725 48.8695 121.396 48.9265 121.03 48.9265ZM121.022 46.4632C121.263 46.4632 121.467 46.4072 121.633 46.2951C121.801 46.1811 121.928 46.0186 122.014 45.8075C122.102 45.5945 122.146 45.3395 122.146 45.0424C122.146 44.7528 122.103 44.4978 122.017 44.2774C121.931 44.0569 121.805 43.885 121.638 43.7617C121.472 43.6365 121.267 43.574 121.022 43.574C120.77 43.574 120.559 43.6394 120.391 43.7701C120.223 43.899 120.096 44.0747 120.01 44.297C119.926 44.5193 119.884 44.7678 119.884 45.0424C119.884 45.3245 119.927 45.5721 120.013 45.785C120.099 45.998 120.226 46.1643 120.394 46.2839C120.564 46.4034 120.773 46.4632 121.022 46.4632ZM127.279 47.3179C127.007 47.3179 126.76 47.2675 126.54 47.1666C126.319 47.0639 126.144 46.9153 126.016 46.721C125.888 46.5267 125.825 46.2885 125.825 46.0064C125.825 45.7636 125.872 45.5636 125.965 45.4067C126.058 45.2498 126.185 45.1255 126.343 45.034C126.502 44.9425 126.68 44.8733 126.876 44.8266C127.072 44.7799 127.272 44.7444 127.476 44.7201C127.733 44.6902 127.943 44.666 128.103 44.6473C128.264 44.6267 128.381 44.594 128.454 44.5492C128.526 44.5044 128.563 44.4315 128.563 44.3306V44.311C128.563 44.0662 128.494 43.8766 128.355 43.7421C128.219 43.6076 128.015 43.5403 127.745 43.5403C127.462 43.5403 127.24 43.6029 127.078 43.7281C126.917 43.8514 126.806 43.9887 126.744 44.14L125.957 43.9607C126.05 43.6991 126.186 43.488 126.366 43.3274C126.547 43.1648 126.755 43.0471 126.991 42.9743C127.226 42.8995 127.474 42.8622 127.733 42.8622C127.905 42.8622 128.087 42.8827 128.28 42.9238C128.474 42.963 128.655 43.0359 128.823 43.1424C128.993 43.2489 129.133 43.4011 129.241 43.5992C129.349 43.7953 129.404 44.0504 129.404 44.3642V47.2227H128.585V46.6342H128.552C128.497 46.7425 128.416 46.849 128.308 46.9536C128.199 47.0583 128.06 47.1451 127.89 47.2142C127.72 47.2834 127.517 47.3179 127.279 47.3179ZM127.462 46.6454C127.693 46.6454 127.891 46.5996 128.056 46.5081C128.222 46.4165 128.348 46.2969 128.434 46.1493C128.522 45.9999 128.566 45.8402 128.566 45.6701V45.1153C128.536 45.1452 128.478 45.1732 128.392 45.1993C128.308 45.2236 128.212 45.2451 128.103 45.2638C127.995 45.2806 127.889 45.2965 127.787 45.3114C127.684 45.3245 127.598 45.3357 127.529 45.3451C127.366 45.3656 127.218 45.4002 127.083 45.4488C126.951 45.4973 126.844 45.5674 126.764 45.6589C126.685 45.7486 126.646 45.8682 126.646 46.0176C126.646 46.225 126.723 46.3819 126.876 46.4884C127.029 46.5931 127.224 46.6454 127.462 46.6454ZM130.441 48.8368V42.9182H131.259V43.616H131.329C131.378 43.5263 131.448 43.4226 131.539 43.3049C131.631 43.1872 131.758 43.0845 131.92 42.9967C132.083 42.907 132.298 42.8622 132.565 42.8622C132.912 42.8622 133.223 42.95 133.495 43.1256C133.768 43.3012 133.982 43.5543 134.137 43.885C134.294 44.2157 134.372 44.6136 134.372 45.0788C134.372 45.544 134.295 45.9429 134.14 46.2755C133.985 46.6061 133.772 46.8611 133.501 47.0405C133.23 47.218 132.921 47.3067 132.573 47.3067C132.312 47.3067 132.098 47.2628 131.932 47.175C131.767 47.0872 131.638 46.9845 131.545 46.8668C131.451 46.7491 131.379 46.6444 131.329 46.5529H131.279V48.8368H130.441ZM131.262 45.0704C131.262 45.3731 131.306 45.6384 131.394 45.8663C131.481 46.0942 131.608 46.2727 131.775 46.4016C131.941 46.5286 132.145 46.5921 132.386 46.5921C132.636 46.5921 132.845 46.5258 133.013 46.3932C133.181 46.2586 133.308 46.0765 133.394 45.8467C133.482 45.6169 133.526 45.3581 133.526 45.0704C133.526 44.7865 133.483 44.5314 133.397 44.3054C133.313 44.0793 133.186 43.9009 133.016 43.7701C132.848 43.6394 132.638 43.574 132.386 43.574C132.143 43.574 131.937 43.6365 131.769 43.7617C131.603 43.8869 131.477 44.0616 131.391 44.2858C131.305 44.51 131.262 44.7715 131.262 45.0704ZM135.232 48.8368V42.9182H136.051V43.616H136.121C136.169 43.5263 136.239 43.4226 136.331 43.3049C136.422 43.1872 136.549 43.0845 136.712 42.9967C136.875 42.907 137.089 42.8622 137.357 42.8622C137.704 42.8622 138.014 42.95 138.287 43.1256C138.56 43.3012 138.774 43.5543 138.929 43.885C139.086 44.2157 139.164 44.6136 139.164 45.0788C139.164 45.544 139.087 45.9429 138.931 46.2755C138.776 46.6061 138.563 46.8611 138.293 47.0405C138.022 47.218 137.712 47.3067 137.365 47.3067C137.103 47.3067 136.889 47.2628 136.723 47.175C136.559 47.0872 136.43 46.9845 136.336 46.8668C136.243 46.7491 136.171 46.6444 136.121 46.5529H136.07V48.8368H135.232ZM136.053 45.0704C136.053 45.3731 136.097 45.6384 136.185 45.8663C136.273 46.0942 136.4 46.2727 136.566 46.4016C136.733 46.5286 136.936 46.5921 137.177 46.5921C137.428 46.5921 137.637 46.5258 137.805 46.3932C137.973 46.2586 138.1 46.0765 138.186 45.8467C138.274 45.6169 138.318 45.3581 138.318 45.0704C138.318 44.7865 138.275 44.5314 138.189 44.3054C138.105 44.0793 137.978 43.9009 137.808 43.7701C137.64 43.6394 137.429 43.574 137.177 43.574C136.934 43.574 136.729 43.6365 136.561 43.7617C136.394 43.8869 136.268 44.0616 136.182 44.2858C136.096 44.51 136.053 44.7715 136.053 45.0704Z" fill="#1E1E1E"/>
<defs>
<clipPath id="clip0_6635_7472">
<rect width="139.258" height="45.7326" fill="white" transform="translate(0 0.777344)"/>
</clipPath>
</defs>
</svg>
