<svg width="114" height="19" viewBox="0 0 114 19" fill="none" xmlns="http://www.w3.org/2000/svg">
<path d="M2.77265 1.55363V17.6767L0.5 18.8402V0.307007L2.77265 1.55363Z" fill="#D52222"/>
<path d="M5.46616 3.04959V8.24387H15.0618L5.46616 3.04959Z" fill="#D52222"/>
<path d="M8.32802 3.34047L8.53994 4.45007L12.7451 6.73074L8.32802 3.34047Z" fill="#D52222"/>
<path d="M5.46616 16.0976V10.9033H15.0618L5.46616 16.0976Z" fill="#D52222"/>
<path d="M8.32802 15.8067L8.53994 14.6971L12.7451 12.4165L8.32802 15.8067Z" fill="#D52222"/>
<path d="M23.2502 14.69C22.6337 14.69 22.158 14.5177 21.8231 14.1731C21.4931 13.8236 21.328 13.3334 21.328 12.7024V8.3775H20.5126C20.4252 8.3775 20.35 8.35081 20.2869 8.29741C20.2238 8.23917 20.1922 8.15422 20.1922 8.04258V7.40914L21.3935 7.2344L21.7358 5.08654C21.76 5.00402 21.8013 4.93849 21.8595 4.88995C21.9178 4.83656 21.9954 4.80986 22.0925 4.80986H22.8934V7.24896H24.9539V8.3775H22.8934V12.5931C22.8934 12.8601 22.9589 13.064 23.09 13.2047C23.2211 13.3455 23.3958 13.4159 23.6142 13.4159C23.7356 13.4159 23.8399 13.4013 23.9273 13.3722C24.0147 13.3382 24.0899 13.3042 24.153 13.2703C24.2161 13.2314 24.2695 13.1975 24.3132 13.1683C24.3617 13.1344 24.4078 13.1174 24.4515 13.1174C24.5389 13.1174 24.6093 13.1659 24.6627 13.263L25.1287 14.0275C24.886 14.2411 24.5996 14.4061 24.2695 14.5226C23.9394 14.6342 23.5997 14.69 23.2502 14.69ZM30.565 10.023C30.565 9.76087 30.5261 9.51818 30.4485 9.2949C30.3757 9.06676 30.2665 8.87018 30.1208 8.70514C29.9752 8.53526 29.7932 8.4042 29.5748 8.31197C29.3612 8.2149 29.1137 8.16636 28.8321 8.16636C28.2642 8.16636 27.8177 8.32896 27.4924 8.65418C27.1672 8.97939 26.9609 9.43566 26.8736 10.023H30.565ZM26.8299 10.9841C26.8493 11.4064 26.9148 11.7728 27.0265 12.0835C27.1381 12.3893 27.2861 12.6441 27.4706 12.848C27.6599 13.0518 27.8832 13.2047 28.1404 13.3067C28.4026 13.4037 28.6938 13.4523 29.0141 13.4523C29.3199 13.4523 29.5845 13.4183 29.8078 13.3504C30.031 13.2775 30.2252 13.1999 30.3902 13.1174C30.5553 13.03 30.696 12.9523 30.8125 12.8844C30.929 12.8116 31.0358 12.7752 31.1329 12.7752C31.2591 12.7752 31.3562 12.8237 31.4241 12.9208L31.8683 13.496C31.6838 13.7144 31.4751 13.8989 31.2421 14.0493C31.0091 14.1998 30.7616 14.3236 30.4995 14.4206C30.2373 14.5129 29.9679 14.5784 29.6913 14.6172C29.4146 14.6609 29.1452 14.6828 28.8831 14.6828C28.3686 14.6828 27.8905 14.5978 27.4488 14.4279C27.0119 14.2532 26.6309 13.9984 26.3057 13.6634C25.9853 13.3285 25.7329 12.9135 25.5484 12.4184C25.3688 11.9233 25.279 11.353 25.279 10.7074C25.279 10.1929 25.3591 9.71233 25.5193 9.26577C25.6844 8.81921 25.9173 8.4309 26.2183 8.10083C26.5241 7.77076 26.893 7.51108 27.325 7.32177C27.7618 7.12761 28.2545 7.03054 28.803 7.03054C29.2593 7.03054 29.6816 7.10577 30.0699 7.25624C30.4582 7.40186 30.7931 7.61786 31.0746 7.90424C31.3562 8.19063 31.5746 8.54254 31.7299 8.95997C31.8901 9.37256 31.9702 9.84339 31.9702 10.3725C31.9702 10.6152 31.9435 10.7778 31.8901 10.8603C31.8367 10.9428 31.7396 10.9841 31.5989 10.9841H26.8299ZM38.2427 8.60321C38.1941 8.66631 38.148 8.71485 38.1043 8.74883C38.0607 8.78281 37.9976 8.79979 37.915 8.79979C37.8325 8.79979 37.7452 8.77067 37.6529 8.71242C37.5656 8.65418 37.4588 8.59108 37.3326 8.52312C37.2112 8.45031 37.0632 8.38478 36.8884 8.32654C36.7137 8.26829 36.4953 8.23917 36.2332 8.23917C35.8934 8.23917 35.5949 8.29984 35.3376 8.42119C35.0852 8.54254 34.8716 8.71728 34.6969 8.94541C34.527 9.16869 34.3984 9.44294 34.311 9.76815C34.2285 10.0885 34.1872 10.4501 34.1872 10.853C34.1872 11.2704 34.2333 11.6418 34.3256 11.967C34.4178 12.2922 34.5488 12.5664 34.7187 12.7897C34.8935 13.013 35.1022 13.1829 35.3449 13.2994C35.5924 13.4159 35.8691 13.4741 36.1749 13.4741C36.4759 13.4741 36.721 13.4377 36.9103 13.3649C37.0996 13.2921 37.2573 13.212 37.3835 13.1246C37.5097 13.0373 37.6165 12.9572 37.7039 12.8844C37.7961 12.8116 37.8932 12.7752 37.9951 12.7752C38.1213 12.7752 38.2184 12.8237 38.2864 12.9208L38.7305 13.496C38.5509 13.7144 38.3519 13.8989 38.1335 14.0493C37.915 14.1998 37.6845 14.3236 37.4418 14.4206C37.1991 14.5129 36.9467 14.5784 36.6846 14.6172C36.4225 14.6609 36.1579 14.6828 35.891 14.6828C35.4298 14.6828 34.9978 14.5978 34.595 14.4279C34.1969 14.2532 33.8475 14.0032 33.5465 13.678C33.2504 13.3479 33.015 12.9475 32.8403 12.4766C32.6704 12.001 32.5854 11.4597 32.5854 10.853C32.5854 10.3045 32.6631 9.79728 32.8184 9.3313C32.9737 8.86047 33.1995 8.45517 33.4955 8.11539C33.7965 7.77561 34.1678 7.51108 34.6095 7.32177C35.0512 7.12761 35.5609 7.03054 36.1385 7.03054C36.6773 7.03054 37.1506 7.11791 37.5583 7.29265C37.9709 7.46739 38.3373 7.71494 38.6577 8.0353L38.2427 8.60321ZM41.1182 8.02802C41.424 7.72708 41.7589 7.48681 42.123 7.30721C42.487 7.12276 42.9117 7.03054 43.3971 7.03054C43.8048 7.03054 44.1616 7.09849 44.4674 7.2344C44.7781 7.37031 45.0377 7.56204 45.2465 7.80959C45.46 8.05714 45.6202 8.35566 45.727 8.70514C45.8338 9.04977 45.8872 9.43081 45.8872 9.84824V14.5735H44.3291V9.84824C44.3291 9.34829 44.2126 8.95997 43.9796 8.6833C43.7514 8.40663 43.402 8.26829 42.9311 8.26829C42.5816 8.26829 42.2564 8.34838 41.9555 8.50856C41.6594 8.66874 41.3803 8.88717 41.1182 9.16384V14.5735H39.5528V3.79782H41.1182V8.02802ZM51.7126 8.494C51.6737 8.56195 51.6301 8.61049 51.5815 8.63961C51.533 8.66874 51.4723 8.6833 51.3995 8.6833C51.317 8.6833 51.2272 8.65903 51.1301 8.61049C51.033 8.5571 50.919 8.49885 50.7879 8.43575C50.6568 8.37265 50.5015 8.31683 50.3219 8.26829C50.1472 8.2149 49.9409 8.1882 49.703 8.1882C49.5089 8.1882 49.3317 8.21247 49.1715 8.26101C49.0162 8.30469 48.8827 8.37022 48.7711 8.45759C48.6643 8.54011 48.5818 8.63961 48.5235 8.75611C48.4653 8.86775 48.4362 8.9891 48.4362 9.12015C48.4362 9.2949 48.4896 9.44051 48.5964 9.55701C48.7031 9.6735 48.8439 9.77544 49.0186 9.86281C49.1934 9.94532 49.3924 10.0206 49.6157 10.0885C49.839 10.1565 50.0671 10.2293 50.3001 10.3069C50.5331 10.3846 50.7612 10.4744 50.9845 10.5763C51.2078 10.6783 51.4068 10.8045 51.5815 10.9549C51.7563 11.1006 51.897 11.2802 52.0038 11.4937C52.1106 11.7024 52.164 11.9573 52.164 12.2582C52.164 12.6077 52.1009 12.9305 51.9747 13.2266C51.8485 13.5227 51.664 13.7799 51.4213 13.9984C51.1786 14.2168 50.8753 14.3867 50.5112 14.508C50.152 14.6294 49.7395 14.69 49.2735 14.69C49.0162 14.69 48.7662 14.6658 48.5235 14.6172C48.2857 14.5735 48.0576 14.5129 47.8391 14.4352C47.6256 14.3527 47.4241 14.2556 47.2348 14.144C47.0504 14.0323 46.8853 13.911 46.7397 13.7799L47.1038 13.1829C47.1475 13.1101 47.2008 13.0543 47.2639 13.0154C47.3319 12.9717 47.4144 12.9499 47.5115 12.9499C47.6134 12.9499 47.7129 12.9839 47.81 13.0518C47.9119 13.1149 48.0284 13.1853 48.1595 13.263C48.2954 13.3406 48.458 13.4135 48.6473 13.4814C48.8366 13.5445 49.072 13.5761 49.3536 13.5761C49.5866 13.5761 49.788 13.5494 49.9579 13.496C50.1278 13.4377 50.2685 13.3601 50.3802 13.263C50.4918 13.1659 50.5743 13.0567 50.6277 12.9353C50.6811 12.8091 50.7078 12.6757 50.7078 12.5349C50.7078 12.3456 50.6544 12.1903 50.5476 12.0689C50.4408 11.9476 50.2977 11.8432 50.1181 11.7558C49.9433 11.6685 49.7419 11.5908 49.5137 11.5229C49.2905 11.4549 49.0623 11.3821 48.8293 11.3044C48.5964 11.2268 48.3658 11.137 48.1377 11.035C47.9144 10.9331 47.7129 10.8045 47.5333 10.6491C47.3586 10.489 47.2178 10.2972 47.111 10.074C47.0043 9.84582 46.9509 9.56914 46.9509 9.24393C46.9509 8.94784 47.0091 8.66631 47.1256 8.39935C47.247 8.13238 47.4217 7.89696 47.6498 7.6931C47.8828 7.48923 48.1668 7.32905 48.5017 7.21256C48.8415 7.09121 49.2322 7.03054 49.6739 7.03054C50.1739 7.03054 50.6277 7.11063 51.0355 7.27081C51.4432 7.43099 51.7854 7.64941 52.0621 7.92609L51.7126 8.494ZM55.5791 14.69C54.9626 14.69 54.4869 14.5177 54.152 14.1731C53.822 13.8236 53.6569 13.3334 53.6569 12.7024V8.3775H52.8415C52.7541 8.3775 52.6788 8.35081 52.6157 8.29741C52.5526 8.23917 52.5211 8.15422 52.5211 8.04258V7.40914L53.7224 7.2344L54.0646 5.08654C54.0889 5.00402 54.1302 4.93849 54.1884 4.88995C54.2467 4.83656 54.3243 4.80986 54.4214 4.80986H55.2223V7.24896H57.2828V8.3775H55.2223V12.5931C55.2223 12.8601 55.2878 13.064 55.4189 13.2047C55.55 13.3455 55.7247 13.4159 55.9431 13.4159C56.0645 13.4159 56.1688 13.4013 56.2562 13.3722C56.3436 13.3382 56.4188 13.3042 56.4819 13.2703C56.545 13.2314 56.5984 13.1975 56.6421 13.1683C56.6906 13.1344 56.7367 13.1174 56.7804 13.1174C56.8678 13.1174 56.9382 13.1659 56.9916 13.263L57.4575 14.0275C57.2148 14.2411 56.9285 14.4061 56.5984 14.5226C56.2683 14.6342 55.9286 14.69 55.5791 14.69ZM62.0479 11.3263C61.4897 11.3457 61.0189 11.3918 60.6354 11.4646C60.252 11.5326 59.9413 11.6224 59.7035 11.734C59.4656 11.8408 59.2933 11.9694 59.1865 12.1199C59.0846 12.2704 59.0336 12.4354 59.0336 12.615C59.0336 12.7897 59.0603 12.9402 59.1137 13.0664C59.172 13.1877 59.2496 13.2897 59.3467 13.3722C59.4486 13.4499 59.5651 13.5081 59.6962 13.5469C59.8321 13.5809 59.9801 13.5979 60.1403 13.5979C60.5481 13.5979 60.8975 13.5227 61.1888 13.3722C61.4849 13.2169 61.7713 12.9936 62.0479 12.7024V11.3263ZM57.8978 8.18092C58.7375 7.39944 59.7375 7.00869 60.8975 7.00869C61.3247 7.00869 61.7033 7.07908 62.0334 7.21984C62.3683 7.35575 62.6474 7.54991 62.8707 7.80231C63.0988 8.05472 63.2711 8.35566 63.3876 8.70514C63.509 9.04977 63.5696 9.43323 63.5696 9.85553V14.5735H62.8707C62.7202 14.5735 62.6061 14.5517 62.5285 14.508C62.4508 14.4595 62.3853 14.3648 62.3319 14.2241L62.179 13.6197C61.9897 13.7896 61.8028 13.9425 61.6184 14.0784C61.4339 14.2095 61.2422 14.3211 61.0432 14.4134C60.849 14.5056 60.6379 14.5735 60.4097 14.6172C60.1864 14.6658 59.9389 14.69 59.6671 14.69C59.3661 14.69 59.0846 14.6488 58.8225 14.5663C58.5652 14.4837 58.3419 14.36 58.1526 14.1949C57.9633 14.0251 57.8129 13.8163 57.7012 13.5688C57.5944 13.3212 57.541 13.03 57.541 12.6951C57.541 12.4087 57.6163 12.1296 57.7668 11.8578C57.9221 11.586 58.1745 11.3433 58.524 11.1297C58.8783 10.9113 59.3419 10.7317 59.9146 10.5909C60.4922 10.4501 61.2033 10.37 62.0479 10.3506V9.85553C62.0479 9.32159 61.9339 8.92357 61.7057 8.66146C61.4776 8.39935 61.1427 8.26829 60.701 8.26829C60.4 8.26829 60.1476 8.30712 59.9437 8.38478C59.7399 8.45759 59.5627 8.53768 59.4122 8.62505C59.2618 8.71242 59.1283 8.79494 59.0118 8.8726C58.8953 8.94541 58.7715 8.98182 58.6405 8.98182C58.5337 8.98182 58.4415 8.95512 58.3638 8.90173C58.291 8.84348 58.2303 8.7731 58.1818 8.69058L57.8978 8.18092ZM66.5611 3.79782V14.5735H64.9957V3.79782H66.5611ZM78.4899 7.14703L76.109 14.5735H74.864C74.7184 14.5735 74.6165 14.4789 74.5582 14.2896L73.0802 9.66622C73.0414 9.53517 73.005 9.40411 72.971 9.27305C72.9419 9.142 72.9152 9.01337 72.8909 8.88717C72.8375 9.14928 72.772 9.41139 72.6943 9.6735L71.1944 14.2896C71.141 14.4789 71.027 14.5735 70.8522 14.5735H69.6655L67.2846 7.14703H68.5224C68.6437 7.14703 68.7432 7.17858 68.8209 7.24168C68.9034 7.29993 68.9568 7.37031 68.981 7.45283L70.2188 11.7777C70.2673 11.9767 70.3086 12.1709 70.3426 12.3602C70.3814 12.5446 70.4154 12.7291 70.4445 12.9135C70.493 12.7291 70.544 12.5446 70.5974 12.3602C70.6508 12.1709 70.7066 11.9767 70.7649 11.7777L72.1555 7.43099C72.1798 7.34361 72.2283 7.27323 72.3011 7.21984C72.3788 7.16159 72.471 7.13247 72.5778 7.13247H73.2622C73.3739 7.13247 73.4685 7.16159 73.5462 7.21984C73.6238 7.27323 73.6748 7.34361 73.6991 7.43099L75.0533 11.7777C75.1116 11.9767 75.165 12.1709 75.2135 12.3602C75.2669 12.5495 75.3154 12.7388 75.3591 12.9281C75.3931 12.7436 75.4295 12.5567 75.4683 12.3674C75.5072 12.1781 75.5533 11.9815 75.6067 11.7777L76.8663 7.45283C76.8954 7.36546 76.9488 7.29265 77.0264 7.2344C77.1041 7.17615 77.1988 7.14703 77.3104 7.14703H78.4899ZM83.0636 11.3263C82.5054 11.3457 82.0345 11.3918 81.6511 11.4646C81.2676 11.5326 80.957 11.6224 80.7191 11.734C80.4813 11.8408 80.309 11.9694 80.2022 12.1199C80.1002 12.2704 80.0493 12.4354 80.0493 12.615C80.0493 12.7897 80.076 12.9402 80.1294 13.0664C80.1876 13.1877 80.2653 13.2897 80.3623 13.3722C80.4643 13.4499 80.5808 13.5081 80.7118 13.5469C80.8477 13.5809 80.9958 13.5979 81.156 13.5979C81.5637 13.5979 81.9132 13.5227 82.2044 13.3722C82.5005 13.2169 82.7869 12.9936 83.0636 12.7024V11.3263ZM78.9134 8.18092C79.7532 7.39944 80.7531 7.00869 81.9132 7.00869C82.3403 7.00869 82.7189 7.07908 83.049 7.21984C83.3839 7.35575 83.663 7.54991 83.8863 7.80231C84.1144 8.05472 84.2867 8.35566 84.4032 8.70514C84.5246 9.04977 84.5853 9.43323 84.5853 9.85553V14.5735H83.8863C83.7358 14.5735 83.6218 14.5517 83.5441 14.508C83.4664 14.4595 83.4009 14.3648 83.3475 14.2241L83.1946 13.6197C83.0053 13.7896 82.8184 13.9425 82.634 14.0784C82.4495 14.2095 82.2578 14.3211 82.0588 14.4134C81.8646 14.5056 81.6535 14.5735 81.4254 14.6172C81.2021 14.6658 80.9545 14.69 80.6827 14.69C80.3818 14.69 80.1002 14.6488 79.8381 14.5663C79.5809 14.4837 79.3576 14.36 79.1683 14.1949C78.979 14.0251 78.8285 13.8163 78.7169 13.5688C78.6101 13.3212 78.5567 13.03 78.5567 12.6951C78.5567 12.4087 78.6319 12.1296 78.7824 11.8578C78.9377 11.586 79.1901 11.3433 79.5396 11.1297C79.8939 10.9113 80.3575 10.7317 80.9303 10.5909C81.5079 10.4501 82.219 10.37 83.0636 10.3506V9.85553C83.0636 9.32159 82.9495 8.92357 82.7214 8.66146C82.4932 8.39935 82.1583 8.26829 81.7166 8.26829C81.4156 8.26829 81.1632 8.30712 80.9594 8.38478C80.7555 8.45759 80.5783 8.53768 80.4279 8.62505C80.2774 8.71242 80.1439 8.79494 80.0274 8.8726C79.9109 8.94541 79.7872 8.98182 79.6561 8.98182C79.5493 8.98182 79.4571 8.95512 79.3794 8.90173C79.3066 8.84348 79.2459 8.7731 79.1974 8.69058L78.9134 8.18092ZM87.4602 8.52312C87.6932 8.05229 87.9747 7.68339 88.3048 7.41642C88.6348 7.1446 89.0304 7.00869 89.4916 7.00869C89.6517 7.00869 89.8022 7.02811 89.943 7.06694C90.0837 7.10092 90.2099 7.15431 90.3216 7.22712L90.2124 8.40663C90.193 8.48914 90.1614 8.54739 90.1177 8.58137C90.0789 8.61049 90.0255 8.62505 89.9575 8.62505C89.8847 8.62505 89.7804 8.61292 89.6445 8.58865C89.5086 8.55952 89.3654 8.54496 89.2149 8.54496C88.9965 8.54496 88.8023 8.57651 88.6324 8.63961C88.4674 8.70272 88.3169 8.79494 88.181 8.91629C88.0499 9.03764 87.9335 9.18568 87.8315 9.36042C87.7296 9.53517 87.6349 9.73418 87.5476 9.95746V14.5735H85.9822V7.14703H86.8923C87.0573 7.14703 87.1714 7.17858 87.2345 7.24168C87.2976 7.29993 87.3413 7.40429 87.3655 7.55476L87.4602 8.52312ZM93.3015 14.69C92.6851 14.69 92.2094 14.5177 91.8745 14.1731C91.5444 13.8236 91.3794 13.3334 91.3794 12.7024V8.3775H90.5639C90.4765 8.3775 90.4013 8.35081 90.3382 8.29741C90.2751 8.23917 90.2435 8.15422 90.2435 8.04258V7.40914L91.4449 7.2344L91.7871 5.08654C91.8114 5.00402 91.8526 4.93849 91.9109 4.88995C91.9691 4.83656 92.0468 4.80986 92.1439 4.80986H92.9448V7.24896H95.0053V8.3775H92.9448V12.5931C92.9448 12.8601 93.0103 13.064 93.1413 13.2047C93.2724 13.3455 93.4471 13.4159 93.6656 13.4159C93.7869 13.4159 93.8913 13.4013 93.9786 13.3722C94.066 13.3382 94.1413 13.3042 94.2044 13.2703C94.2675 13.2314 94.3209 13.1975 94.3645 13.1683C94.4131 13.1344 94.4592 13.1174 94.5029 13.1174C94.5902 13.1174 94.6606 13.1659 94.714 13.263L95.18 14.0275C94.9373 14.2411 94.6509 14.4061 94.3209 14.5226C93.9908 14.6342 93.651 14.69 93.3015 14.69ZM100.236 8.494C100.198 8.56195 100.154 8.61049 100.105 8.63961C100.057 8.66874 99.9961 8.6833 99.9233 8.6833C99.8408 8.6833 99.751 8.65903 99.6539 8.61049C99.5568 8.5571 99.4427 8.49885 99.3117 8.43575C99.1806 8.37265 99.0253 8.31683 98.8457 8.26829C98.671 8.2149 98.4647 8.1882 98.2268 8.1882C98.0327 8.1882 97.8555 8.21247 97.6953 8.26101C97.54 8.30469 97.4065 8.37022 97.2949 8.45759C97.1881 8.54011 97.1056 8.63961 97.0473 8.75611C96.9891 8.86775 96.9599 8.9891 96.9599 9.12015C96.9599 9.2949 97.0133 9.44051 97.1201 9.55701C97.2269 9.6735 97.3677 9.77544 97.5424 9.86281C97.7172 9.94532 97.9162 10.0206 98.1395 10.0885C98.3627 10.1565 98.5909 10.2293 98.8239 10.3069C99.0568 10.3846 99.285 10.4744 99.5083 10.5763C99.7315 10.6783 99.9306 10.8045 100.105 10.9549C100.28 11.1006 100.421 11.2802 100.528 11.4937C100.634 11.7024 100.688 11.9573 100.688 12.2582C100.688 12.6077 100.625 12.9305 100.498 13.2266C100.372 13.5227 100.188 13.7799 99.9451 13.9984C99.7024 14.2168 99.399 14.3867 99.035 14.508C98.6758 14.6294 98.2632 14.69 97.7973 14.69C97.54 14.69 97.29 14.6658 97.0473 14.6172C96.8095 14.5735 96.5813 14.5129 96.3629 14.4352C96.1493 14.3527 95.9479 14.2556 95.7586 14.144C95.5742 14.0323 95.4091 13.911 95.2635 13.7799L95.6275 13.1829C95.6712 13.1101 95.7246 13.0543 95.7877 13.0154C95.8557 12.9717 95.9382 12.9499 96.0353 12.9499C96.1372 12.9499 96.2367 12.9839 96.3338 13.0518C96.4357 13.1149 96.5522 13.1853 96.6833 13.263C96.8192 13.3406 96.9818 13.4135 97.1711 13.4814C97.3604 13.5445 97.5958 13.5761 97.8773 13.5761C98.1103 13.5761 98.3118 13.5494 98.4817 13.496C98.6515 13.4377 98.7923 13.3601 98.9039 13.263C99.0156 13.1659 99.0981 13.0567 99.1515 12.9353C99.2049 12.8091 99.2316 12.6757 99.2316 12.5349C99.2316 12.3456 99.1782 12.1903 99.0714 12.0689C98.9646 11.9476 98.8214 11.8432 98.6418 11.7558C98.4671 11.6685 98.2657 11.5908 98.0375 11.5229C97.8142 11.4549 97.5861 11.3821 97.3531 11.3044C97.1201 11.2268 96.8896 11.137 96.6614 11.035C96.4382 10.9331 96.2367 10.8045 96.0571 10.6491C95.8824 10.489 95.7416 10.2972 95.6348 10.074C95.528 9.84582 95.4746 9.56914 95.4746 9.24393C95.4746 8.94784 95.5329 8.66631 95.6494 8.39935C95.7707 8.13238 95.9455 7.89696 96.1736 7.6931C96.4066 7.48923 96.6906 7.32905 97.0255 7.21256C97.3653 7.09121 97.756 7.03054 98.1977 7.03054C98.6977 7.03054 99.1515 7.11063 99.5592 7.27081C99.967 7.43099 100.309 7.64941 100.586 7.92609L100.236 8.494Z" fill="black"/>
<path d="M101.482 13.6707C101.482 13.53 101.506 13.3989 101.555 13.2775C101.608 13.1513 101.678 13.0421 101.766 12.9499C101.858 12.8577 101.965 12.7849 102.086 12.7315C102.212 12.6781 102.346 12.6514 102.486 12.6514C102.627 12.6514 102.758 12.6781 102.88 12.7315C103.006 12.7849 103.115 12.8577 103.207 12.9499C103.3 13.0421 103.372 13.1513 103.426 13.2775C103.479 13.3989 103.506 13.53 103.506 13.6707C103.506 13.8163 103.479 13.9498 103.426 14.0712C103.372 14.1925 103.3 14.2993 103.207 14.3915C103.115 14.4837 103.006 14.5541 102.88 14.6027C102.758 14.6561 102.627 14.6828 102.486 14.6828C102.346 14.6828 102.212 14.6561 102.086 14.6027C101.965 14.5541 101.858 14.4837 101.766 14.3915C101.678 14.2993 101.608 14.1925 101.555 14.0712C101.506 13.9498 101.482 13.8163 101.482 13.6707Z" fill="#D42222"/>
</svg>
