<svg width="96" height="30" viewBox="0 0 96 30" fill="none" xmlns="http://www.w3.org/2000/svg">
<g clip-path="url(#clip0_1669_17621)">
<path d="M95.0649 11.671V4.62134H76.4109H38.4466H0.585938V11.6362C1.93317 11.6362 3.03859 12.7475 3.03859 14.1192C3.03859 15.4909 1.93317 16.5849 0.585938 16.5849V24.8499H38.4466V24.9367H95.0649V16.6369C93.7004 16.6369 92.6122 15.5257 92.6122 14.154C92.6122 12.7822 93.7004 11.671 95.0649 11.671Z" fill="#5093F9"/>
<path d="M5.33876 10.0724H2.85156V7.53735H10.5895V10.0724H8.08504V21.6887H5.33876V10.0724Z" fill="white"/>
<path d="M13.7329 7.53735V21.6887H11.0039V7.53735H13.7329Z" fill="white"/>
<path d="M21.8685 21.4806C21.4712 21.6716 20.6939 21.8105 19.744 21.8105C16.1514 21.8105 14.4414 18.8239 14.4414 14.8129C14.4414 9.48231 17.395 7.39868 20.124 7.39868C21.0912 7.39868 21.7475 7.58968 22.0239 7.78068L21.5576 10.09C21.2467 9.95113 20.8839 9.81222 20.2794 9.81222C18.7249 9.81222 17.3259 11.1492 17.3259 14.6567C17.3259 18.0426 18.604 19.3622 20.2794 19.3622C20.7458 19.3622 21.2639 19.258 21.5921 19.1538L21.8685 21.4806Z" fill="white"/>
<path d="M22.1953 7.53735H24.9243V13.8924H24.9589C25.1834 13.3021 25.4252 12.677 25.6498 12.0693L27.5324 7.53735H30.5551L27.3942 13.6841L30.5896 21.6887H27.6188L25.5634 15.8198L24.9416 16.9831V21.6887H22.2126V7.53735H22.1953Z" fill="white"/>
<path d="M36.6721 15.4725H33.4595V19.2925H37.0866V21.6887H30.7305V7.53735H36.8448V9.93353H33.4595V13.1805H36.6721V15.4725Z" fill="white"/>
<path d="M39.952 10.0724H37.4648V7.53735H45.2028V10.0724H42.6983V21.6887H39.9693V10.0724H39.952Z" fill="white"/>
<path d="M45.9793 18.8762C46.5493 19.1888 47.4992 19.4145 48.2938 19.4145C49.5892 19.4145 50.211 18.7373 50.211 17.8171C50.211 16.7926 49.5892 16.2891 48.3974 15.5077C46.4802 14.327 45.7375 12.8337 45.7375 11.5662C45.7375 9.29153 47.2402 7.41626 50.1937 7.41626C51.1091 7.41626 51.99 7.67671 52.4046 7.9198L51.9727 10.2813C51.5755 10.0208 50.971 9.79507 50.1764 9.79507C49.0019 9.79507 48.4492 10.507 48.4492 11.271C48.4492 12.1044 48.8637 12.5559 50.3837 13.4762C52.2491 14.6048 52.94 16.046 52.94 17.5219C52.94 20.109 51.04 21.8107 48.2765 21.8107C47.1538 21.8107 46.0484 21.5155 45.582 21.2377L45.9793 18.8762Z" fill="white"/>
<path d="M57.1356 10.0724H54.6484V7.53735H62.3864V10.0724H59.8819V21.6887H57.1529V10.0724H57.1356Z" fill="white"/>
<path d="M71.1997 14.3611C71.1997 19.6917 69.317 21.8621 66.6398 21.8621C63.4445 21.8621 62.1836 18.4589 62.1836 14.5694C62.1836 10.6973 63.7035 7.36353 66.8298 7.36353C70.2324 7.36353 71.1997 11.1141 71.1997 14.3611ZM65.0335 14.6041C65.0335 17.8164 65.638 19.4486 66.7435 19.4486C67.9007 19.4486 68.3325 17.3476 68.3325 14.4652C68.3325 11.9822 67.9525 9.74234 66.7262 9.74234C65.638 9.7597 65.0335 11.5655 65.0335 14.6041Z" fill="white"/>
<path d="M73.822 7.74486C74.5128 7.57122 75.5146 7.46704 76.6028 7.46704C78.3818 7.46704 79.6082 7.88377 80.5063 8.73458C81.7154 9.82849 82.3372 11.7038 82.3372 14.4472C82.3372 17.2948 81.6117 19.3437 80.3681 20.4376C79.4354 21.3579 78.0364 21.8094 76.0673 21.8094C75.2037 21.8094 74.3574 21.7226 73.8047 21.6705V7.74486H73.822ZM76.551 19.5C76.6719 19.5347 76.8791 19.5347 77.0346 19.5347C78.3473 19.5347 79.5045 18.2325 79.5045 14.3257C79.5045 11.4259 78.7445 9.65485 77.1037 9.65485C76.9137 9.65485 76.7237 9.65485 76.5682 9.72431V19.5H76.551Z" fill="white"/>
<path d="M91.6489 14.3611C91.6489 19.6917 89.7662 21.8621 87.089 21.8621C83.8937 21.8621 82.6328 18.4589 82.6328 14.5694C82.6328 10.6973 84.1528 7.36353 87.279 7.36353C90.6817 7.36353 91.6489 11.1141 91.6489 14.3611ZM85.4827 14.6041C85.4827 17.8164 86.0873 19.4486 87.1927 19.4486C88.3499 19.4486 88.7817 17.3476 88.7817 14.4652C88.7817 11.9822 88.4017 9.74234 87.1754 9.74234C86.0873 9.7597 85.4827 11.5655 85.4827 14.6041Z" fill="white"/>
</g>
<defs>
<clipPath id="clip0_1669_17621">
<rect width="94.6517" height="28.5457" fill="white" transform="translate(0.5 0.506104)"/>
</clipPath>
</defs>
</svg>
