<svg width="200" height="200" viewBox="0 0 200 200" fill="none" xmlns="http://www.w3.org/2000/svg">
<g clip-path="url(#clip0_658_2821)">
<path d="M60.1567 16.0212V48.1881C60.1567 49.6915 60.3503 49.8901 61.8329 49.8862C65.7349 49.8862 69.6408 49.8862 73.5467 49.8512C73.9385 49.8055 74.3332 49.9083 74.6538 50.1394C74.9744 50.3705 75.198 50.7135 75.281 51.1014C76.9068 56.0594 78.552 61.0097 80.1817 65.9638C80.2979 66.3105 80.3521 66.6805 80.4682 67.1712H79.2411C73.3493 67.1712 67.4601 67.1712 61.5735 67.1712C60.3154 67.1712 60.1567 67.327 60.1567 68.5928C60.1567 79.0191 59.8857 89.4532 60.2535 99.8678C60.7103 112.791 66.9775 122.27 78.4127 128.218C82.3612 130.27 86.5419 131.563 91.0401 131.053C93.9047 130.726 96.7267 130.029 99.5564 129.495C99.6184 129.495 99.6765 129.452 99.7384 129.445C101.674 129.133 101.287 129.055 101.825 130.664C103.474 135.509 105.115 140.358 106.749 145.211C106.85 145.507 106.935 145.81 107.086 146.305C104.914 146.819 102.827 147.473 100.66 147.793C93.2466 148.86 85.9109 148.786 78.5946 146.679C69.6253 144.089 62.1193 139.279 55.825 132.436C50.0226 126.208 46.0182 118.505 44.2427 110.158C43.5371 106.818 43.1764 103.414 43.1666 100C43.035 72.9393 43.0272 45.8785 42.9769 18.8216C42.9769 15.5266 42.7988 16.0602 45.7641 16.0446C50.1732 16.0212 54.5901 16.0212 58.9954 16.0212H60.1567Z" fill="url(#paint0_linear_658_2821)"/>
<path d="M116.527 142.259C114.662 136.693 112.846 131.303 111.05 125.9C110.81 125.184 111.05 124.635 111.704 124.202C118.614 119.622 122.462 113.063 123.735 104.951C124.347 101.056 124.088 97.161 123.565 93.2273C122.713 86.8087 119.857 81.5041 115.281 77.1225C110.585 72.624 104.868 69.995 98.5966 68.5306C96.425 68.0204 94.2185 67.6543 92.0429 67.1674C91.8637 67.122 91.6962 67.0383 91.552 66.9221C91.4077 66.8058 91.29 66.6597 91.2068 66.4936C89.3951 61.1656 87.6222 55.8259 85.8453 50.49C85.795 50.3459 85.7602 50.2018 85.6905 49.9565C86.0167 49.9145 86.3449 49.8911 86.6737 49.8864C94.5707 50.1317 102.359 51.0275 109.815 53.8668C118.118 57.0332 125.443 61.6797 130.986 68.7526C136.982 76.4019 140.396 85.1106 140.931 94.9215C141.264 100.97 141.209 106.995 139.707 112.837C138.089 119.155 134.961 124.787 130.901 129.893C126.914 134.909 121.873 138.613 116.527 142.259Z" fill="#58595B"/>
<path d="M111.004 88.908C110.744 96.8689 108.913 104.487 104.38 111.244C101.375 115.749 97.053 119.203 92.0121 121.129C91.4298 121.318 90.8002 121.298 90.2314 121.071C81.0918 117.328 75.9433 110.142 73.2219 100.927C71.9822 96.6031 71.3439 92.127 71.3251 87.6266C71.2741 87.1378 71.3825 86.6455 71.6339 86.224C71.8852 85.8025 72.266 85.4746 72.7187 85.2898C78.4401 82.4518 84.1487 79.5813 89.8443 76.6784C90.2637 76.4362 90.7388 76.3087 91.2224 76.3087C91.706 76.3087 92.1811 76.4362 92.6005 76.6784C98.2058 79.5411 103.827 82.396 109.463 85.1768C110.624 85.7455 111.189 86.4504 111.011 87.7435C110.982 88.131 110.98 88.5201 111.004 88.908ZM105.561 90.9644C105.669 89.4065 105.584 89.2391 104.179 88.5302C100.219 86.54 96.247 84.5653 92.2985 82.5479C91.9617 82.3508 91.5791 82.247 91.1895 82.247C90.7999 82.247 90.4172 82.3508 90.0804 82.5479C86.0184 84.6251 81.9421 86.6737 77.8517 88.6938C77.4843 88.8321 77.176 89.0945 76.9797 89.4363C76.7834 89.778 76.7112 90.1778 76.7756 90.5672C77.124 94.7852 77.8943 98.902 79.4853 102.828C81.626 108.024 84.8777 112.222 89.8172 115.022C90.2208 115.285 90.6913 115.425 91.1721 115.425C91.6528 115.425 92.1234 115.285 92.5269 115.022C95.4253 113.397 97.9211 111.134 99.8278 108.401C103.49 103.175 104.996 97.2233 105.561 90.9644Z" fill="#595A5C"/>
<path d="M101.949 91.8915C101.26 98.0453 99.7233 103.607 95.6393 108.102C94.5283 109.321 93.1076 110.267 91.7682 111.237C91.4818 111.439 90.7888 111.338 90.4327 111.124C86.5036 108.764 84.0725 105.188 82.466 100.97C81.4117 98.1241 80.745 95.1474 80.4841 92.1213C80.4825 91.9666 80.5167 91.8136 80.5839 91.6744C80.6511 91.5352 80.7494 91.4135 80.8712 91.319C84.1461 89.6313 87.4365 87.976 90.7424 86.3532C90.9142 86.2972 91.0954 86.2759 91.2754 86.2907C91.4555 86.3054 91.6308 86.3557 91.7914 86.4389C94.9812 88.0124 98.1594 89.6105 101.326 91.2333C101.632 91.3891 101.818 91.7513 101.949 91.8915Z" fill="#66BC94"/>
</g>
<path d="M14.3032 184.034V161.621H5.72354V156.821H28.023V161.621H19.4434V184.034H14.3032ZM29.1775 184.034V163.624H33.713V168.613L33.2217 167.971C33.4863 167.265 33.839 166.623 34.28 166.043C34.7209 165.464 35.2627 164.985 35.9052 164.607C36.3965 164.305 36.932 164.072 37.5115 163.908C38.091 163.731 38.6895 163.624 39.3068 163.587C39.9241 163.536 40.5415 163.549 41.1588 163.624V168.424C40.5918 168.248 39.9304 168.191 39.1745 168.254C38.4312 168.305 37.7572 168.475 37.1524 168.765C36.5477 169.042 36.0375 169.413 35.6217 169.88C35.206 170.333 34.891 170.875 34.6768 171.505C34.4626 172.122 34.3556 172.821 34.3556 173.602V184.034H29.1775ZM50.0169 184.601C48.5554 184.601 47.3145 184.324 46.294 183.769C45.2861 183.203 44.5176 182.453 43.9884 181.521C43.4719 180.576 43.2136 179.536 43.2136 178.402C43.2136 177.458 43.3585 176.595 43.6483 175.813C43.938 175.032 44.4042 174.346 45.0467 173.754C45.7018 173.149 46.5774 172.645 47.6735 172.242C48.4294 171.965 49.3302 171.719 50.3759 171.505C51.4216 171.291 52.6059 171.089 53.9287 170.9C55.2516 170.698 56.7067 170.478 58.2941 170.239L56.4421 171.259C56.4421 170.05 56.1524 169.161 55.5728 168.595C54.9933 168.028 54.0232 167.744 52.6626 167.744C51.9066 167.744 51.1192 167.927 50.3003 168.292C49.4814 168.658 48.9082 169.306 48.5806 170.239L43.9317 168.765C44.4483 167.076 45.4184 165.703 46.842 164.645C48.2657 163.587 50.2058 163.057 52.6626 163.057C54.4642 163.057 56.0642 163.335 57.4626 163.889C58.8611 164.443 59.9193 165.401 60.6375 166.761C61.0406 167.517 61.28 168.273 61.3556 169.029C61.4312 169.785 61.469 170.629 61.469 171.561V184.034H56.9713V179.839L57.6138 180.708C56.6185 182.081 55.5413 183.077 54.3823 183.694C53.2358 184.299 51.7807 184.601 50.0169 184.601ZM51.1129 180.557C52.0578 180.557 52.8515 180.393 53.4941 180.066C54.1492 179.725 54.6657 179.341 55.0437 178.913C55.4342 178.484 55.6988 178.125 55.8374 177.836C56.102 177.281 56.2531 176.639 56.2909 175.908C56.3413 175.165 56.3665 174.547 56.3665 174.056L57.8784 174.434C56.3539 174.686 55.1193 174.9 54.1744 175.076C53.2295 175.24 52.4673 175.391 51.8877 175.53C51.3082 175.669 50.798 175.82 50.357 175.984C49.8531 176.185 49.4436 176.406 49.1287 176.645C48.8263 176.872 48.5995 177.124 48.4483 177.401C48.3098 177.678 48.2405 177.987 48.2405 178.327C48.2405 178.793 48.3538 179.196 48.5806 179.536C48.82 179.864 49.1539 180.116 49.5822 180.292C50.0106 180.469 50.5208 180.557 51.1129 180.557ZM80.2915 184.034V174.396C80.2915 173.93 80.2663 173.338 80.2159 172.62C80.1655 171.889 80.008 171.158 79.7435 170.428C79.4789 169.697 79.0443 169.086 78.4395 168.595C77.8474 168.103 77.0033 167.857 75.9072 167.857C75.4663 167.857 74.9938 167.927 74.4899 168.065C73.9859 168.204 73.5135 168.475 73.0725 168.878C72.6316 169.269 72.2662 169.848 71.9765 170.617C71.6993 171.385 71.5607 172.406 71.5607 173.678L68.6126 172.28C68.6126 170.667 68.9402 169.155 69.5953 167.744C70.2505 166.333 71.2331 165.193 72.5434 164.324C73.8662 163.454 75.5293 163.02 77.5324 163.02C79.1324 163.02 80.4364 163.291 81.4443 163.832C82.4522 164.374 83.2333 165.061 83.7876 165.892C84.3545 166.724 84.7577 167.593 84.9971 168.5C85.2364 169.395 85.3813 170.213 85.4317 170.957C85.4821 171.7 85.5073 172.242 85.5073 172.582V184.034H80.2915ZM66.3449 184.034V163.624H70.9182V170.39H71.5607V184.034H66.3449ZM98.3859 184.601C95.8158 184.601 93.737 184.021 92.1496 182.862C90.5748 181.691 89.6173 180.04 89.2771 177.911L94.5307 177.117C94.7449 178.075 95.2174 178.825 95.9481 179.366C96.6914 179.908 97.63 180.179 98.7639 180.179C99.6962 180.179 100.414 180.003 100.918 179.65C101.422 179.284 101.674 178.78 101.674 178.138C101.674 177.735 101.573 177.414 101.372 177.174C101.17 176.922 100.717 176.676 100.011 176.437C99.3182 176.198 98.2347 175.883 96.7607 175.492C95.0977 175.064 93.7685 174.585 92.7732 174.056C91.778 173.527 91.0598 172.897 90.6189 172.166C90.1779 171.423 89.9575 170.528 89.9575 169.483C89.9575 168.172 90.2913 167.039 90.959 166.081C91.6268 165.111 92.5654 164.368 93.7748 163.851C94.9969 163.322 96.4331 163.057 98.0835 163.057C99.6836 163.057 101.101 163.303 102.336 163.794C103.57 164.286 104.566 164.985 105.321 165.892C106.09 166.799 106.562 167.87 106.739 169.105L101.485 170.05C101.397 169.294 101.069 168.695 100.502 168.254C99.9355 167.813 99.167 167.555 98.1969 167.48C97.252 167.417 96.4898 167.543 95.9103 167.857C95.3434 168.172 95.0599 168.626 95.0599 169.218C95.0599 169.571 95.1796 169.867 95.4189 170.106C95.6709 170.346 96.1812 170.591 96.9497 170.843C97.7308 171.095 98.915 171.423 100.502 171.826C102.052 172.229 103.293 172.702 104.225 173.243C105.17 173.773 105.857 174.415 106.285 175.171C106.714 175.914 106.928 176.815 106.928 177.873C106.928 179.965 106.172 181.609 104.66 182.806C103.148 184.003 101.057 184.601 98.3859 184.601Z" fill="url(#paint1_linear_658_2821)"/>
<path d="M111.081 184.034V156.821H121.966C123.906 156.821 125.474 157.212 126.671 157.993C127.868 158.761 128.744 159.731 129.298 160.903C129.852 162.075 130.13 163.259 130.13 164.456C130.13 165.98 129.783 167.246 129.09 168.254C128.41 169.262 127.471 169.936 126.274 170.276V169.332C127.975 169.684 129.248 170.472 130.092 171.694C130.948 172.916 131.377 174.283 131.377 175.795C131.377 177.42 131.074 178.85 130.47 180.084C129.878 181.319 128.971 182.289 127.748 182.995C126.526 183.688 124.989 184.034 123.137 184.034H111.081ZM116.296 179.196H122.608C123.301 179.196 123.918 179.051 124.46 178.762C125.002 178.459 125.424 178.043 125.726 177.514C126.041 176.973 126.199 176.336 126.199 175.606C126.199 174.963 126.067 174.39 125.802 173.886C125.537 173.382 125.134 172.985 124.593 172.695C124.063 172.393 123.402 172.242 122.608 172.242H116.296V179.196ZM116.296 167.442H121.89C122.47 167.442 122.986 167.341 123.44 167.139C123.893 166.938 124.252 166.629 124.517 166.213C124.781 165.785 124.914 165.237 124.914 164.569C124.914 163.738 124.655 163.039 124.139 162.472C123.622 161.905 122.873 161.621 121.89 161.621H116.296V167.442ZM149.055 184.034V174.396C149.055 173.93 149.029 173.338 148.979 172.62C148.929 171.889 148.771 171.158 148.507 170.428C148.242 169.697 147.807 169.086 147.203 168.595C146.61 168.103 145.766 167.857 144.67 167.857C144.229 167.857 143.757 167.927 143.253 168.065C142.749 168.204 142.277 168.475 141.836 168.878C141.395 169.269 141.029 169.848 140.74 170.617C140.462 171.385 140.324 172.406 140.324 173.678L137.376 172.28C137.376 170.667 137.703 169.155 138.358 167.744C139.014 166.333 139.996 165.193 141.306 164.324C142.629 163.454 144.292 163.02 146.296 163.02C147.896 163.02 149.199 163.291 150.207 163.832C151.215 164.374 151.996 165.061 152.551 165.892C153.118 166.724 153.521 167.593 153.76 168.5C154 169.395 154.144 170.213 154.195 170.957C154.245 171.7 154.27 172.242 154.27 172.582V184.034H149.055ZM135.108 184.034V163.624H139.681V170.39H140.324V184.034H135.108ZM159.136 184.034L159.174 156.821H164.39V173.451L171.307 163.624H177.656L170.286 173.829L178.148 184.034H171.458L164.39 174.207V184.034H159.136Z" fill="#58595B"/>
<path d="M181.37 158.485V152.248H178.982V150.913H185.187V152.248H182.8V158.485H181.37ZM186.032 158.485V150.913H187.316L189.819 155.94L192.322 150.913H193.605V158.485H192.269V153.963L190.071 158.485H189.566L187.368 153.963V158.485H186.032Z" fill="url(#paint2_linear_658_2821)"/>
<defs>
<linearGradient id="paint0_linear_658_2821" x1="14.2848" y1="82.9244" x2="113.247" y2="130.827" gradientUnits="userSpaceOnUse">
<stop stop-color="#66BB94"/>
<stop offset="1" stop-color="#00AF5F"/>
</linearGradient>
<linearGradient id="paint1_linear_658_2821" x1="-72.311" y1="163.956" x2="-56.072" y2="235.407" gradientUnits="userSpaceOnUse">
<stop stop-color="#66BB94"/>
<stop offset="1" stop-color="#00AF5F"/>
</linearGradient>
<linearGradient id="paint2_linear_658_2821" x1="171.891" y1="158.276" x2="191.28" y2="172.445" gradientUnits="userSpaceOnUse">
<stop stop-color="#66BB94"/>
<stop offset="1" stop-color="#00AF5F"/>
</linearGradient>
<clipPath id="clip0_658_2821">
<rect width="98.1045" height="132.449" fill="white" transform="translate(42.9771 16.0216)"/>
</clipPath>
</defs>
</svg>
