<svg width="42" height="40" viewBox="0 0 42 40" fill="none" xmlns="http://www.w3.org/2000/svg">
<path d="M11.522 34.5818L12.1764 34.9059C14.8445 36.4777 17.8948 37.2993 20.9992 37.2823C30.5561 37.2607 38.4084 29.465 38.4084 19.9994C38.4084 15.4249 36.574 11.0318 33.3121 7.79344C30.0544 4.5216 25.6038 2.67773 20.9655 2.67773C11.4522 2.67773 3.625 10.4313 3.625 19.8525C3.625 19.9271 3.625 20.0005 3.62609 20.0751C3.65475 23.2782 4.55928 26.4139 6.24353 29.1485L6.67975 29.7966L4.93481 36.1697L11.522 34.5818Z" fill="#00E676"/>
<path d="M35.2539 5.84886C31.5405 2.0963 26.4462 -0.00892867 21.1416 0.0158411H21.1078C10.1834 0.015875 1.19361 8.91981 1.19361 19.7399C1.19361 19.7907 1.19471 19.8404 1.19471 19.8912C1.23585 23.3313 2.13501 26.708 3.81214 29.7208L0.976562 39.9824L11.5444 37.282C14.4638 38.8694 17.7459 39.6877 21.0762 39.6584C32.041 39.599 41.0297 30.6443 41.0232 19.7831C41.0493 14.5648 38.9718 9.54629 35.2539 5.84886ZM21.1416 36.3098C18.1896 36.3251 15.2895 35.5407 12.755 34.0415L12.1006 33.7174L5.80789 35.3377L7.44377 29.1807L7.00755 28.5325C5.38714 25.9411 4.52866 22.9534 4.52862 19.9052C4.52862 10.916 11.997 3.51887 21.073 3.51887C30.1489 3.51887 37.6172 10.916 37.6172 19.9052C37.6172 25.5653 34.6563 30.8387 29.801 33.8254C27.233 35.4546 24.2458 36.3171 21.1962 36.3098M30.7825 24.3199L29.5828 23.7798C29.5828 23.7798 27.8379 23.0236 26.7473 22.4836C26.6382 22.4836 26.5292 22.3756 26.4201 22.3756C26.1512 22.3821 25.8885 22.4565 25.6567 22.5916C25.4244 22.7266 25.5476 22.6996 24.0208 24.4279C23.9172 24.6299 23.7045 24.7563 23.4755 24.7519H23.3664C23.2025 24.7248 23.0506 24.6495 22.9302 24.5359L22.3849 24.3199C21.2149 23.8292 20.1436 23.1341 19.2222 22.2675C19.0041 22.0515 18.6769 21.8354 18.4588 21.6194C17.6514 20.8534 16.9542 19.9811 16.3867 19.027L16.2776 18.811C16.1828 18.6789 16.1093 18.5332 16.0595 18.3789C16.0309 18.1918 16.0695 18.0007 16.1685 17.8388C16.2678 17.6768 16.6048 17.2987 16.9319 16.9747C17.2591 16.6506 17.2591 16.4346 17.4772 16.2185C17.5893 16.0643 17.6668 15.8882 17.7044 15.7018C17.7421 15.5155 17.739 15.3234 17.6953 15.1383C17.1871 13.7406 16.6046 12.3705 15.9504 11.0337C15.7751 10.7636 15.5018 10.5703 15.187 10.4936H13.9873C13.7692 10.4936 13.5511 10.6016 13.333 10.6016L13.2239 10.7096C13.0058 10.8176 12.7877 11.0337 12.5696 11.1417C12.3514 11.2497 12.2424 11.5738 12.0243 11.7898C11.2619 12.7441 10.84 13.9216 10.8246 15.1383C10.8367 15.9943 11.0221 16.8391 11.3699 17.6228L11.479 17.9468C12.4582 20.0205 13.8278 21.8902 15.5142 23.4557L15.9504 23.8878C16.2679 24.1482 16.56 24.4375 16.8229 24.7519C19.0826 26.6995 21.7665 28.1037 24.6643 28.8566C24.9914 28.9646 25.4277 28.9646 25.7548 29.0726H26.8455C27.4155 29.0448 27.973 28.8975 28.4813 28.6406C28.7485 28.5207 29.0037 28.3759 29.2447 28.2085L29.4629 27.9925C29.681 27.7764 29.8991 27.6684 30.1172 27.4524C30.3304 27.2643 30.5142 27.0459 30.6625 26.8043C30.8719 26.3204 31.0191 25.8127 31.0988 25.292V24.5359C31.0008 24.4487 30.8906 24.3759 30.7716 24.3199" fill="white"/>
</svg>
